<svg width="960" height="960" viewBox="0 0 960 960" fill="none" xmlns="http://www.w3.org/2000/svg">
<g clip-path="url(#clip0_46_133)">
<g clip-path="url(#clip1_46_133)">
<path d="M736.651 203.157L737.297 248.499L701.608 260.13L698.445 210.629L736.651 203.157Z" fill="url(#paint0_linear_46_133)"/>
<path d="M724.683 415.89L723.377 510.477L634.054 537.941L627.175 439.975L724.683 415.89Z" fill="url(#paint1_linear_46_133)"/>
<path d="M463.686 415.177C463.304 415.536 462.944 415.918 462.609 416.321C462.959 415.944 463.323 415.567 463.686 415.177ZM463.834 415.015C469.475 409.59 478.387 408.54 483.534 414.585C488.353 420.252 474.541 424.856 464.188 427.791C470.179 427.213 476.179 426.629 482.188 426.041C484.356 425.841 486.86 425.741 488.341 427.334C491.114 430.295 487.141 435.074 483.158 435.788C479.175 436.502 474.717 435.532 471.284 437.688C479.348 436.652 489.7 441.471 489.633 445.631C489.485 454.331 479.752 450.518 470.301 448.175C467.991 447.565 465.637 447.138 463.26 446.896C452.369 446.048 441.33 444.217 430.614 446.344C420.302 448.391 414.769 455.674 412.574 465.798C412.48 466.175 412.413 466.578 412.332 466.969C411.04 473.848 416.613 486.462 401.468 485.803C394.629 485.52 400.714 462.23 401.225 460.09C398.546 463.024 397.052 470.321 393.242 469.002C381.907 465.084 393.781 444.621 400.485 434.702C407.314 424.688 417.737 417.687 429.591 415.155C439.001 413.203 450.633 413.136 455.371 404.789C456.96 401.975 457.687 398.3 460.541 396.789C464.728 394.581 469.763 399.549 469.52 404.274C469.299 408.419 466.648 411.906 463.834 415.015V415.015Z" fill="#171717"/>
<path d="M485.711 266.054L486.532 325.558L428.643 339.505L424.605 275.141L485.711 266.054Z" fill="url(#paint2_linear_46_133)"/>
<path d="M446.28 698.453L476.18 696.891C478.256 696.786 480.289 697.51 481.832 698.904C483.374 700.298 484.3 702.247 484.406 704.323L485.106 717.61C485.211 719.687 484.488 721.721 483.095 723.266C481.701 724.811 479.752 725.739 477.675 725.849L447.788 727.4C445.712 727.508 443.678 726.787 442.133 725.396C440.588 724.005 439.659 722.058 439.549 719.982L438.862 706.695C438.754 704.618 439.474 702.584 440.865 701.038C442.256 699.493 444.204 698.563 446.28 698.453Z" fill="url(#paint3_linear_46_133)"/>
<path d="M462.745 531.842C466.756 534.023 469.759 538.775 468.439 543.137C468.004 544.376 467.316 545.512 466.419 546.471C465.523 547.431 464.436 548.193 463.229 548.711C462.677 548.999 462.1 549.238 461.506 549.424C458.423 550.407 455.112 550.367 451.867 550.324C442.003 550.019 432.13 550.452 422.331 551.617C415.976 552.451 402.931 554.053 398.448 547.591C397.483 546.155 396.951 544.473 396.914 542.745C396.725 539.096 399.162 535.69 402.258 533.765C405.354 531.84 409.058 531.127 412.678 530.602C413.015 530.548 413.351 530.502 413.688 530.467C425.117 528.919 436.695 528.946 448.219 529.267C448.619 529.267 449.027 529.28 449.43 529.294C453.994 529.432 458.746 529.661 462.745 531.842Z" fill="url(#paint4_linear_46_133)"/>
<path d="M452.634 764.163C455.2 760.209 458.606 756.871 462.61 754.385C466.615 751.9 471.118 750.329 475.8 749.785V749.745L501.123 749.139L502.323 766.613L503.323 766.546H524.231L525.806 748.546L550.523 747.967V748.142C555.598 750.323 560.823 752.584 564.645 756.583C568.467 760.582 570.555 766.76 568.185 771.755C566.126 776.103 561.36 778.432 556.785 779.94C544.763 783.898 531.906 784.356 519.251 784.773C501.683 785.352 484.074 785.944 466.551 784.625C463.379 784.517 460.24 783.944 457.235 782.925C455.735 782.401 454.354 781.584 453.172 780.52C451.991 779.457 451.034 778.169 450.356 776.732C448.663 772.644 450.252 767.906 452.634 764.163Z" fill="url(#paint5_linear_46_133)"/>
<path d="M404.102 699.422L400.925 731.422L400.683 731.396L389.603 732.661L374.391 701.926L403.86 699.395L404.102 699.422Z" fill="url(#paint6_linear_46_133)"/>
<path d="M357.307 755.157C356.268 744.899 354.691 734.703 352.582 724.611L352.882 724.557C355.951 725.028 358.805 727.99 359.909 730.897C361.013 733.804 361.659 736.997 363.638 739.397C364.349 740.26 365.264 740.933 366.301 741.352C367.338 741.771 368.464 741.924 369.575 741.797H370.787C372.185 746.871 372.601 752.166 372.012 757.397C371.258 762.597 368.875 767.697 364.769 770.968C360.515 774.36 354.861 775.468 349.422 775.653C343.216 775.868 336.741 774.926 331.638 771.425C326.535 767.924 323.17 761.355 324.813 755.378L324.126 755.068C326.132 754.961 327.007 752.524 327.384 750.545C328.528 744.607 329.672 738.661 330.817 732.707C330.577 739.84 331.621 746.958 333.9 753.722C334.587 755.755 335.879 758.111 338.019 758.071C340.752 758.017 341.6 754.395 341.627 751.663C341.708 744.554 341.785 737.437 341.856 730.311C342.544 738.91 344.736 747.321 348.332 755.163C348.985 756.928 350.112 758.48 351.59 759.646C353.151 760.696 355.534 760.723 356.678 759.246C357.536 758.118 357.455 756.557 357.307 755.157Z" fill="url(#paint7_linear_46_133)"/>
<path d="M319.787 713.06C319.061 717.716 318.643 722.416 318.535 727.128L318.253 727.115C313.675 727.478 309.569 725.515 306.244 722.443V722.43L306.544 722.12C310.298 718.233 314.804 715.15 319.787 713.06V713.06Z" fill="#171717"/>
<path d="M519.462 570.749L416.528 574.276L404.883 691.52L404.493 691.48L362.773 694.347C367.808 665.012 372.735 636.539 377.783 607.205L377.77 607.016C373.703 607.392 369.676 608.121 365.735 609.197C354.493 612.347 343.804 619.604 339.456 630.427C336.023 638.99 336.898 648.627 338.514 657.702C342.272 678.708 349.651 698.901 360.323 717.381L359.461 717.881C353.876 713.618 347.254 710.923 340.279 710.076C333.305 709.229 326.23 710.26 319.787 713.062C314.802 715.152 310.295 718.234 306.54 722.122L306.24 722.432C305.074 721.352 304.01 720.167 303.063 718.891C299.347 713.937 297.476 707.891 295.807 701.928C295.47 700.717 295.147 699.519 294.824 698.307C290.058 680.407 286.824 661.958 287.783 643.475C288.793 623.752 294.891 603.868 307.492 588.669C318.41 575.516 333.636 566.469 349.63 560.469C365.624 554.469 381.387 551.275 398.188 548.111L398.444 547.599C402.927 554.061 415.972 552.459 422.327 551.625C432.126 550.459 441.999 550.027 451.863 550.332C455.108 550.373 458.419 550.413 461.502 549.432C462.096 549.245 462.673 549.007 463.225 548.719L463.279 548.826C478.619 550.155 493.636 553.994 507.732 560.189C512.771 562.335 518.223 565.431 519.462 570.749Z" fill="#171717"/>
<path d="M310.579 151.758L312.518 186.585L277.583 192.105L277.367 157.385L310.579 151.758Z" fill="url(#paint8_linear_46_133)"/>
<path d="M222.293 337.485L223.302 410.788L151.992 427.98L147.011 348.686L222.293 337.485Z" fill="url(#paint9_linear_46_133)"/>
<path d="M448.219 529.056C444.342 525.501 446.576 518.784 450.454 515.243C454.332 511.702 459.541 509.629 462.812 505.523C466.541 500.852 467.093 494.498 467.512 488.547C468.442 475.085 469.371 461.627 470.299 448.173C470.326 447.756 470.353 447.325 470.38 446.908" stroke="#171717" stroke-width="4.039" stroke-linecap="round" stroke-linejoin="round"/>
<path d="M465.935 454.5L442.147 455.146C444.14 465.673 446.14 476.207 448.147 486.746C446.047 486.356 443.961 485.979 441.861 485.588" stroke="#171717" stroke-width="4.039" stroke-linecap="round" stroke-linejoin="round"/>
<path d="M458.921 463.467C457.958 462.659 456.741 462.215 455.484 462.213C454.227 462.21 453.009 462.649 452.042 463.453" stroke="#171717" stroke-width="4.039" stroke-linecap="round" stroke-linejoin="round"/>
<path d="M432.374 464.019C431.476 463.612 430.5 463.405 429.514 463.414C428.528 463.424 427.555 463.648 426.665 464.072" stroke="#171717" stroke-width="4.039" stroke-linecap="round" stroke-linejoin="round"/>
<path d="M436.035 502.8C434.633 503.609 433.002 503.932 431.398 503.717C429.793 503.503 428.305 502.764 427.164 501.615" stroke="#171717" stroke-width="4.039" stroke-linecap="round" stroke-linejoin="round"/>
<path d="M411.978 455.82C412.192 459.132 412.39 462.458 412.57 465.796C413.742 487.096 414.118 508.862 413.634 530.052" stroke="#171717" stroke-width="4.039" stroke-linecap="round" stroke-linejoin="round"/>
<path d="M463.686 415.177C463.304 415.535 462.944 415.917 462.609 416.321C462.959 415.944 463.323 415.567 463.686 415.177Z" stroke="#171717" stroke-width="4.039" stroke-linecap="round" stroke-linejoin="round"/>
<path d="M463.687 415.177C463.729 415.117 463.779 415.063 463.835 415.015" stroke="#171717" stroke-width="4.039" stroke-linecap="round" stroke-linejoin="round"/>
<path d="M463.835 415.015C466.649 411.906 469.301 408.415 469.516 404.272C469.759 399.547 464.724 394.579 460.537 396.787C457.683 398.295 456.956 401.97 455.367 404.787C450.629 413.134 438.997 413.201 429.587 415.153C417.733 417.685 407.309 424.685 400.481 434.7C393.781 444.622 381.903 465.085 393.238 469C397.048 470.319 398.538 463.022 401.221 460.088C400.71 462.228 394.621 485.518 401.464 485.801C416.609 486.46 411.036 473.846 412.328 466.967C412.409 466.576 412.476 466.173 412.57 465.796C414.765 455.672 420.298 448.389 430.61 446.342C441.326 444.215 452.365 446.042 463.256 446.894C465.633 447.135 467.987 447.563 470.297 448.173C479.748 450.516 489.481 454.326 489.629 445.629C489.696 441.469 479.344 436.65 471.28 437.686C474.713 435.532 479.169 436.501 483.154 435.786C487.139 435.071 491.11 430.293 488.337 427.332C486.856 425.743 484.352 425.832 482.184 426.039C476.18 426.617 470.18 427.201 464.184 427.789C474.537 424.854 488.349 420.25 483.53 414.583C478.387 408.538 469.475 409.583 463.83 415.013" stroke="#171717" stroke-width="4.039" stroke-linecap="round" stroke-linejoin="round"/>
<path d="M398.448 547.593C402.931 554.055 415.976 552.453 422.331 551.619C432.13 550.454 442.003 550.022 451.867 550.326C455.112 550.367 458.423 550.407 461.506 549.426C462.1 549.24 462.677 549.001 463.229 548.713C464.436 548.196 465.523 547.433 466.419 546.473C467.316 545.514 468.004 544.378 468.439 543.139C469.759 538.777 466.756 534.025 462.745 531.844C458.734 529.663 453.994 529.434 449.43 529.3C449.03 529.286 448.623 529.273 448.219 529.273C436.695 528.95 425.119 528.923 413.688 530.473C413.351 530.513 413.015 530.554 412.678 530.608C409.057 531.133 405.368 531.846 402.258 533.771C399.148 535.696 396.725 539.102 396.914 542.751C396.952 544.478 397.484 546.159 398.448 547.593V547.593Z" stroke="#171717" stroke-width="4.039" stroke-linecap="round" stroke-linejoin="round"/>
<path d="M398.192 548.104C381.392 551.268 365.64 554.446 349.634 560.463C333.628 566.48 318.414 575.514 307.496 588.663C294.896 603.863 288.796 623.746 287.787 643.469C286.831 661.952 290.062 680.396 294.828 698.301C295.151 699.513 295.474 700.711 295.811 701.922C297.48 707.886 299.351 713.931 303.067 718.885C304.014 720.16 305.078 721.346 306.244 722.426V722.439C309.569 725.508 313.675 727.474 318.253 727.111" stroke="#171717" stroke-width="4.039" stroke-linecap="round" stroke-linejoin="round"/>
<path d="M306.54 722.12C310.295 718.233 314.803 715.15 319.787 713.06C329.296 709.047 339.985 708.846 349.639 712.497C359.292 716.149 367.172 723.374 371.645 732.675C372.856 735.219 373.677 738.544 371.766 740.604C371.186 741.231 370.414 741.648 369.571 741.789C368.46 741.917 367.334 741.764 366.297 741.344C365.26 740.925 364.345 740.253 363.634 739.389C361.655 736.989 361.023 733.802 359.905 730.889C358.787 727.976 355.947 725.02 352.878 724.549" stroke="#171717" stroke-width="4.039" stroke-linecap="round" stroke-linejoin="round"/>
<path d="M360.592 717.852C360.498 717.691 360.417 717.543 360.323 717.381C349.651 698.901 342.272 678.707 338.514 657.7C336.898 648.627 336.023 638.988 339.456 630.425C343.804 619.602 354.493 612.345 365.735 609.195C369.676 608.12 373.703 607.39 377.77 607.014C385.337 606.456 392.931 606.375 400.508 606.772" stroke="#171717" stroke-width="4.039" stroke-linecap="round" stroke-linejoin="round"/>
<path d="M377.783 607.205C372.735 636.539 367.808 665.012 362.773 694.347C362.773 694.374 362.759 694.387 362.759 694.414" stroke="#171717" stroke-width="4.039" stroke-linecap="round" stroke-linejoin="round"/>
<path d="M319.787 713.046V713.06C319.061 717.717 318.643 722.416 318.535 727.128C318.356 734.98 319.024 742.83 320.528 750.539C320.928 752.599 322.009 755.157 324.109 755.062H324.122C326.128 754.955 327.003 752.518 327.38 750.539C328.524 744.602 329.669 738.656 330.813 732.701C330.574 739.834 331.618 746.952 333.896 753.716C334.583 755.749 335.875 758.105 338.015 758.065C340.748 758.011 341.596 754.389 341.623 751.657C341.705 744.548 341.781 737.431 341.852 730.305C342.541 738.904 344.733 747.315 348.328 755.157C348.981 756.923 350.108 758.474 351.586 759.64C353.147 760.69 355.53 760.717 356.674 759.24C357.536 758.122 357.455 756.561 357.307 755.161C356.269 744.903 354.691 734.707 352.582 724.615C352.259 723.039 351.922 721.505 351.582 719.997" stroke="#171717" stroke-width="4.039" stroke-linecap="round" stroke-linejoin="round"/>
<path d="M294.249 698.453L239.134 702.249" stroke="#171717" stroke-width="4.039" stroke-linecap="round" stroke-linejoin="round"/>
<path d="M239.134 729.484V702.249" stroke="#171717" stroke-width="4.039" stroke-linecap="round" stroke-linejoin="round"/>
<path d="M317.054 836.55L239.134 729.484" stroke="#171717" stroke-width="4.039" stroke-linecap="round" stroke-linejoin="round"/>
<path d="M706.051 807.418L317.458 836.631" stroke="#171717" stroke-width="4.039" stroke-linecap="round" stroke-linejoin="round"/>
<path d="M707.316 783.334L706.684 807.256" stroke="#171717" stroke-width="4.039" stroke-linecap="round" stroke-linejoin="round"/>
<path d="M622.422 711.754L707.316 783.334" stroke="#171717" stroke-width="4.039" stroke-linecap="round" stroke-linejoin="round"/>
<path d="M349.364 695.276H349.459L362.773 694.346L404.493 691.479" stroke="#171717" stroke-width="4.039" stroke-linecap="round" stroke-linejoin="round"/>
<path d="M416.528 574.276L404.883 691.52L404.102 699.422L400.925 731.422L400.05 740.254" stroke="#171717" stroke-width="4.039" stroke-linecap="round" stroke-linejoin="round"/>
<path d="M619.891 567.302L519.462 570.749L416.528 574.276" stroke="#171717" stroke-width="4.039" stroke-linecap="round" stroke-linejoin="round"/>
<path d="M400.05 740.254L407.966 751.347" stroke="#171717" stroke-width="4.039" stroke-linecap="round" stroke-linejoin="round"/>
<path d="M621.467 746.285L550.52 747.968L525.803 748.547L501.126 749.139L475.803 749.745L407.966 751.347" stroke="#171717" stroke-width="4.039" stroke-linecap="round" stroke-linejoin="round"/>
<path d="M619.891 567.302L626.219 572.687" stroke="#171717" stroke-width="4.039" stroke-linecap="round" stroke-linejoin="round"/>
<path d="M621.467 746.285L622.409 711.754L626.219 573.091" stroke="#171717" stroke-width="4.039" stroke-linecap="round" stroke-linejoin="round"/>
<path d="M501.099 748.816L501.126 749.139L502.324 766.613L502.365 767.179" stroke="#171717" stroke-width="4.039" stroke-linecap="round" stroke-linejoin="round"/>
<path d="M524.228 766.546H503.32" stroke="#171717" stroke-width="4.039" stroke-linecap="round" stroke-linejoin="round"/>
<path d="M525.802 748.493V748.547L524.228 766.546" stroke="#171717" stroke-width="4.039" stroke-linecap="round" stroke-linejoin="round"/>
<path d="M475.8 749.784C471.118 750.328 466.614 751.899 462.609 754.385C458.604 756.87 455.197 760.209 452.631 764.163C450.249 767.906 448.66 772.644 450.343 776.737C451.021 778.174 451.978 779.462 453.159 780.525C454.34 781.588 455.721 782.406 457.222 782.93C460.227 783.949 463.366 784.522 466.538 784.63C484.066 785.949 501.675 785.357 519.238 784.778C531.893 784.361 544.75 783.903 556.772 779.945C561.349 778.437 566.115 776.108 568.172 771.76C570.542 766.76 568.455 760.573 564.632 756.588C560.809 752.603 555.585 750.327 550.51 748.146" stroke="#171717" stroke-width="4.039" stroke-linecap="round" stroke-linejoin="round"/>
<path d="M403.86 699.395L374.391 701.926" stroke="#171717" stroke-width="4.039" stroke-linecap="round" stroke-linejoin="round"/>
<path d="M400.683 731.396L389.603 732.661" stroke="#171717" stroke-width="4.039" stroke-linecap="round" stroke-linejoin="round"/>
<path d="M374.391 701.926L389.603 732.661" stroke="#171717" stroke-width="4.039" stroke-linecap="round" stroke-linejoin="round"/>
<path d="M477.675 725.849L447.788 727.4C445.712 727.508 443.678 726.787 442.133 725.396C440.588 724.005 439.659 722.058 439.549 719.982L438.862 706.695C438.754 704.619 439.475 702.585 440.866 701.04C442.257 699.495 444.204 698.566 446.28 698.456L476.18 696.894C478.256 696.789 480.289 697.513 481.832 698.907C483.374 700.301 484.3 702.25 484.406 704.326L485.106 717.613C485.21 719.69 484.486 721.723 483.093 723.267C481.7 724.811 479.752 725.739 477.675 725.849V725.849Z" stroke="#171717" stroke-width="4.039" stroke-linecap="round" stroke-linejoin="round"/>
<path d="M463.283 548.818C478.623 550.148 493.64 553.986 507.736 560.181C512.771 562.335 518.223 565.431 519.462 570.749V570.762" stroke="#171717" stroke-width="4.039" stroke-linecap="round" stroke-linejoin="round"/>
<path d="M324.809 755.372C323.166 761.349 326.519 767.906 331.634 771.419C336.749 774.932 343.212 775.862 349.418 775.647C354.857 775.458 360.511 774.354 364.765 770.962C368.871 767.69 371.254 762.588 372.008 757.391C372.597 752.16 372.181 746.865 370.783 741.791" stroke="#171717" stroke-width="4.039" stroke-linecap="round" stroke-linejoin="round"/>
<path d="M424.605 275.141L428.643 339.505" stroke="#171717" stroke-width="4.039" stroke-linecap="round" stroke-linejoin="round"/>
<path d="M486.533 325.558L428.644 339.505" stroke="#171717" stroke-width="4.039" stroke-linecap="round" stroke-linejoin="round"/>
<path d="M485.712 266.054L486.533 325.558" stroke="#171717" stroke-width="4.039" stroke-linecap="round" stroke-linejoin="round"/>
<path d="M424.605 275.141L485.711 266.054" stroke="#171717" stroke-width="4.039" stroke-linecap="round" stroke-linejoin="round"/>
<path d="M428.644 339.505L400.602 306.993" stroke="#171717" stroke-width="4.039" stroke-linecap="round" stroke-linejoin="round"/>
<path d="M394.544 252.941L400.602 306.993" stroke="#171717" stroke-width="4.039" stroke-linecap="round" stroke-linejoin="round"/>
<path d="M485.712 266.054L450.265 246.668" stroke="#171717" stroke-width="4.039" stroke-linecap="round" stroke-linejoin="round"/>
<path d="M394.544 252.941L424.606 275.141" stroke="#171717" stroke-width="4.039" stroke-linecap="round" stroke-linejoin="round"/>
<path d="M450.265 246.668L394.544 252.941" stroke="#171717" stroke-width="4.039" stroke-linecap="round" stroke-linejoin="round"/>
<path d="M698.445 210.629L701.608 260.13" stroke="#171717" stroke-width="4.039" stroke-linecap="round" stroke-linejoin="round"/>
<path d="M737.296 248.499L701.607 260.13" stroke="#171717" stroke-width="4.039" stroke-linecap="round" stroke-linejoin="round"/>
<path d="M736.65 203.157L737.296 248.499" stroke="#171717" stroke-width="4.039" stroke-linecap="round" stroke-linejoin="round"/>
<path d="M698.445 210.629L736.651 203.157" stroke="#171717" stroke-width="4.039" stroke-linecap="round" stroke-linejoin="round"/>
<path d="M701.608 260.13L672.879 237.635" stroke="#171717" stroke-width="4.039" stroke-linecap="round" stroke-linejoin="round"/>
<path d="M670.146 194.218L672.879 237.635" stroke="#171717" stroke-width="4.039" stroke-linecap="round" stroke-linejoin="round"/>
<path d="M736.651 203.157L710.843 189.291" stroke="#171717" stroke-width="4.039" stroke-linecap="round" stroke-linejoin="round"/>
<path d="M670.146 194.218L698.445 210.629" stroke="#171717" stroke-width="4.039" stroke-linecap="round" stroke-linejoin="round"/>
<path d="M710.843 189.291L670.146 194.218" stroke="#171717" stroke-width="4.039" stroke-linecap="round" stroke-linejoin="round"/>
<path d="M277.367 157.385L277.583 192.105" stroke="#171717" stroke-width="4.039" stroke-linecap="round" stroke-linejoin="round"/>
<path d="M312.518 186.585L277.583 192.105" stroke="#171717" stroke-width="4.039" stroke-linecap="round" stroke-linejoin="round"/>
<path d="M310.579 151.758L312.518 186.585" stroke="#171717" stroke-width="4.039" stroke-linecap="round" stroke-linejoin="round"/>
<path d="M277.367 157.385L310.579 151.758" stroke="#171717" stroke-width="4.039" stroke-linecap="round" stroke-linejoin="round"/>
<path d="M277.583 192.105L262.747 176.812" stroke="#171717" stroke-width="4.039" stroke-linecap="round" stroke-linejoin="round"/>
<path d="M260.229 142.307L262.746 176.812" stroke="#171717" stroke-width="4.039" stroke-linecap="round" stroke-linejoin="round"/>
<path d="M310.578 150.412L289.563 139.117" stroke="#171717" stroke-width="4.039" stroke-linecap="round" stroke-linejoin="round"/>
<path d="M260.229 142.307L277.366 157.385" stroke="#171717" stroke-width="4.039" stroke-linecap="round" stroke-linejoin="round"/>
<path d="M289.563 139.117L260.229 142.307" stroke="#171717" stroke-width="4.039" stroke-linecap="round" stroke-linejoin="round"/>
<path d="M627.175 439.975L634.054 537.941" stroke="#171717" stroke-width="4.039" stroke-linecap="round" stroke-linejoin="round"/>
<path d="M723.377 510.477L634.054 537.941" stroke="#171717" stroke-width="4.039" stroke-linecap="round" stroke-linejoin="round"/>
<path d="M724.683 415.89L723.377 510.477" stroke="#171717" stroke-width="4.039" stroke-linecap="round" stroke-linejoin="round"/>
<path d="M627.175 439.975L724.683 415.89" stroke="#171717" stroke-width="4.039" stroke-linecap="round" stroke-linejoin="round"/>
<path d="M634.054 537.941L576.892 485.087" stroke="#171717" stroke-width="4.039" stroke-linecap="round" stroke-linejoin="round"/>
<path d="M570.941 398.968L576.891 485.087" stroke="#171717" stroke-width="4.039" stroke-linecap="round" stroke-linejoin="round"/>
<path d="M724.683 415.89L660.615 380.202" stroke="#171717" stroke-width="4.039" stroke-linecap="round" stroke-linejoin="round"/>
<path d="M570.941 398.968L627.174 439.975" stroke="#171717" stroke-width="4.039" stroke-linecap="round" stroke-linejoin="round"/>
<path d="M660.614 380.202L570.941 398.968" stroke="#171717" stroke-width="4.039" stroke-linecap="round" stroke-linejoin="round"/>
<path d="M147.011 348.686L151.992 427.98" stroke="#171717" stroke-width="4.039" stroke-linecap="round" stroke-linejoin="round"/>
<path d="M223.302 410.788L151.992 427.98" stroke="#171717" stroke-width="4.039" stroke-linecap="round" stroke-linejoin="round"/>
<path d="M222.293 337.485L223.302 410.788" stroke="#171717" stroke-width="4.039" stroke-linecap="round" stroke-linejoin="round"/>
<path d="M147.011 348.686L222.293 337.485" stroke="#171717" stroke-width="4.039" stroke-linecap="round" stroke-linejoin="round"/>
<path d="M151.992 427.98L128.217 389.275" stroke="#171717" stroke-width="4.039" stroke-linecap="round" stroke-linejoin="round"/>
<path d="M118.08 318.651L128.217 389.275" stroke="#171717" stroke-width="4.039" stroke-linecap="round" stroke-linejoin="round"/>
<path d="M222.293 337.485L189.404 310.911" stroke="#171717" stroke-width="4.039" stroke-linecap="round" stroke-linejoin="round"/>
<path d="M118.08 318.651L147.011 348.686" stroke="#171717" stroke-width="4.039" stroke-linecap="round" stroke-linejoin="round"/>
<path d="M189.404 310.911L118.08 318.651" stroke="#171717" stroke-width="4.039" stroke-linecap="round" stroke-linejoin="round"/>
<path d="M262.394 761.731C134.685 692.746 56.5995 547.352 64.6795 403.3C66.0265 391.184 67.3725 379.068 68.7185 365.605C71.4115 349.45 75.4495 334.642 79.4885 318.487C90.2585 282.138 105.068 251.175 123.915 218.865C131.993 206.749 140.07 197.325 148.147 185.209C160.264 171.747 171.034 158.284 184.496 146.168C246.423 86.933 323.159 51.931 406.626 42.507C490.093 33.083 570.867 50.585 643.564 92.318C701.725 126.306 749.96 174.946 783.461 233.389C816.962 291.832 834.557 358.036 834.492 425.4" stroke="#171717" stroke-width="4.039" stroke-linecap="round" stroke-linejoin="round"/>
<path d="M834.493 425.4C833.384 496.2 817.229 563.509 778.188 626.782C776.842 628.128 744.532 673.901 743.188 675.247C718.956 700.825 693.377 726.404 664.361 744.841" stroke="#171717" stroke-width="4.039" stroke-linecap="round" stroke-linejoin="round"/>
<path d="M479.877 920.023C716.575 920.023 908.457 728.141 908.457 491.443C908.457 254.745 716.575 62.8633 479.877 62.8633C243.179 62.8633 51.2969 254.745 51.2969 491.443C51.2969 728.141 243.179 920.023 479.877 920.023Z" stroke="#171717" stroke-width="4.039" stroke-linecap="round" stroke-linejoin="round" stroke-dasharray="13.46 13.46"/>
<path d="M485.261 710.168C490.646 708.901 494.136 709.205 496.438 713.442C498.74 717.679 498.579 722.77 498.359 727.586C497.477 746.908 496.595 766.231 495.711 785.554C495.517 789.809 495.211 794.377 492.552 797.704C489.607 801.389 484.535 802.574 479.827 802.866C475.119 803.158 470.262 802.817 465.818 804.397C458.605 806.962 453.918 814.197 452.081 821.63C450.244 829.063 450.721 836.836 450.72 844.491C450.719 852.146 450.142 860.091 446.463 866.807C441.318 876.198 430.27 881.756 419.584 881.076C408.898 880.396 398.944 873.86 393.35 864.729C387.756 855.598 386.395 844.162 388.86 833.742C389.707 830.161 390.986 826.649 391.224 822.977C391.462 819.305 390.44 815.289 387.524 813.047C384.324 810.59 379.87 810.896 375.859 811.318L338.259 815.276C335.986 815.516 333.583 815.735 331.506 814.776C329.429 813.817 327.921 811.234 328.953 809.194C329.919 807.287 332.396 806.846 334.522 806.633L377.59 802.314C380.29 802.043 383.083 801.745 385.447 800.414C387.811 799.083 389.647 796.414 389.147 793.744C388.521 790.4 384.634 788.633 381.234 788.738C377.834 788.843 374.602 790.226 371.234 790.675C368.305 791.065 365.325 790.741 362.548 789.731C359.771 788.721 357.279 787.056 355.284 784.876C353.289 782.696 351.85 780.066 351.089 777.211C350.329 774.355 350.27 771.358 350.916 768.475" stroke="#171717" stroke-width="4.039" stroke-linecap="round" stroke-linejoin="round"/>
<path d="M454.145 529.573C454.575 536.343 454.452 543.136 453.779 549.885" stroke="#171717" stroke-width="4.039" stroke-linecap="round" stroke-linejoin="round"/>
<path d="M442.383 529.09L440.866 550.315L441.428 549.769" stroke="#171717" stroke-width="4.039" stroke-linecap="round" stroke-linejoin="round"/>
<path d="M429.233 529.338C428.87 536.46 428.84 543.589 429.144 550.725" stroke="#171717" stroke-width="4.039" stroke-linecap="round" stroke-linejoin="round"/>
<path d="M416.5 529.931C416.003 537.21 416.095 544.517 416.775 551.782" stroke="#171717" stroke-width="4.039" stroke-linecap="round" stroke-linejoin="round"/>
<path d="M406.4 531.949C406.341 538.727 406.515 545.502 406.922 552.273" stroke="#171717" stroke-width="4.039" stroke-linecap="round" stroke-linejoin="round"/>
<path d="M402.587 577.207C400.37 574.928 398.454 572.374 396.887 569.607" stroke="url(#paint10_linear_46_133)" stroke-width="4.039" stroke-linecap="round" stroke-linejoin="round"/>
<path d="M403.769 568.887C401.101 571.988 398.242 574.921 395.21 577.669" stroke="url(#paint11_linear_46_133)" stroke-width="4.039" stroke-linecap="round" stroke-linejoin="round"/>
<path d="M401.937 639.4L394.537 631.115" stroke="url(#paint12_linear_46_133)" stroke-width="4.039" stroke-linecap="round" stroke-linejoin="round"/>
<path d="M402.206 630.082L394.426 640.889L394.747 640.402" stroke="url(#paint13_linear_46_133)" stroke-width="4.039" stroke-linecap="round" stroke-linejoin="round"/>
<path d="M350.484 599.627C348.424 597.884 346.542 595.941 344.865 593.827" stroke="url(#paint14_linear_46_133)" stroke-width="4.039" stroke-linecap="round" stroke-linejoin="round"/>
<path d="M350.836 592.443L342.994 602.182" stroke="url(#paint15_linear_46_133)" stroke-width="4.039" stroke-linecap="round" stroke-linejoin="round"/>
<path d="M307.925 637.162C305.942 634.709 304.235 632.046 302.836 629.22" stroke="url(#paint16_linear_46_133)" stroke-width="4.039" stroke-linecap="round" stroke-linejoin="round"/>
<path d="M308.949 630.135C306.082 632.13 303.465 634.464 301.156 637.086" stroke="url(#paint17_linear_46_133)" stroke-width="4.039" stroke-linecap="round" stroke-linejoin="round"/>
<path d="M335.772 683.713L328.516 678.113" stroke="url(#paint18_linear_46_133)" stroke-width="4.039" stroke-linecap="round" stroke-linejoin="round"/>
<path d="M334.155 676.979L328.56 686.33L329.2 685.317" stroke="url(#paint19_linear_46_133)" stroke-width="4.039" stroke-linecap="round" stroke-linejoin="round"/>
<path d="M479.771 565.358L472.514 558.823" stroke="url(#paint20_linear_46_133)" stroke-width="4.039" stroke-linecap="round" stroke-linejoin="round"/>
<path d="M478.848 558.676C476.504 560.428 474.424 562.509 472.671 564.853" stroke="url(#paint21_linear_46_133)" stroke-width="4.039" stroke-linecap="round" stroke-linejoin="round"/>
<path d="M308.674 676.809C306.744 674.465 304.584 672.321 302.226 670.409" stroke="url(#paint22_linear_46_133)" stroke-width="4.039" stroke-linecap="round" stroke-linejoin="round"/>
<path d="M308.074 669.888L302.374 678.204" stroke="url(#paint23_linear_46_133)" stroke-width="4.039" stroke-linecap="round" stroke-linejoin="round"/>
<path d="M371.423 564.658L365.323 558.636" stroke="url(#paint24_linear_46_133)" stroke-width="4.039" stroke-linecap="round" stroke-linejoin="round"/>
<path d="M371.336 557.86L365.01 565.771" stroke="url(#paint25_linear_46_133)" stroke-width="4.039" stroke-linecap="round" stroke-linejoin="round"/>
<path d="M381.531 422.164L373.62 409.233" stroke="#171717" stroke-width="4.039" stroke-linecap="round" stroke-linejoin="round"/>
<path d="M383.599 411.17C379.073 414.331 375.045 418.152 371.648 422.505" stroke="#171717" stroke-width="4.039" stroke-linecap="round" stroke-linejoin="round"/>
<path d="M527.075 445.829L517.575 436.329" stroke="#171717" stroke-width="4.039" stroke-linecap="round" stroke-linejoin="round"/>
<path d="M518.021 447.207L526.508 435.828" stroke="#171717" stroke-width="4.039" stroke-linecap="round" stroke-linejoin="round"/>
<path d="M462.045 294.588C463.235 295.632 464.427 296.654 465.621 297.655" stroke="#171717" stroke-width="4.039" stroke-linecap="round" stroke-linejoin="round"/>
<path d="M472.786 303.442C481.292 310.091 490.073 316.321 499.516 323.876C531.738 344.944 559.396 366.012 588.44 387.084" stroke="#171717" stroke-width="4.039" stroke-linecap="round" stroke-linejoin="round" stroke-dasharray="9.21 9.21"/>
<path d="M592.171 389.786C593.442 390.704 594.716 391.622 595.994 392.54" stroke="#171717" stroke-width="4.039" stroke-linecap="round" stroke-linejoin="round"/>
<path d="M293.3 171.2C294.594 172.092 295.885 172.987 297.173 173.883" stroke="#171717" stroke-width="4.039" stroke-linecap="round" stroke-linejoin="round"/>
<path d="M305.075 179.433C335.844 201.278 364.885 224.233 394.254 245.573" stroke="#171717" stroke-width="4.039" stroke-linecap="round" stroke-linejoin="round" stroke-dasharray="9.65 9.65"/>
<path d="M398.162 248.4C399.437 249.32 400.713 250.235 401.988 251.146" stroke="#171717" stroke-width="4.039" stroke-linecap="round" stroke-linejoin="round"/>
<path d="M487.123 278.572C488.64 278.161 490.156 277.751 491.672 277.343" stroke="#171717" stroke-width="4.039" stroke-linecap="round" stroke-linejoin="round"/>
<path d="M500.62 274.951C559.28 259.379 617.687 245.897 675.372 229.384" stroke="#171717" stroke-width="4.039" stroke-linecap="round" stroke-linejoin="round" stroke-dasharray="9.26 9.26"/>
<path d="M679.823 228.1C681.333 227.663 682.841 227.224 684.347 226.784" stroke="#171717" stroke-width="4.039" stroke-linecap="round" stroke-linejoin="round"/>
<path d="M222.666 348.742L227.211 347.501" stroke="#171717" stroke-width="4.039" stroke-linecap="round" stroke-linejoin="round"/>
<path d="M236.708 344.915C281.364 332.774 326.081 320.856 370.859 309.162C381.629 306.345 392.402 303.54 403.177 300.745" stroke="#171717" stroke-width="4.039" stroke-linecap="round" stroke-linejoin="round" stroke-dasharray="9.84 9.84"/>
<path d="M407.94 299.511L412.501 298.33" stroke="#171717" stroke-width="4.039" stroke-linecap="round" stroke-linejoin="round"/>
<path d="M402.88 367.417L409.923 375.694L420.416 374.52L415.088 383.849L419.594 393.81L409.258 391.299L401.549 398.628L400.489 387.748L391.22 382.317L400.901 378.103L402.88 367.417Z" fill="url(#paint26_linear_46_133)" stroke="url(#paint27_linear_46_133)" stroke-width="4.039" stroke-linecap="round" stroke-linejoin="round"/>
<path d="M506.219 458.396L512.194 465.417L521.095 464.422L516.575 472.336L520.397 480.785L511.629 478.655L505.09 484.872L504.191 475.643L496.327 471.036L504.54 467.461L506.219 458.396Z" fill="url(#paint28_linear_46_133)"/>
<path d="M230.021 451.651L222.111 438.72" stroke="#171717" stroke-width="4.039" stroke-linecap="round" stroke-linejoin="round"/>
<path d="M232.09 440.657C227.563 443.819 223.534 447.639 220.138 451.992" stroke="#171717" stroke-width="4.039" stroke-linecap="round" stroke-linejoin="round"/>
<path d="M239.334 281.603L246.377 289.879L256.87 288.706L251.541 298.035L256.047 307.995L245.711 305.485L238.003 312.814L236.943 301.933L227.673 296.503L237.354 292.288L239.334 281.603Z" stroke="url(#paint29_linear_46_133)" stroke-width="4.039" stroke-linecap="round" stroke-linejoin="round"/>
<path d="M757.361 419.257L747.861 409.757" stroke="#171717" stroke-width="4.039" stroke-linecap="round" stroke-linejoin="round"/>
<path d="M748.307 420.635L756.794 409.256" stroke="#171717" stroke-width="4.039" stroke-linecap="round" stroke-linejoin="round"/>
<path d="M771.995 435.539L774.702 442.047L781.415 443.404L776.273 448.108L777.08 455.152L771.195 451.552L764.981 454.548L766.485 447.619L761.838 442.426L768.652 441.745L771.995 435.539Z" fill="url(#paint30_linear_46_133)"/>
<path d="M380.699 180.829L374.105 174.235" stroke="#171717" stroke-width="4.039" stroke-linecap="round" stroke-linejoin="round"/>
<path d="M374.42 181.784L380.309 173.889" stroke="#171717" stroke-width="4.039" stroke-linecap="round" stroke-linejoin="round"/>
<path d="M613.9 153.835L604.4 144.335" stroke="#171717" stroke-width="4.039" stroke-linecap="round" stroke-linejoin="round"/>
<path d="M604.843 155.212L613.331 143.833" stroke="#171717" stroke-width="4.039" stroke-linecap="round" stroke-linejoin="round"/>
<path d="M357.276 129.104L361.668 134.617L368.495 134.076L364.845 140.012L367.557 146.564L360.909 144.719L355.758 149.309L355.299 142.233L349.404 138.518L355.768 135.99L357.276 129.104Z" fill="url(#paint31_linear_46_133)"/>
<g opacity="0.1">
<path d="M465.712 448.053C448.981 445.059 425.684 443.417 415.766 460.766C410.934 469.219 411.72 481.241 411.693 490.666C411.746 502.261 412.515 513.841 413.993 525.341C414.443 529.065 416.839 532.19 420.884 532.232C424.335 532.268 428.133 529.041 427.775 525.341C426.075 507.787 424.987 488.906 427.015 471.341C427.968 463.082 429.091 455.905 437.591 452.206C446.228 448.447 456.256 450.046 465.286 451.189C467.054 451.413 467.475 448.374 465.71 448.059L465.712 448.053Z" fill="#171717"/>
</g>
<g opacity="0.1">
<path d="M234.376 718.418C253.122 747.292 272.657 775.663 291.905 804.205C300.431 816.849 309.011 829.912 325.24 832.605C333.461 833.969 341.723 832.987 349.97 832.389C358.27 831.789 366.57 831.194 374.87 830.557C443.899 825.257 512.933 819.996 581.933 814.326C620.742 811.138 659.542 807.838 698.333 804.426C703.503 803.972 707.942 800.335 707.942 794.817C707.942 789.968 703.533 784.754 698.333 785.208C631.694 791.022 565.028 796.508 498.333 801.666C464.822 804.251 431.302 806.696 397.773 809C381.173 810.116 364.573 811.236 347.973 812.358C341.027 812.829 333.154 814.186 326.317 812.426C320.79 811.003 317.159 806.226 314.025 801.734C292.597 771.005 272.339 739.469 250.804 708.811C247.854 704.611 242.483 702.649 237.785 705.397C233.501 707.903 231.561 714.088 234.371 718.416L234.376 718.418Z" fill="#171717"/>
</g>
<g opacity="0.1">
<path d="M417.285 743.194C425.906 691.264 430.396 638.559 433.047 586.054C433.623 574.654 416.547 574.991 415.516 586.054C410.682 637.654 404.116 689.111 398.316 740.627C397.11 751.346 415.502 753.927 417.284 743.194H417.285Z" fill="#171717"/>
</g>
<g opacity="0.1">
<path d="M447.994 697.645C434.934 699.274 439.365 716.608 442.107 724.751C445.797 735.706 461.368 724.529 451.541 717.499C449.321 715.911 448.548 713.433 448.141 710.799C447.933 709.444 446.963 703.505 448.714 702.981C451.514 702.144 451.149 697.247 447.991 697.641L447.994 697.645Z" fill="#171717"/>
</g>
</g>
</g>
<defs>
<linearGradient id="paint0_linear_46_133" x1="717.871" y1="203.157" x2="717.871" y2="260.13" gradientUnits="userSpaceOnUse">
<stop stop-color="#B1E938"/>
<stop offset="1" stop-color="#61BB00"/>
</linearGradient>
<linearGradient id="paint1_linear_46_133" x1="675.929" y1="415.89" x2="675.929" y2="537.941" gradientUnits="userSpaceOnUse">
<stop stop-color="#B1E938"/>
<stop offset="1" stop-color="#61BB00"/>
</linearGradient>
<linearGradient id="paint2_linear_46_133" x1="455.569" y1="266.054" x2="455.569" y2="339.505" gradientUnits="userSpaceOnUse">
<stop stop-color="#B1E938"/>
<stop offset="1" stop-color="#61BB00"/>
</linearGradient>
<linearGradient id="paint3_linear_46_133" x1="461.984" y1="696.881" x2="461.984" y2="727.41" gradientUnits="userSpaceOnUse">
<stop stop-color="#B1E938"/>
<stop offset="1" stop-color="#61BB00"/>
</linearGradient>
<linearGradient id="paint4_linear_46_133" x1="432.829" y1="529.091" x2="432.829" y2="552.421" gradientUnits="userSpaceOnUse">
<stop stop-color="#B1E938"/>
<stop offset="1" stop-color="#61BB00"/>
</linearGradient>
<linearGradient id="paint5_linear_46_133" x1="509.419" y1="747.967" x2="509.419" y2="785.42" gradientUnits="userSpaceOnUse">
<stop stop-color="#B1E938"/>
<stop offset="1" stop-color="#61BB00"/>
</linearGradient>
<linearGradient id="paint6_linear_46_133" x1="389.246" y1="699.395" x2="389.246" y2="732.661" gradientUnits="userSpaceOnUse">
<stop stop-color="#B1E938"/>
<stop offset="1" stop-color="#61BB00"/>
</linearGradient>
<linearGradient id="paint7_linear_46_133" x1="348.199" y1="724.557" x2="348.199" y2="775.682" gradientUnits="userSpaceOnUse">
<stop stop-color="#B1E938"/>
<stop offset="1" stop-color="#61BB00"/>
</linearGradient>
<linearGradient id="paint8_linear_46_133" x1="294.943" y1="151.758" x2="294.943" y2="192.105" gradientUnits="userSpaceOnUse">
<stop stop-color="#B1E938"/>
<stop offset="1" stop-color="#61BB00"/>
</linearGradient>
<linearGradient id="paint9_linear_46_133" x1="185.156" y1="337.485" x2="185.156" y2="427.98" gradientUnits="userSpaceOnUse">
<stop stop-color="#B1E938"/>
<stop offset="1" stop-color="#61BB00"/>
</linearGradient>
<linearGradient id="paint10_linear_46_133" x1="399.737" y1="569.607" x2="399.737" y2="577.207" gradientUnits="userSpaceOnUse">
<stop stop-color="#B1E938"/>
<stop offset="1" stop-color="#61BB00"/>
</linearGradient>
<linearGradient id="paint11_linear_46_133" x1="399.489" y1="568.887" x2="399.489" y2="577.669" gradientUnits="userSpaceOnUse">
<stop stop-color="#B1E938"/>
<stop offset="1" stop-color="#61BB00"/>
</linearGradient>
<linearGradient id="paint12_linear_46_133" x1="398.237" y1="631.115" x2="398.237" y2="639.4" gradientUnits="userSpaceOnUse">
<stop stop-color="#B1E938"/>
<stop offset="1" stop-color="#61BB00"/>
</linearGradient>
<linearGradient id="paint13_linear_46_133" x1="398.316" y1="630.082" x2="398.316" y2="640.889" gradientUnits="userSpaceOnUse">
<stop stop-color="#B1E938"/>
<stop offset="1" stop-color="#61BB00"/>
</linearGradient>
<linearGradient id="paint14_linear_46_133" x1="347.675" y1="593.827" x2="347.675" y2="599.627" gradientUnits="userSpaceOnUse">
<stop stop-color="#B1E938"/>
<stop offset="1" stop-color="#61BB00"/>
</linearGradient>
<linearGradient id="paint15_linear_46_133" x1="346.915" y1="592.443" x2="346.915" y2="602.182" gradientUnits="userSpaceOnUse">
<stop stop-color="#B1E938"/>
<stop offset="1" stop-color="#61BB00"/>
</linearGradient>
<linearGradient id="paint16_linear_46_133" x1="305.38" y1="629.22" x2="305.38" y2="637.162" gradientUnits="userSpaceOnUse">
<stop stop-color="#B1E938"/>
<stop offset="1" stop-color="#61BB00"/>
</linearGradient>
<linearGradient id="paint17_linear_46_133" x1="305.053" y1="630.135" x2="305.053" y2="637.086" gradientUnits="userSpaceOnUse">
<stop stop-color="#B1E938"/>
<stop offset="1" stop-color="#61BB00"/>
</linearGradient>
<linearGradient id="paint18_linear_46_133" x1="332.144" y1="678.113" x2="332.144" y2="683.713" gradientUnits="userSpaceOnUse">
<stop stop-color="#B1E938"/>
<stop offset="1" stop-color="#61BB00"/>
</linearGradient>
<linearGradient id="paint19_linear_46_133" x1="331.357" y1="676.979" x2="331.357" y2="686.33" gradientUnits="userSpaceOnUse">
<stop stop-color="#B1E938"/>
<stop offset="1" stop-color="#61BB00"/>
</linearGradient>
<linearGradient id="paint20_linear_46_133" x1="476.142" y1="558.823" x2="476.142" y2="565.358" gradientUnits="userSpaceOnUse">
<stop stop-color="#B1E938"/>
<stop offset="1" stop-color="#61BB00"/>
</linearGradient>
<linearGradient id="paint21_linear_46_133" x1="475.759" y1="558.676" x2="475.759" y2="564.853" gradientUnits="userSpaceOnUse">
<stop stop-color="#B1E938"/>
<stop offset="1" stop-color="#61BB00"/>
</linearGradient>
<linearGradient id="paint22_linear_46_133" x1="305.45" y1="670.409" x2="305.45" y2="676.809" gradientUnits="userSpaceOnUse">
<stop stop-color="#B1E938"/>
<stop offset="1" stop-color="#61BB00"/>
</linearGradient>
<linearGradient id="paint23_linear_46_133" x1="305.224" y1="669.888" x2="305.224" y2="678.204" gradientUnits="userSpaceOnUse">
<stop stop-color="#B1E938"/>
<stop offset="1" stop-color="#61BB00"/>
</linearGradient>
<linearGradient id="paint24_linear_46_133" x1="368.373" y1="558.636" x2="368.373" y2="564.658" gradientUnits="userSpaceOnUse">
<stop stop-color="#B1E938"/>
<stop offset="1" stop-color="#61BB00"/>
</linearGradient>
<linearGradient id="paint25_linear_46_133" x1="368.173" y1="557.86" x2="368.173" y2="565.771" gradientUnits="userSpaceOnUse">
<stop stop-color="#B1E938"/>
<stop offset="1" stop-color="#61BB00"/>
</linearGradient>
<linearGradient id="paint26_linear_46_133" x1="405.818" y1="367.417" x2="405.818" y2="398.628" gradientUnits="userSpaceOnUse">
<stop stop-color="#B1E938"/>
<stop offset="1" stop-color="#61BB00"/>
</linearGradient>
<linearGradient id="paint27_linear_46_133" x1="405.818" y1="367.417" x2="405.818" y2="398.628" gradientUnits="userSpaceOnUse">
<stop stop-color="#B1E938"/>
<stop offset="1" stop-color="#61BB00"/>
</linearGradient>
<linearGradient id="paint28_linear_46_133" x1="508.711" y1="458.396" x2="508.711" y2="484.872" gradientUnits="userSpaceOnUse">
<stop stop-color="#B1E938"/>
<stop offset="1" stop-color="#61BB00"/>
</linearGradient>
<linearGradient id="paint29_linear_46_133" x1="242.271" y1="281.603" x2="242.271" y2="312.814" gradientUnits="userSpaceOnUse">
<stop stop-color="#B1E938"/>
<stop offset="1" stop-color="#61BB00"/>
</linearGradient>
<linearGradient id="paint30_linear_46_133" x1="771.626" y1="435.539" x2="771.626" y2="455.152" gradientUnits="userSpaceOnUse">
<stop stop-color="#B1E938"/>
<stop offset="1" stop-color="#61BB00"/>
</linearGradient>
<linearGradient id="paint31_linear_46_133" x1="358.95" y1="129.104" x2="358.95" y2="149.309" gradientUnits="userSpaceOnUse">
<stop stop-color="#B1E938"/>
<stop offset="1" stop-color="#61BB00"/>
</linearGradient>
<clipPath id="clip0_46_133">
<rect width="960" height="960" fill="white"/>
</clipPath>
<clipPath id="clip1_46_133">
<rect width="862" height="885" fill="white" transform="translate(49 38)"/>
</clipPath>
</defs>
</svg>
