<svg width="960" height="960" viewBox="0 0 960 960" fill="none" xmlns="http://www.w3.org/2000/svg">
<g clip-path="url(#clip0_38_4064)">
<path d="M770.028 742.268C766.669 743.416 763.075 743.694 759.58 743.076H759.328C759.269 739.913 758.753 736.774 757.796 733.757L758.103 733.657C767.994 735.886 777.564 729.464 785.588 723.265C793.612 717.066 802.863 710.393 812.879 712.023C820.819 713.323 827.228 720.005 829.596 727.695C831.964 735.385 830.752 743.841 827.729 751.307C824.706 758.773 819.997 765.407 815.177 771.855C808.713 780.534 801.9 789.116 793.5 795.955C785.1 802.794 774.889 807.838 764.078 808.455C753.365 809.055 742.109 804.791 735.771 796.168C742.889 790.275 747.696 781.373 751.596 772.75C752.627 770.493 753.616 768.167 754.536 765.798L755.219 765.84C758.032 766.335 760.898 766.461 763.745 766.216C769.087 765.751 774.29 764.261 779.068 761.828C781.266 760.739 783.384 759.496 785.406 758.109C790.124 754.81 794.472 751.013 798.377 746.783C800.08 745.166 801.465 743.243 802.458 741.113C802.938 740.04 803.147 738.865 803.067 737.692C802.987 736.518 802.62 735.383 801.999 734.384C799.853 731.403 795.399 731.431 791.857 732.448C788.561 733.484 785.382 734.858 782.37 736.548C780.336 737.62 778.302 738.735 776.227 739.748C774.229 740.749 772.157 741.592 770.028 742.268V742.268Z" fill="#171717"/>
<path d="M735.772 796.168C733.558 798.03 731.084 799.559 728.43 800.709C713.064 807.309 695.735 799.009 681.107 790.916C609.141 751.016 539.083 712.193 472.716 663.532L472.535 663.432C453.157 698.886 431.435 733.323 403.675 762.619C373.515 794.451 335.595 820.098 292.875 829.947C277.634 833.457 261.675 834.92 246.346 831.8C232.164 828.916 218.554 821.811 209.401 810.694C208.663 809.794 207.938 808.842 207.256 807.88C206.49 806.808 205.779 805.721 205.124 804.607C197.449 791.86 195.791 776.407 198.507 761.449C200.313 751.519 203.895 741.996 209.081 733.337C211.402 729.4 214.104 725.7 217.147 722.29C222.036 716.871 227.887 712.468 234.825 710.365C243.796 707.621 253.425 709.014 262.798 709.209C291.35 709.657 318.94 698.899 339.654 679.243C349.766 669.658 357.888 658.172 363.554 645.442C369.219 632.713 372.317 618.991 372.67 605.062L372.712 604.588C382.687 605.438 392.8 605.452 402.803 605.368C404.892 605.354 407.024 605.313 409.169 605.229C446.35 624.329 492.963 628.702 532.624 615.51C541.715 612.473 550.502 608.593 558.87 603.919L559.204 604.519C615.652 638.009 672.099 671.494 728.547 704.975C740.263 711.912 752.786 719.825 757.425 732.627C757.565 733.003 757.69 733.379 757.801 733.756C758.758 736.772 759.274 739.911 759.334 743.075C759.515 750.668 757.411 758.427 754.542 765.796C753.622 768.165 752.633 770.496 751.602 772.748C747.7 781.373 742.89 790.275 735.772 796.168Z" fill="url(#paint0_linear_38_4064)"/>
<path d="M623.294 407.274C612.379 395.969 599.605 386.62 585.528 379.635L585.639 379.413L565.092 356.482C586.845 366.242 605.618 381.601 619.492 400.991C620.899 402.97 622.265 405.031 623.532 407.135L623.294 407.274Z" fill="url(#paint1_linear_38_4064)"/>
<path d="M565.091 356.483L585.639 379.414L585.528 379.636C574.827 374.271 563.523 370.202 551.857 367.517L551.885 367.377L534.834 347.136V347.122C539.622 347.972 544.357 349.098 549.015 350.493C554.498 352.139 559.868 354.14 565.091 356.483V356.483Z" fill="url(#paint2_linear_38_4064)"/>
<path d="M534.834 347.136L551.885 367.377L551.857 367.517C538.184 364.315 524.137 363.002 510.107 363.617L510.093 363.283L495.093 346.064L495.079 345.939C508.318 344.36 521.717 344.759 534.838 347.123L534.834 347.136Z" fill="url(#paint3_linear_38_4064)"/>
<path d="M467.019 339.321C464.055 337.603 461.713 334.989 460.332 331.854C459.976 331.007 459.696 330.131 459.496 329.235C456.975 317.951 466.434 308.035 473.051 298.545C479.824 288.631 484.063 277.207 485.396 265.275C486.73 253.342 485.117 241.265 480.7 230.1L480.658 230.058C466.358 243.372 447.783 251.156 428.264 252.013V252.069C431.464 275.569 430.964 299.643 421.327 321.305C421.187 321.612 421.048 321.932 420.895 322.239C420.56 322.977 420.212 323.715 419.836 324.439C409.708 344.694 390.275 361.077 367.79 362.916C355.378 363.933 342.728 360.645 330.329 359.391C322.486 358.597 314.742 358.611 307.23 361.049C279.33 370.104 270.913 406.268 247.258 423.612C234.233 433.169 217.251 436.233 201.158 434.631C185.065 433.029 169.744 427.081 155.214 420.031C144.501 414.831 133.83 408.761 126.419 399.455C119.036 390.191 115.525 376.999 120.387 366.202L120.596 366.286C124.135 379.854 139.796 387.725 153.682 385.886C167.568 384.047 179.426 374.616 188.021 363.555C196.616 352.494 202.621 339.678 209.907 327.711C217.193 315.744 226.247 304.224 238.743 297.886C260.28 286.95 286.665 293.706 309.902 287.159C337.847 279.274 356.57 253.99 375.558 232.007C389.058 216.39 403.991 201.526 422.226 191.83C440.461 182.134 462.5 178.122 482.031 184.837C501.562 191.552 517.346 210.498 516.731 231.129C516.396 242.441 511.479 253.084 509.514 264.243C507.214 277.324 509.027 290.767 508.177 304.029C507.926 308.115 507.316 312.171 506.352 316.149C504.081 325.301 499.638 333.757 491.952 338.898C484.683 343.765 474.179 343.667 467.019 339.321Z" fill="#171717"/>
<path d="M510.093 363.282L510.107 363.616C496.219 364.169 482.485 366.731 469.331 371.221L469.192 370.822L457.239 356.4L457.002 355.73C458.802 355.089 460.596 354.477 462.421 353.906C462.408 353.948 462.394 354.006 462.38 354.045C472.889 349.961 483.876 347.237 495.075 345.938L495.089 346.062L510.093 363.282Z" fill="url(#paint4_linear_38_4064)"/>
<path d="M469.192 370.818L469.331 371.218C465.064 372.678 460.875 374.357 456.779 376.247C448.774 379.921 441.09 384.26 433.808 389.217L433.39 388.59L422.565 373.35L422.482 373.224C423.332 372.639 424.195 372.068 425.059 371.511C431.21 367.555 437.625 364.026 444.259 360.951C448.425 359.029 452.673 357.287 457.005 355.727L457.242 356.396L469.192 370.818Z" fill="url(#paint5_linear_38_4064)"/>
<path d="M433.39 388.594L433.808 389.221C424.147 395.763 415.336 403.479 407.576 412.193L396.389 395.239L396.334 395.183C404.233 386.943 413 379.582 422.482 373.228L422.565 373.354L433.39 388.594Z" fill="url(#paint6_linear_38_4064)"/>
<path d="M396.389 395.239L407.576 412.193C399.961 420.787 393.439 430.29 388.156 440.486L387.656 440.222L375.62 423.268L375.09 422.947C376.386 420.802 377.737 418.685 379.144 416.595C379.91 415.439 380.69 414.295 381.498 413.154C385.978 406.794 390.938 400.786 396.335 395.183L396.389 395.239Z" fill="url(#paint7_linear_38_4064)"/>
<path d="M387.655 440.221L388.155 440.485C382.826 450.782 378.663 461.64 375.743 472.86L375.283 472.749L360.865 454.149L360.586 454.049C364.276 443.185 369.138 432.754 375.086 422.941L375.616 423.262L387.655 440.221Z" fill="url(#paint8_linear_38_4064)"/>
<path d="M375.284 472.75L375.744 472.861C372.675 484.645 370.726 496.694 369.921 508.845L369.475 508.817L353 491.111C353.957 478.488 356.508 466.037 360.592 454.055L360.871 454.155L375.284 472.75Z" fill="url(#paint9_linear_38_4064)"/>
<path d="M369.475 508.817L369.921 508.845C369.628 513.067 369.451 517.371 369.391 521.759L369.364 521.814C363.073 518.03 357.405 513.293 352.564 507.772L352.675 507.661C352.482 502.143 352.589 496.618 352.996 491.111L369.475 508.817Z" fill="url(#paint10_linear_38_4064)"/>
<path d="M186.466 766.565C176.108 772.17 167.191 780.1 160.415 789.732C155.747 796.33 152.203 803.654 149.925 811.408C149.062 814.417 148.658 818.276 151.225 820.073C153.175 821.438 155.825 820.825 158.107 820.156C162.676 818.805 167.226 817.417 171.759 815.991C177.638 814.138 183.489 812.216 189.312 810.224C194.592 808.412 199.849 806.55 205.082 804.638L205.123 804.61C205.778 805.724 206.489 806.81 207.255 807.883C207.937 808.845 208.662 809.792 209.4 810.697L208.731 811.241C193.491 820.755 178.265 830.27 162.802 839.395C156.839 842.919 150.292 846.5 143.424 845.706C132.6 844.452 125.924 832.917 124.116 822.163C121.65 807.368 125.063 792.044 131.416 778.463C137.769 764.882 146.916 752.816 156.436 741.212C163.569 732.519 171.314 723.742 181.651 719.257C187.317 716.866 193.475 715.871 199.606 716.356C205.737 716.841 211.662 718.791 216.882 722.043L217.147 722.294C214.104 725.704 211.403 729.404 209.081 733.341C203.893 741.999 200.308 751.522 198.5 761.452L198.417 761.438C194.283 762.773 190.282 764.49 186.466 766.565V766.565Z" fill="#171717"/>
<path d="M417.885 251.752C421.334 252.077 424.801 252.165 428.263 252.016C447.782 251.159 466.357 243.375 480.657 230.061C482.217 228.599 483.717 227.066 485.157 225.461" stroke="#171717" stroke-width="4.179" stroke-linecap="round" stroke-linejoin="round"/>
<path d="M480.7 230.1C485.117 241.264 486.729 253.341 485.396 265.273C484.063 277.205 479.824 288.628 473.052 298.542C466.435 308.029 456.976 317.948 459.497 329.232C459.698 330.128 459.977 331.005 460.333 331.851C461.714 334.986 464.056 337.6 467.02 339.318C474.18 343.664 484.684 343.762 491.956 338.9C499.646 333.759 504.089 325.3 506.356 316.151C507.32 312.173 507.931 308.117 508.181 304.031C509.031 290.769 507.22 277.331 509.518 264.245C511.483 253.086 516.4 242.445 516.735 231.131C517.348 210.5 501.55 191.568 482.035 184.839C462.52 178.11 440.465 182.15 422.23 191.832C403.995 201.514 389.061 216.392 375.562 232.009C356.574 253.991 337.851 279.276 309.906 287.161C286.669 293.708 260.284 286.952 238.747 297.887C226.247 304.226 217.21 315.747 209.91 327.713C202.625 339.68 196.621 352.482 188.025 363.557C179.429 374.632 167.575 384.063 153.686 385.888C139.797 387.713 124.138 379.856 120.6 366.288" stroke="#171717" stroke-width="4.179" stroke-linecap="round" stroke-linejoin="round"/>
<path d="M120.448 366.082C120.434 366.124 120.406 366.165 120.392 366.207C115.53 377.007 119.041 390.196 126.424 399.46C133.835 408.766 144.506 414.84 155.219 420.036C169.749 427.085 185.087 433.019 201.163 434.636C217.239 436.253 234.235 433.174 247.263 423.617C270.918 406.273 279.332 370.109 307.235 361.054C314.744 358.616 322.489 358.602 330.335 359.396C342.735 360.65 355.383 363.937 367.795 362.92C390.28 361.082 409.713 344.699 419.841 324.444C420.217 323.719 420.565 322.981 420.9 322.244C421.053 321.937 421.192 321.617 421.331 321.31C430.972 299.648 431.473 275.575 428.269 252.074" stroke="#171717" stroke-width="4.179" stroke-linecap="round" stroke-linejoin="round"/>
<path d="M448.853 258.773C448.306 258.075 447.592 257.525 446.778 257.174C445.964 256.823 445.074 256.682 444.191 256.764C443.308 256.846 442.46 257.148 441.724 257.642C440.988 258.137 440.388 258.808 439.979 259.595" stroke="#171717" stroke-width="4.179" stroke-linecap="round" stroke-linejoin="round"/>
<path d="M464.72 261.127C465.341 260.514 466.081 260.033 466.894 259.714C467.707 259.396 468.577 259.245 469.45 259.273C470.322 259.3 471.181 259.505 471.972 259.874C472.764 260.243 473.472 260.769 474.054 261.42" stroke="#171717" stroke-width="4.179" stroke-linecap="round" stroke-linejoin="round"/>
<path d="M464.037 250.567C466.092 249.219 468.556 248.638 470.997 248.926C473.438 249.214 475.699 250.353 477.383 252.142" stroke="#171717" stroke-width="4.179" stroke-linecap="round" stroke-linejoin="round"/>
<path d="M455.54 272.3C457.085 272.601 458.478 273.428 459.482 274.64C459.975 275.248 460.293 275.979 460.401 276.755C460.509 277.53 460.403 278.32 460.095 279.04C459.753 279.741 459.165 280.292 458.443 280.588C457.721 280.883 456.915 280.901 456.18 280.64" stroke="#171717" stroke-width="4.179" stroke-linecap="round" stroke-linejoin="round"/>
<path d="M436.2 291.329C436.051 292.786 436.322 294.255 436.982 295.562C437.643 296.868 438.664 297.958 439.925 298.702C441.187 299.446 442.635 299.812 444.098 299.757C445.561 299.702 446.978 299.228 448.18 298.392" stroke="#171717" stroke-width="4.179" stroke-linecap="round" stroke-linejoin="round"/>
<path d="M330.385 359.339C330.371 359.353 330.357 359.381 330.329 359.395C310.116 383.595 295.14 407.795 284.664 437.519C274.164 467.289 271.319 500.361 280.624 530.507C289.929 560.653 312.317 587.387 341.948 598.253C351.868 601.741 362.215 603.873 372.707 604.591C382.681 605.441 392.795 605.455 402.798 605.371C404.887 605.357 407.019 605.316 409.164 605.232C420.253 604.758 431.62 602.832 438.878 594.798C441.954 591.344 444.076 587.147 445.036 582.622C447.279 572.871 445.3 561.522 443.016 551.403C442.396 548.384 441.543 545.417 440.466 542.53C439.306 539.207 437.217 536.286 434.448 534.115C427.817 529.267 418.707 531.204 410.529 531.886C396.088 532.952 381.68 529.426 369.364 521.814C363.072 518.029 357.405 513.292 352.564 507.772C347.822 502.427 343.996 496.337 341.238 489.746C330.163 463.04 338.257 429.606 360.323 410.925C363.987 407.833 368.584 404.977 373.279 405.98C377.974 406.983 382.668 411.301 379.06 416.539" stroke="#171717" stroke-width="4.179" stroke-linecap="round" stroke-linejoin="round"/>
<path d="M506.526 316.2C547.663 318.814 587.793 330.028 624.326 349.118C648.789 361.781 672.597 379.209 683.254 404.618C696.822 436.924 685.887 474.663 667.763 504.656C661.09 515.689 652.996 526.569 641.378 532.156C636.094 534.664 630.239 535.727 624.41 535.235C618.21 534.719 612.318 532.365 608.153 527.963C607.505 527.285 606.904 526.564 606.353 525.804C598.426 514.77 602.661 499.252 609.933 487.619C610.184 487.219 610.448 486.811 610.713 486.407C618.458 474.65 628.99 464.216 632.64 450.633C636.61 435.894 631.581 420.389 623.529 407.141C622.262 405.041 620.896 402.976 619.489 400.998C605.616 381.608 586.843 366.248 565.089 356.489C559.866 354.145 554.495 352.144 549.012 350.498C544.354 349.103 539.619 347.977 534.831 347.127C521.71 344.764 508.31 344.365 495.072 345.943C483.873 347.242 472.886 349.967 462.377 354.051C462.391 354.009 462.405 353.951 462.418 353.911C463.951 349.051 465.485 344.189 467.018 339.326C467.032 339.284 467.045 339.226 467.059 339.186" stroke="#171717" stroke-width="4.179" stroke-linecap="round" stroke-linejoin="round"/>
<path d="M372.665 605.064C372.312 618.993 369.214 632.716 363.549 645.445C357.883 658.174 349.762 669.661 339.649 679.245C318.936 698.902 291.345 709.659 262.793 709.211C253.417 709.016 243.793 707.622 234.82 710.367C227.882 712.467 222.031 716.873 217.142 722.292C214.099 725.703 211.398 729.403 209.076 733.339C203.889 741.998 200.307 751.521 198.5 761.451C195.784 776.413 197.441 791.862 205.117 804.609C205.772 805.723 206.483 806.809 207.249 807.882C207.931 808.844 208.656 809.791 209.394 810.696C218.547 821.813 232.157 828.918 246.339 831.802C261.662 834.922 277.627 833.459 292.867 829.949C335.593 820.1 373.513 794.449 403.673 762.621C431.437 733.321 453.155 698.888 472.533 663.434C474.205 660.384 475.858 657.323 477.493 654.253" stroke="#171717" stroke-width="4.179" stroke-linecap="round" stroke-linejoin="round"/>
<path d="M472.716 663.531C539.083 712.192 609.141 751.018 681.107 790.916C695.735 799.01 713.065 807.315 728.43 800.708C731.084 799.559 733.558 798.029 735.772 796.168C742.89 790.275 747.697 781.373 751.597 772.75C752.628 770.493 753.617 768.167 754.537 765.799C757.406 758.429 759.51 750.67 759.329 743.077C759.269 739.913 758.753 736.774 757.796 733.758C757.685 733.382 757.559 733.005 757.42 732.629C752.781 719.829 740.257 711.914 728.542 704.977C672.094 671.486 615.646 638.001 559.2 604.521" stroke="#171717" stroke-width="4.179" stroke-linecap="round" stroke-linejoin="round"/>
<path d="M352.673 507.661C352.48 502.142 352.587 496.617 352.994 491.111C353.951 478.488 356.502 466.037 360.586 454.055C364.277 443.19 369.139 432.759 375.086 422.947C376.382 420.802 377.734 418.685 379.14 416.595C379.906 415.439 380.686 414.295 381.494 413.154C385.975 406.794 390.935 400.786 396.331 395.183C404.231 386.943 412.998 379.582 422.479 373.228C423.329 372.643 424.192 372.072 425.056 371.515C431.207 367.559 437.622 364.03 444.256 360.955C448.422 359.033 452.67 357.291 457.002 355.731C458.802 355.09 460.596 354.477 462.421 353.906C462.435 353.892 462.435 353.892 462.449 353.892" stroke="#171717" stroke-width="4.179" stroke-linecap="round" stroke-linejoin="round"/>
<path d="M409.052 605.176C409.094 605.19 409.122 605.218 409.164 605.232C446.345 624.332 492.958 628.705 532.619 615.513C541.709 612.476 550.496 608.596 558.864 603.922C587.175 588.204 610.035 564.246 624.409 535.23C624.461 535.144 624.507 535.056 624.548 534.965" stroke="#171717" stroke-width="4.179" stroke-linecap="round" stroke-linejoin="round"/>
<path d="M369.391 521.759C369.447 517.37 369.623 513.065 369.921 508.845C370.725 496.694 372.675 484.646 375.744 472.861C378.663 461.641 382.826 450.782 388.156 440.486C393.438 430.291 399.961 420.787 407.576 412.193C415.335 403.479 424.147 395.763 433.808 389.221C441.089 384.264 448.773 379.926 456.779 376.251C460.874 374.361 465.063 372.682 469.331 371.222C482.484 366.731 496.219 364.17 510.107 363.616C524.136 363.002 538.184 364.314 551.857 367.516C563.523 370.201 574.826 374.27 585.528 379.636C599.605 386.62 612.379 395.968 623.294 407.274" stroke="#171717" stroke-width="4.179" stroke-linecap="round" stroke-linejoin="round"/>
<path d="M473.845 561.364C481.068 558.386 488.795 556.817 496.608 556.739C500.108 556.711 504.242 557.38 505.802 560.514C506.262 561.648 506.407 562.885 506.221 564.094C506.034 565.304 505.523 566.44 504.743 567.382C503.161 569.252 501.178 570.742 498.943 571.742C482.365 580.342 463.949 581.661 445.309 582.692" stroke="#171717" stroke-width="4.179" stroke-linecap="round" stroke-linejoin="round"/>
<path d="M473.845 561.364C471.853 562.311 469.874 563.244 467.882 564.192C469.819 563.146 471.809 562.202 473.845 561.364Z" stroke="#171717" stroke-width="4.179" stroke-linecap="round" stroke-linejoin="round"/>
<path d="M471.128 545.8C476.292 543.761 481.577 542.044 486.954 540.66C491.286 539.545 495.897 538.654 500.202 539.894C502.002 540.409 503.893 541.537 504.256 543.376C504.785 546.107 501.832 548.113 499.324 549.297C490.84 553.309 482.347 557.33 473.845 561.361" stroke="#171717" stroke-width="4.179" stroke-linecap="round" stroke-linejoin="round"/>
<path d="M471.128 545.8L460.471 550.523C463.957 548.797 467.509 547.222 471.128 545.8Z" stroke="#171717" stroke-width="4.179" stroke-linecap="round" stroke-linejoin="round"/>
<path d="M440.9 542.362C448.409 535.717 448.883 524.043 454.887 516.005C455.572 514.974 456.512 514.138 457.617 513.581C458.175 513.308 458.801 513.209 459.415 513.299C460.029 513.388 460.602 513.661 461.058 514.081C461.754 515.057 462.034 516.269 461.838 517.452C461.437 526.904 458.994 536.157 454.678 544.575C460.265 536.396 468.253 530.151 477.538 526.702C482.317 524.947 487.582 523.985 492.5 525.295C495.314 526.047 498.323 528.248 497.989 531.16C497.682 533.751 494.966 535.242 492.584 536.286C485.437 539.463 478.286 542.634 471.13 545.801" stroke="#171717" stroke-width="4.179" stroke-linecap="round" stroke-linejoin="round"/>
<path d="M584.845 502.116C576.108 502.885 567.555 505.068 559.519 508.58C556.97 509.694 554.142 511.422 553.975 514.194C553.998 515.246 554.33 516.268 554.929 517.132C555.529 517.996 556.369 518.666 557.346 519.056C559.313 519.799 561.422 520.09 563.517 519.906C573.241 519.655 582.825 517.747 592.354 515.838C580.703 518.257 569.67 523.036 559.937 529.88C557.248 531.775 554.365 534.7 555.298 537.849C555.883 539.841 557.861 541.108 559.84 541.693C564.896 543.193 570.288 541.415 575.261 539.646C586.225 535.76 597.188 531.864 608.152 527.958L608.611 527.791" stroke="#171717" stroke-width="4.179" stroke-linecap="round" stroke-linejoin="round"/>
<path d="M584.859 502.116C586.879 502.016 588.899 501.907 590.919 501.81C588.9 501.837 586.879 501.935 584.859 502.116Z" stroke="#171717" stroke-width="4.179" stroke-linecap="round" stroke-linejoin="round"/>
<path d="M584.859 502.116H584.845" stroke="#171717" stroke-width="4.179" stroke-linecap="round" stroke-linejoin="round"/>
<path d="M609.712 487.475C607.678 487.531 593.524 471.675 588.512 469.56C587.3 469.06 585.782 468.668 584.751 469.476C583.441 470.521 583.929 472.597 584.598 474.129C587.008 479.648 590.224 484.78 594.14 489.356C588.684 487.595 582.898 487.105 577.224 487.924C571.55 488.742 566.139 490.847 561.403 494.078C560.077 494.895 558.96 496.012 558.143 497.338C557.75 498.008 557.555 498.775 557.579 499.552C557.604 500.328 557.847 501.082 558.282 501.726C559.494 503.245 561.751 503.286 563.701 503.189C570.75 502.827 577.785 502.478 584.848 502.116" stroke="#171717" stroke-width="4.179" stroke-linecap="round" stroke-linejoin="round"/>
<path d="M216.877 722.042C211.657 718.79 205.732 716.84 199.601 716.355C193.47 715.87 187.312 716.865 181.646 719.256C171.309 723.741 163.564 732.518 156.431 741.211C146.916 752.811 137.75 764.865 131.411 778.462C125.072 792.059 121.646 807.368 124.111 822.162C125.922 832.916 132.595 844.451 143.419 845.705C150.287 846.499 156.834 842.919 162.797 839.394C178.26 830.269 193.486 820.755 208.726 811.24" stroke="#171717" stroke-width="4.179" stroke-linecap="round" stroke-linejoin="round"/>
<path d="M198.419 761.438C194.284 762.773 190.283 764.489 186.466 766.565C176.108 772.169 167.191 780.099 160.415 789.732C155.747 796.329 152.203 803.653 149.925 811.408C149.062 814.417 148.658 818.276 151.225 820.073C153.175 821.438 155.825 820.825 158.107 820.156C162.675 818.805 167.226 817.417 171.759 815.991C177.637 814.138 183.488 812.216 189.312 810.224C194.592 808.412 199.848 806.55 205.082 804.638" stroke="#171717" stroke-width="4.179" stroke-linecap="round" stroke-linejoin="round"/>
<path d="M167.576 830.006C168.97 825.339 170.363 820.668 171.755 815.991C173.106 811.422 174.467 806.848 175.837 802.269C179.375 790.373 182.918 778.473 186.466 766.569C187.066 764.521 187.678 762.459 188.291 760.411" stroke="#171717" stroke-width="4.179" stroke-linecap="round" stroke-linejoin="round"/>
<path d="M193.041 812.021C191.788 811.45 190.548 810.851 189.308 810.221C184.647 807.869 180.147 805.211 175.837 802.266C170.349 798.532 165.19 794.338 160.415 789.729C158.173 787.583 156.023 785.344 153.965 783.014" stroke="#171717" stroke-width="4.179" stroke-linecap="round" stroke-linejoin="round"/>
<path d="M735.562 795.9C735.624 795.994 735.694 796.083 735.771 796.165C742.109 804.788 753.365 809.051 764.078 808.452C774.889 807.839 785.1 802.796 793.5 795.952C801.9 789.108 808.714 780.53 815.177 771.852C819.998 765.402 824.72 758.757 827.729 751.305C830.738 743.853 831.963 735.4 829.599 727.7C827.235 720 820.824 713.323 812.883 712.028C802.867 710.398 793.616 717.084 785.591 723.27C777.566 729.456 767.993 735.889 758.099 733.66" stroke="#171717" stroke-width="4.179" stroke-linecap="round" stroke-linejoin="round"/>
<path d="M755.219 765.84C758.032 766.334 760.898 766.46 763.745 766.215C769.087 765.751 774.29 764.261 779.069 761.827C781.266 760.738 783.384 759.495 785.407 758.109C790.124 754.809 794.472 751.012 798.377 746.783C800.081 745.165 801.465 743.241 802.459 741.112C802.939 740.039 803.148 738.864 803.068 737.691C802.987 736.518 802.62 735.383 801.999 734.385C799.853 731.403 795.399 731.43 791.857 732.447C788.561 733.483 785.382 734.857 782.37 736.547C780.336 737.619 778.302 738.734 776.227 739.747C774.229 740.749 772.156 741.591 770.027 742.268C766.668 743.416 763.073 743.694 759.578 743.077" stroke="#171717" stroke-width="4.179" stroke-linecap="round" stroke-linejoin="round"/>
<path d="M760.4 771.552C761.515 769.769 762.629 768 763.744 766.216C767.618 760.059 771.484 753.901 775.344 747.744L782.365 736.544C783.313 735.044 784.246 733.544 785.193 732.044" stroke="#171717" stroke-width="4.179" stroke-linecap="round" stroke-linejoin="round"/>
<path d="M766.141 738.271C767.441 739.609 768.732 740.932 770.028 742.271C771.797 744.096 773.58 745.92 775.349 747.745C778.705 751.2 782.058 754.655 785.407 758.111C786.907 759.643 788.407 761.188 789.893 762.721" stroke="#171717" stroke-width="4.179" stroke-linecap="round" stroke-linejoin="round"/>
<path d="M419.932 324.5C413.594 339.657 414.959 357.488 424.599 370.792" stroke="#171717" stroke-width="4.179" stroke-linecap="round" stroke-linejoin="round"/>
<path d="M421.089 322.339C418.916 329.139 420.295 336.994 425.226 342.163C427.22 344.199 429.619 345.794 432.269 346.845C434.918 347.896 437.758 348.379 440.606 348.263C441.113 348.257 441.62 348.224 442.124 348.163C443.045 348.049 443.958 347.872 444.855 347.633C451.75 345.781 458.395 338.913 460.055 331.975" stroke="#171717" stroke-width="4.179" stroke-linecap="round" stroke-linejoin="round"/>
<path d="M443.14 348.39C446.567 349.59 447.557 354.89 444.799 357.264C444.265 357.712 443.636 358.032 442.959 358.197C440.215 358.852 436.83 357.138 436.286 354.255C435.786 351.538 438.014 348.877 440.605 348.264C441.103 348.148 441.615 348.114 442.123 348.164C442.47 348.196 442.812 348.271 443.14 348.387" stroke="#171717" stroke-width="4.179" stroke-linecap="round" stroke-linejoin="round"/>
<path d="M457.239 356.399L469.192 370.817" stroke="#171717" stroke-width="4.179" stroke-linecap="round" stroke-linejoin="round"/>
<path d="M422.564 373.354L433.389 388.594" stroke="#171717" stroke-width="4.179" stroke-linecap="round" stroke-linejoin="round"/>
<path d="M495.089 346.062L510.093 363.282" stroke="#171717" stroke-width="4.179" stroke-linecap="round" stroke-linejoin="round"/>
<path d="M396.389 395.239L407.576 412.193" stroke="#171717" stroke-width="4.179" stroke-linecap="round" stroke-linejoin="round"/>
<path d="M375.619 423.268L387.655 440.222" stroke="#171717" stroke-width="4.179" stroke-linecap="round" stroke-linejoin="round"/>
<path d="M360.866 454.152L375.284 472.75" stroke="#171717" stroke-width="4.179" stroke-linecap="round" stroke-linejoin="round"/>
<path d="M352.995 491.111L369.475 508.817" stroke="#171717" stroke-width="4.179" stroke-linecap="round" stroke-linejoin="round"/>
<path d="M534.834 347.136L551.885 367.377" stroke="#171717" stroke-width="4.179" stroke-linecap="round" stroke-linejoin="round"/>
<path d="M565.078 356.47L565.091 356.483L585.639 379.414" stroke="#171717" stroke-width="4.179" stroke-linecap="round" stroke-linejoin="round"/>
<path d="M415.008 561.878C412.7 557.933 410.392 553.987 408.083 550.042C404.315 553.655 400.549 557.267 396.783 560.879L414.951 562.423" stroke="url(#paint11_linear_38_4064)" stroke-width="4.179" stroke-linecap="round" stroke-linejoin="round"/>
<path d="M329.058 541.138C322.364 546.375 315.134 550.887 307.489 554.6C310.674 557.552 327.938 568.288 327.938 568.288C327.938 568.288 327.775 542.141 329.058 541.138Z" stroke="url(#paint12_linear_38_4064)" stroke-width="4.179" stroke-linecap="round" stroke-linejoin="round"/>
<path d="M327.635 478.505C323.628 482.594 318.974 485.994 313.859 488.568C313.08 482.154 311.884 475.798 310.279 469.539C315.557 472.965 321.133 475.907 326.94 478.329" stroke="url(#paint13_linear_38_4064)" stroke-width="4.179" stroke-linecap="round" stroke-linejoin="round"/>
<path d="M334.314 407.036L326.465 395.279C323.419 399.263 320.372 403.246 317.326 407.229C323.145 407.614 328.964 407.998 334.783 408.381" stroke="url(#paint14_linear_38_4064)" stroke-width="4.179" stroke-linecap="round" stroke-linejoin="round"/>
<path d="M391.348 383.435C386.953 381.615 382.956 378.954 379.582 375.602C378.929 379.879 378.276 384.156 377.623 388.432C381.571 386.21 385.905 384.757 390.394 384.15" stroke="url(#paint15_linear_38_4064)" stroke-width="4.179" stroke-linecap="round" stroke-linejoin="round"/>
<path d="M540.154 329.044L533.654 340.115C532.178 335.802 529.829 331.841 526.754 328.477C531.102 327.785 535.538 327.875 539.854 328.743" stroke="url(#paint16_linear_38_4064)" stroke-width="4.179" stroke-linecap="round" stroke-linejoin="round"/>
<path d="M623.944 376.906C622.3 370.934 620.217 365.092 617.712 359.427L606.144 372.122L623.6 376.3" stroke="url(#paint17_linear_38_4064)" stroke-width="4.179" stroke-linecap="round" stroke-linejoin="round"/>
<path d="M641.119 480.483C643.029 470.814 644.309 461.031 644.951 451.195C648.387 453.516 663.135 465.602 663.135 465.602C663.135 465.602 654.467 471.519 652.498 472.842C648.704 475.388 644.911 477.935 641.119 480.483Z" stroke="url(#paint18_linear_38_4064)" stroke-width="4.179" stroke-linecap="round" stroke-linejoin="round"/>
<path d="M652.92 415.886C653.903 412.116 654.887 408.346 655.87 404.577" stroke="url(#paint19_linear_38_4064)" stroke-width="4.179" stroke-linecap="round" stroke-linejoin="round"/>
<path d="M635.711 393.76C632.522 393.448 629.307 393.956 626.369 395.234" stroke="url(#paint20_linear_38_4064)" stroke-width="4.179" stroke-linecap="round" stroke-linejoin="round"/>
<path d="M576.469 347.476C575.768 344.865 575.068 342.255 574.369 339.645" stroke="url(#paint21_linear_38_4064)" stroke-width="4.179" stroke-linecap="round" stroke-linejoin="round"/>
<path d="M351.681 386.344C350.814 382.914 349.948 379.484 349.081 376.055" stroke="url(#paint22_linear_38_4064)" stroke-width="4.179" stroke-linecap="round" stroke-linejoin="round"/>
<path d="M313.182 439.018L304.335 442.958" stroke="url(#paint23_linear_38_4064)" stroke-width="4.179" stroke-linecap="round" stroke-linejoin="round"/>
<path d="M313.014 510.522L303.814 504.405" stroke="url(#paint24_linear_38_4064)" stroke-width="4.179" stroke-linecap="round" stroke-linejoin="round"/>
<path d="M376.109 566.829C375.404 561.264 374.699 555.698 373.993 550.129" stroke="url(#paint25_linear_38_4064)" stroke-width="4.179" stroke-linecap="round" stroke-linejoin="round"/>
<path d="M412.569 593.956C416.18 590.522 420.262 587.621 424.693 585.342" stroke="url(#paint26_linear_38_4064)" stroke-width="4.179" stroke-linecap="round" stroke-linejoin="round"/>
<path d="M637.185 505.37C635.547 501.6 633.908 497.831 632.269 494.061" stroke="url(#paint27_linear_38_4064)" stroke-width="4.179" stroke-linecap="round" stroke-linejoin="round"/>
<path d="M658.323 410.488L648.456 407.144" stroke="url(#paint28_linear_38_4064)" stroke-width="4.179" stroke-linecap="round" stroke-linejoin="round"/>
<path d="M628.847 501.463L637.692 495.063" stroke="url(#paint29_linear_38_4064)" stroke-width="4.179" stroke-linecap="round" stroke-linejoin="round"/>
<path d="M631.048 399.659C631.042 395.889 631.035 392.12 631.029 388.35" stroke="url(#paint30_linear_38_4064)" stroke-width="4.179" stroke-linecap="round" stroke-linejoin="round"/>
<path d="M580.183 340.236L568.375 345.627" stroke="url(#paint31_linear_38_4064)" stroke-width="4.179" stroke-linecap="round" stroke-linejoin="round"/>
<path d="M353.541 378.671L343.541 382.122" stroke="url(#paint32_linear_38_4064)" stroke-width="4.179" stroke-linecap="round" stroke-linejoin="round"/>
<path d="M309.665 446.389C308.293 441.982 306.922 437.575 305.551 433.17" stroke="url(#paint33_linear_38_4064)" stroke-width="4.179" stroke-linecap="round" stroke-linejoin="round"/>
<path d="M310.5 502.515C308.994 506.929 307.489 511.343 305.984 515.759" stroke="url(#paint34_linear_38_4064)" stroke-width="4.179" stroke-linecap="round" stroke-linejoin="round"/>
<path d="M382.484 561.062C376.58 560.446 370.675 559.832 364.771 559.22" stroke="url(#paint35_linear_38_4064)" stroke-width="4.179" stroke-linecap="round" stroke-linejoin="round"/>
<path d="M420.905 594.333C418.723 590.429 416.539 586.525 414.355 582.621" stroke="url(#paint36_linear_38_4064)" stroke-width="4.179" stroke-linecap="round" stroke-linejoin="round"/>
<path d="M400.1 650.277C399.124 646.56 398.148 642.843 397.171 639.127" stroke="#171717" stroke-width="4.179" stroke-linecap="round" stroke-linejoin="round"/>
<path d="M411.359 702.172C406.567 702.78 401.903 704.153 397.546 706.239" stroke="#171717" stroke-width="4.179" stroke-linecap="round" stroke-linejoin="round"/>
<path d="M336.619 738.42C335.284 734.733 334.501 730.868 334.296 726.952" stroke="#171717" stroke-width="4.179" stroke-linecap="round" stroke-linejoin="round"/>
<path d="M367.427 698.433L365.843 688.973" stroke="#171717" stroke-width="4.179" stroke-linecap="round" stroke-linejoin="round"/>
<path d="M345.458 772.523C340.343 773.115 335.372 774.596 330.768 776.898" stroke="#171717" stroke-width="4.179" stroke-linecap="round" stroke-linejoin="round"/>
<path d="M267.823 762.672C267.132 758.745 266.442 754.818 265.752 750.891" stroke="#171717" stroke-width="4.179" stroke-linecap="round" stroke-linejoin="round"/>
<path d="M282.192 784.311C279.212 787.217 276.233 790.124 273.254 793.032" stroke="#171717" stroke-width="4.179" stroke-linecap="round" stroke-linejoin="round"/>
<path d="M312.511 809.77C309.749 807.619 307.287 805.108 305.189 802.306" stroke="#171717" stroke-width="4.179" stroke-linecap="round" stroke-linejoin="round"/>
<path d="M438.963 690.25C438.299 685.171 437.637 680.091 436.975 675.011" stroke="#171717" stroke-width="4.179" stroke-linecap="round" stroke-linejoin="round"/>
<path d="M383.523 746.775C382.679 741.665 381.835 736.555 380.99 731.445" stroke="#171717" stroke-width="4.179" stroke-linecap="round" stroke-linejoin="round"/>
<path d="M334.364 708.629L319.111 712.519" stroke="#171717" stroke-width="4.179" stroke-linecap="round" stroke-linejoin="round"/>
<path d="M238.219 737.754L225.889 748.527" stroke="#171717" stroke-width="4.179" stroke-linecap="round" stroke-linejoin="round"/>
<path d="M730.506 739.91C730.02 734.828 729.536 729.746 729.052 724.665" stroke="#171717" stroke-width="4.179" stroke-linecap="round" stroke-linejoin="round"/>
<path d="M705.518 765.752C699.51 766.067 693.502 766.383 687.493 766.698" stroke="#171717" stroke-width="4.179" stroke-linecap="round" stroke-linejoin="round"/>
<path d="M694.669 748.739C694.516 742.819 694.363 736.9 694.211 730.981C694.211 730.841 694.211 730.698 694.219 730.558" stroke="#171717" stroke-width="4.179" stroke-linecap="round" stroke-linejoin="round"/>
<path d="M683.9 701.541L666.2 699.967" stroke="#171717" stroke-width="4.179" stroke-linecap="round" stroke-linejoin="round"/>
<path d="M642.637 751.7C642.161 746.601 642.448 741.459 643.486 736.443" stroke="#171717" stroke-width="4.179" stroke-linecap="round" stroke-linejoin="round"/>
<path d="M632.758 715.848C626.862 715.448 620.967 715.05 615.071 714.654" stroke="#171717" stroke-width="4.179" stroke-linecap="round" stroke-linejoin="round"/>
<path d="M579.12 716.3C578.87 710.403 578.619 704.507 578.368 698.611" stroke="#171717" stroke-width="4.179" stroke-linecap="round" stroke-linejoin="round"/>
<path d="M640.622 689.257C640.988 683.676 641.355 678.095 641.722 672.515" stroke="#171717" stroke-width="4.179" stroke-linecap="round" stroke-linejoin="round"/>
<path d="M607.685 665.7L594.91 665.285" stroke="#171717" stroke-width="4.179" stroke-linecap="round" stroke-linejoin="round"/>
<path d="M574.318 674.02C574.804 667.136 575.291 660.252 575.778 653.369" stroke="#171717" stroke-width="4.179" stroke-linecap="round" stroke-linejoin="round"/>
<path d="M541.307 667.15L527.991 666.35" stroke="#171717" stroke-width="4.179" stroke-linecap="round" stroke-linejoin="round"/>
<path d="M547.362 642.068C547.802 636.047 548.24 630.026 548.677 624.004" stroke="#171717" stroke-width="4.179" stroke-linecap="round" stroke-linejoin="round"/>
<path d="M502.452 642.142C498.204 641.401 493.86 641.405 489.613 642.151" stroke="#171717" stroke-width="4.179" stroke-linecap="round" stroke-linejoin="round"/>
<path d="M633.252 327.383L702.087 227.082" stroke="#171717" stroke-width="4.179" stroke-linecap="round" stroke-linejoin="round"/>
<path d="M606.701 319.517L618.502 280.183" stroke="#171717" stroke-width="4.179" stroke-linecap="round" stroke-linejoin="round"/>
<path d="M660.786 350.001L710.937 327.383" stroke="#171717" stroke-width="4.179" stroke-linecap="round" stroke-linejoin="round"/>
<path d="M690.286 370.651L817.139 352.951" stroke="#171717" stroke-width="4.179" stroke-linecap="round" stroke-linejoin="round"/>
<path d="M580.151 307.717L579.167 186.764" stroke="#171717" stroke-width="4.179" stroke-linecap="round" stroke-linejoin="round"/>
<path d="M538.648 156.032L539.333 168.749L550.199 175.395L538.315 179.977L535.352 192.365L527.322 182.478L514.624 183.488L521.547 172.796L516.662 161.033L528.97 164.311L538.648 156.032Z" fill="url(#paint37_linear_38_4064)" stroke="#171717" stroke-width="4.179" stroke-linecap="round" stroke-linejoin="round"/>
<path d="M382.23 122.499L389.095 128.662L398.065 126.501L394.325 134.935L399.152 142.797L389.974 141.846L383.99 148.867L382.057 139.845L373.53 136.322L381.514 131.697L382.23 122.499Z" fill="#171717"/>
<path d="M432.977 87.9551L433.246 92.9421L437.508 95.5481L432.846 97.3451L431.684 102.203L428.536 98.3261L423.557 98.7221L426.271 94.5281L424.355 89.9161L429.183 91.2021L432.977 87.9551Z" stroke="url(#paint38_linear_38_4064)" stroke-width="4.179" stroke-linecap="round" stroke-linejoin="round"/>
<path d="M348.35 215.859C346.22 213.4 344.09 210.942 341.959 208.484" stroke="#171717" stroke-width="4.179" stroke-linecap="round" stroke-linejoin="round"/>
<path d="M339.993 216.355C342.649 213.435 345.305 210.515 347.962 207.597" stroke="#171717" stroke-width="4.179" stroke-linecap="round" stroke-linejoin="round"/>
<path d="M507.162 136.209C505.841 132.286 503.844 128.626 501.262 125.392" stroke="#171717" stroke-width="4.179" stroke-linecap="round" stroke-linejoin="round"/>
<path d="M498.225 135.112L509.087 126.812" stroke="#171717" stroke-width="4.179" stroke-linecap="round" stroke-linejoin="round"/>
<path d="M176.59 283.838C181.677 285.322 186.377 287.902 190.36 291.397" stroke="url(#paint39_linear_38_4064)" stroke-width="4.179" stroke-linecap="round" stroke-linejoin="round"/>
<path d="M178.539 292.97C181.944 288.656 185.349 284.34 188.752 280.023" stroke="url(#paint40_linear_38_4064)" stroke-width="4.179" stroke-linecap="round" stroke-linejoin="round"/>
<path d="M719.228 525.992L727.802 533.69L739.004 530.991L734.333 541.524L740.361 551.343L728.9 550.155L721.423 558.925L719.012 547.657L708.362 543.257L718.333 537.479L719.228 525.992Z" fill="#171717"/>
<path d="M742.998 488.653L743.334 494.883L748.655 498.138L742.835 500.382L741.383 506.449L737.451 501.606L731.232 502.101L734.621 496.864L732.23 491.104L738.257 492.709L742.998 488.653Z" stroke="url(#paint41_linear_38_4064)" stroke-width="4.179" stroke-linecap="round" stroke-linejoin="round"/>
<path d="M165.339 648.082C170.426 649.565 175.126 652.145 179.108 655.641" stroke="url(#paint42_linear_38_4064)" stroke-width="4.179" stroke-linecap="round" stroke-linejoin="round"/>
<path d="M167.287 657.216L177.5 644.269" stroke="url(#paint43_linear_38_4064)" stroke-width="4.179" stroke-linecap="round" stroke-linejoin="round"/>
<path d="M80 333.617C64.79 340.725 53.906 355.317 48.738 371.295C43.57 387.273 43.626 404.528 46.024 421.145C50.65 453.22 64.294 484.496 87.353 507.269C110.412 530.042 143.304 543.527 175.525 540.044C189.451 538.538 203.843 533.392 212.267 522.202C220.691 511.012 220.552 492.848 209.254 484.567C196.431 475.167 177.463 482.967 167.454 495.322C149.381 517.628 151.283 553.542 171.612 573.812C187.481 589.636 212.601 596.812 222.012 617.147C231.1 636.787 217.964 663.218 196.823 667.836" stroke="#171717" stroke-width="4.179" stroke-linecap="round" stroke-linejoin="round"/>
<path d="M868.222 253.1C857.28 257.626 850.096 268.678 847.328 280.191C844.56 291.704 845.568 303.755 846.884 315.522C851.648 358.102 861.504 402.748 891.12 433.71C897.906 440.81 908.129 447.399 916.931 443.049C926.573 438.28 926.305 423.528 919.76 414.992C911.607 404.357 896.894 400.029 883.682 402.269C870.47 404.509 858.766 412.513 849.793 422.469C832.421 441.738 824.464 467.982 822.484 493.852C820.504 519.722 823.984 545.652 826.807 571.441C828.683 588.601 830.081 606.877 822.246 622.259C813.227 639.967 793.383 650.096 773.669 652.594C753.955 655.092 734.057 651.135 714.59 647.147" stroke="#171717" stroke-width="4.179" stroke-linecap="round" stroke-linejoin="round"/>
<path d="M311.991 64.0898C326.779 84.1188 335.548 109.19 333.222 133.976C330.896 158.762 316.534 182.818 294.288 194C272.042 205.182 242.395 201.456 225.559 183.116C221.916 179.147 218.759 174.165 219.085 168.788C219.546 161.08 227.711 155.261 235.404 155.931C243.097 156.601 249.641 162.551 252.648 169.663C255.655 176.775 255.599 184.842 254.295 192.452C251.01 211.625 240.316 228.738 224.522 240.094C208.728 251.45 189.101 256.138 169.88 253.147" stroke="#171717" stroke-width="4.179" stroke-linecap="round" stroke-linejoin="round"/>
<path d="M110.354 613C108.224 610.541 106.093 608.083 103.962 605.625" stroke="#171717" stroke-width="4.179" stroke-linecap="round" stroke-linejoin="round"/>
<path d="M102 613.492L109.968 604.734" stroke="#171717" stroke-width="4.179" stroke-linecap="round" stroke-linejoin="round"/>
<path d="M580.046 786.775C574.083 782.995 569.081 777.882 565.433 771.839" stroke="#171717" stroke-width="4.179" stroke-linecap="round" stroke-linejoin="round"/>
<path d="M561.2 791.299C567.225 784.193 573.249 777.088 579.273 769.982" stroke="#171717" stroke-width="4.179" stroke-linecap="round" stroke-linejoin="round"/>
<path d="M457.422 740.52L473.6 730.381" stroke="#171717" stroke-width="4.179" stroke-linecap="round" stroke-linejoin="round"/>
<path d="M457.129 725.683C462.095 731.192 467.062 736.701 472.029 742.209" stroke="#171717" stroke-width="4.179" stroke-linecap="round" stroke-linejoin="round"/>
<g opacity="0.1">
<path d="M334.219 357.95C328.575 360.859 325.262 365.803 321.556 370.85C317.85 375.897 314.244 381.031 310.839 386.286C304.086 396.979 298.292 408.247 293.525 419.96C283.251 444.396 275.798 471.308 275.359 497.94C274.934 523.774 282.077 549.233 298.736 569.293C314.527 588.307 338.364 598.557 361.686 604.878C389.105 612.308 423.741 615.478 444.8 592.141C454.172 581.753 439.1 566.441 429.354 576.695C413.838 593.022 390.529 590.302 370.624 585.267C350.5 580.177 329.969 572.601 315.696 556.846C301.886 541.601 295.789 520.046 295.069 499.861C294.217 475.968 299.447 452.352 307.418 429.947C311.705 418.34 316.77 407.036 322.578 396.11C325.441 390.557 328.478 385.085 331.861 379.828C335.371 374.367 339.475 369.556 341.036 363.193C341.252 362.308 341.206 361.379 340.904 360.52C340.602 359.66 340.057 358.907 339.335 358.352C338.612 357.797 337.744 357.463 336.836 357.392C335.928 357.321 335.018 357.516 334.219 357.952V357.95Z" fill="#171717"/>
</g>
<g opacity="0.1">
<path d="M201.4 764.545C203.7 761.474 205.482 758.045 207.751 754.973C210.099 751.792 213.215 749.273 215.487 746.005C219.733 739.89 223.48 734.596 229.759 730.39C236.866 725.631 244.508 725.803 252.783 726.482C262.475 727.282 271.648 728.707 281.383 727.482C317.902 722.896 352.255 700.682 373.228 670.682C379.016 662.225 383.82 653.135 387.548 643.59C391.376 634.09 397.02 621.09 391.903 611.37C388.737 605.356 380.745 605.244 376.148 609.34C372.013 613.024 371.297 617.722 369.982 622.784C368.893 626.971 367.578 631.097 366.044 635.143C363.056 642.824 359.21 650.143 354.58 656.962C345.322 670.821 332.486 681.904 318.249 690.426C303.777 699.09 287.516 704.992 270.516 705.126C260.74 705.201 251.008 703.777 241.292 705.405C232.524 707.045 224.453 711.284 218.124 717.57C212.238 723.33 207.624 731.143 204.279 738.617C202.397 742.817 202.256 746.993 201.669 751.47C201.115 755.7 200.069 759.831 199.824 764.119C199.771 765.041 200.944 765.148 201.396 764.545H201.4Z" fill="#171717"/>
</g>
<g opacity="0.1">
<path d="M475.966 663.805C508.703 688.305 543.19 710.647 577.909 732.224C612.326 753.613 647.395 774.073 683.196 793.062C692.778 798.146 703.568 803.448 714.671 803.24C725.32 803.04 736.271 799.895 742.309 790.591C745.909 785.049 739.922 777.261 733.627 779.298C730.298 780.493 726.868 781.387 723.378 781.967C719.772 782.438 716.472 781.495 713.013 780.592C704.758 778.436 697.55 774.52 690.077 770.487C673.177 761.369 656.418 751.995 639.8 742.365C606.57 723.108 573.944 702.854 541.923 681.604C523.567 669.422 505.523 656.779 487.323 644.376C482.3 640.954 474.848 643.425 471.931 648.412C468.569 654.159 471.087 660.152 475.967 663.805H475.966Z" fill="#171717"/>
</g>
<g opacity="0.1">
<path d="M420.036 339.123C429.969 327.49 435.252 310.91 438.136 296.099C439.769 288.384 440.928 280.575 441.607 272.718C442.101 265.324 442.507 255.39 439.281 248.606C437.417 244.689 430.296 245.427 429.6 249.871C428.507 256.847 430.434 264.753 430.722 271.858C430.876 275.658 431.498 279.21 431.207 283.028C430.907 286.935 430.442 290.822 429.772 294.682C428.49 302.034 426.672 309.281 424.332 316.367C422.014 323.393 418.832 330.076 416.506 337.067C415.857 339.017 418.664 340.72 420.032 339.119L420.036 339.123Z" fill="#171717"/>
</g>
</g>
<defs>
<linearGradient id="paint0_linear_38_4064" x1="478.316" y1="603.919" x2="478.316" y2="833.511" gradientUnits="userSpaceOnUse">
<stop stop-color="#B1E938"/>
<stop offset="1" stop-color="#61BB00"/>
</linearGradient>
<linearGradient id="paint1_linear_38_4064" x1="594.312" y1="356.482" x2="594.312" y2="407.274" gradientUnits="userSpaceOnUse">
<stop stop-color="#B1E938"/>
<stop offset="1" stop-color="#61BB00"/>
</linearGradient>
<linearGradient id="paint2_linear_38_4064" x1="560.236" y1="347.122" x2="560.236" y2="379.636" gradientUnits="userSpaceOnUse">
<stop stop-color="#B1E938"/>
<stop offset="1" stop-color="#61BB00"/>
</linearGradient>
<linearGradient id="paint3_linear_38_4064" x1="523.482" y1="344.993" x2="523.482" y2="367.517" gradientUnits="userSpaceOnUse">
<stop stop-color="#B1E938"/>
<stop offset="1" stop-color="#61BB00"/>
</linearGradient>
<linearGradient id="paint4_linear_38_4064" x1="483.554" y1="345.938" x2="483.554" y2="371.221" gradientUnits="userSpaceOnUse">
<stop stop-color="#B1E938"/>
<stop offset="1" stop-color="#61BB00"/>
</linearGradient>
<linearGradient id="paint5_linear_38_4064" x1="445.907" y1="355.727" x2="445.907" y2="389.217" gradientUnits="userSpaceOnUse">
<stop stop-color="#B1E938"/>
<stop offset="1" stop-color="#61BB00"/>
</linearGradient>
<linearGradient id="paint6_linear_38_4064" x1="415.071" y1="373.228" x2="415.071" y2="412.193" gradientUnits="userSpaceOnUse">
<stop stop-color="#B1E938"/>
<stop offset="1" stop-color="#61BB00"/>
</linearGradient>
<linearGradient id="paint7_linear_38_4064" x1="391.333" y1="395.183" x2="391.333" y2="440.486" gradientUnits="userSpaceOnUse">
<stop stop-color="#B1E938"/>
<stop offset="1" stop-color="#61BB00"/>
</linearGradient>
<linearGradient id="paint8_linear_38_4064" x1="374.37" y1="422.941" x2="374.37" y2="472.86" gradientUnits="userSpaceOnUse">
<stop stop-color="#B1E938"/>
<stop offset="1" stop-color="#61BB00"/>
</linearGradient>
<linearGradient id="paint9_linear_38_4064" x1="364.372" y1="454.055" x2="364.372" y2="508.845" gradientUnits="userSpaceOnUse">
<stop stop-color="#B1E938"/>
<stop offset="1" stop-color="#61BB00"/>
</linearGradient>
<linearGradient id="paint10_linear_38_4064" x1="361.243" y1="491.111" x2="361.243" y2="521.814" gradientUnits="userSpaceOnUse">
<stop stop-color="#B1E938"/>
<stop offset="1" stop-color="#61BB00"/>
</linearGradient>
<linearGradient id="paint11_linear_38_4064" x1="405.896" y1="550.042" x2="405.896" y2="562.423" gradientUnits="userSpaceOnUse">
<stop stop-color="#B1E938"/>
<stop offset="1" stop-color="#61BB00"/>
</linearGradient>
<linearGradient id="paint12_linear_38_4064" x1="318.274" y1="541.138" x2="318.274" y2="568.288" gradientUnits="userSpaceOnUse">
<stop stop-color="#B1E938"/>
<stop offset="1" stop-color="#61BB00"/>
</linearGradient>
<linearGradient id="paint13_linear_38_4064" x1="318.957" y1="469.539" x2="318.957" y2="488.568" gradientUnits="userSpaceOnUse">
<stop stop-color="#B1E938"/>
<stop offset="1" stop-color="#61BB00"/>
</linearGradient>
<linearGradient id="paint14_linear_38_4064" x1="326.055" y1="395.279" x2="326.055" y2="408.381" gradientUnits="userSpaceOnUse">
<stop stop-color="#B1E938"/>
<stop offset="1" stop-color="#61BB00"/>
</linearGradient>
<linearGradient id="paint15_linear_38_4064" x1="384.486" y1="375.602" x2="384.486" y2="388.432" gradientUnits="userSpaceOnUse">
<stop stop-color="#B1E938"/>
<stop offset="1" stop-color="#61BB00"/>
</linearGradient>
<linearGradient id="paint16_linear_38_4064" x1="533.454" y1="328.018" x2="533.454" y2="340.115" gradientUnits="userSpaceOnUse">
<stop stop-color="#B1E938"/>
<stop offset="1" stop-color="#61BB00"/>
</linearGradient>
<linearGradient id="paint17_linear_38_4064" x1="615.044" y1="359.427" x2="615.044" y2="376.906" gradientUnits="userSpaceOnUse">
<stop stop-color="#B1E938"/>
<stop offset="1" stop-color="#61BB00"/>
</linearGradient>
<linearGradient id="paint18_linear_38_4064" x1="652.127" y1="451.195" x2="652.127" y2="480.483" gradientUnits="userSpaceOnUse">
<stop stop-color="#B1E938"/>
<stop offset="1" stop-color="#61BB00"/>
</linearGradient>
<linearGradient id="paint19_linear_38_4064" x1="654.395" y1="404.577" x2="654.395" y2="415.886" gradientUnits="userSpaceOnUse">
<stop stop-color="#B1E938"/>
<stop offset="1" stop-color="#61BB00"/>
</linearGradient>
<linearGradient id="paint20_linear_38_4064" x1="631.04" y1="393.671" x2="631.04" y2="395.234" gradientUnits="userSpaceOnUse">
<stop stop-color="#B1E938"/>
<stop offset="1" stop-color="#61BB00"/>
</linearGradient>
<linearGradient id="paint21_linear_38_4064" x1="575.419" y1="339.645" x2="575.419" y2="347.476" gradientUnits="userSpaceOnUse">
<stop stop-color="#B1E938"/>
<stop offset="1" stop-color="#61BB00"/>
</linearGradient>
<linearGradient id="paint22_linear_38_4064" x1="350.381" y1="376.055" x2="350.381" y2="386.344" gradientUnits="userSpaceOnUse">
<stop stop-color="#B1E938"/>
<stop offset="1" stop-color="#61BB00"/>
</linearGradient>
<linearGradient id="paint23_linear_38_4064" x1="308.758" y1="439.018" x2="308.758" y2="442.958" gradientUnits="userSpaceOnUse">
<stop stop-color="#B1E938"/>
<stop offset="1" stop-color="#61BB00"/>
</linearGradient>
<linearGradient id="paint24_linear_38_4064" x1="308.414" y1="504.405" x2="308.414" y2="510.522" gradientUnits="userSpaceOnUse">
<stop stop-color="#B1E938"/>
<stop offset="1" stop-color="#61BB00"/>
</linearGradient>
<linearGradient id="paint25_linear_38_4064" x1="375.051" y1="550.129" x2="375.051" y2="566.829" gradientUnits="userSpaceOnUse">
<stop stop-color="#B1E938"/>
<stop offset="1" stop-color="#61BB00"/>
</linearGradient>
<linearGradient id="paint26_linear_38_4064" x1="418.631" y1="585.342" x2="418.631" y2="593.956" gradientUnits="userSpaceOnUse">
<stop stop-color="#B1E938"/>
<stop offset="1" stop-color="#61BB00"/>
</linearGradient>
<linearGradient id="paint27_linear_38_4064" x1="634.727" y1="494.061" x2="634.727" y2="505.37" gradientUnits="userSpaceOnUse">
<stop stop-color="#B1E938"/>
<stop offset="1" stop-color="#61BB00"/>
</linearGradient>
<linearGradient id="paint28_linear_38_4064" x1="653.39" y1="407.144" x2="653.39" y2="410.488" gradientUnits="userSpaceOnUse">
<stop stop-color="#B1E938"/>
<stop offset="1" stop-color="#61BB00"/>
</linearGradient>
<linearGradient id="paint29_linear_38_4064" x1="633.269" y1="495.063" x2="633.269" y2="501.463" gradientUnits="userSpaceOnUse">
<stop stop-color="#B1E938"/>
<stop offset="1" stop-color="#61BB00"/>
</linearGradient>
<linearGradient id="paint30_linear_38_4064" x1="631.039" y1="388.35" x2="631.039" y2="399.659" gradientUnits="userSpaceOnUse">
<stop stop-color="#B1E938"/>
<stop offset="1" stop-color="#61BB00"/>
</linearGradient>
<linearGradient id="paint31_linear_38_4064" x1="574.279" y1="340.236" x2="574.279" y2="345.627" gradientUnits="userSpaceOnUse">
<stop stop-color="#B1E938"/>
<stop offset="1" stop-color="#61BB00"/>
</linearGradient>
<linearGradient id="paint32_linear_38_4064" x1="348.541" y1="378.671" x2="348.541" y2="382.122" gradientUnits="userSpaceOnUse">
<stop stop-color="#B1E938"/>
<stop offset="1" stop-color="#61BB00"/>
</linearGradient>
<linearGradient id="paint33_linear_38_4064" x1="307.608" y1="433.17" x2="307.608" y2="446.389" gradientUnits="userSpaceOnUse">
<stop stop-color="#B1E938"/>
<stop offset="1" stop-color="#61BB00"/>
</linearGradient>
<linearGradient id="paint34_linear_38_4064" x1="308.242" y1="502.515" x2="308.242" y2="515.759" gradientUnits="userSpaceOnUse">
<stop stop-color="#B1E938"/>
<stop offset="1" stop-color="#61BB00"/>
</linearGradient>
<linearGradient id="paint35_linear_38_4064" x1="373.627" y1="559.22" x2="373.627" y2="561.062" gradientUnits="userSpaceOnUse">
<stop stop-color="#B1E938"/>
<stop offset="1" stop-color="#61BB00"/>
</linearGradient>
<linearGradient id="paint36_linear_38_4064" x1="417.63" y1="582.621" x2="417.63" y2="594.333" gradientUnits="userSpaceOnUse">
<stop stop-color="#B1E938"/>
<stop offset="1" stop-color="#61BB00"/>
</linearGradient>
<linearGradient id="paint37_linear_38_4064" x1="532.411" y1="156.032" x2="532.411" y2="192.365" gradientUnits="userSpaceOnUse">
<stop stop-color="#B1E938"/>
<stop offset="1" stop-color="#61BB00"/>
</linearGradient>
<linearGradient id="paint38_linear_38_4064" x1="430.532" y1="87.9551" x2="430.532" y2="102.203" gradientUnits="userSpaceOnUse">
<stop stop-color="#B1E938"/>
<stop offset="1" stop-color="#61BB00"/>
</linearGradient>
<linearGradient id="paint39_linear_38_4064" x1="183.475" y1="283.838" x2="183.475" y2="291.397" gradientUnits="userSpaceOnUse">
<stop stop-color="#B1E938"/>
<stop offset="1" stop-color="#61BB00"/>
</linearGradient>
<linearGradient id="paint40_linear_38_4064" x1="183.646" y1="280.023" x2="183.646" y2="292.97" gradientUnits="userSpaceOnUse">
<stop stop-color="#B1E938"/>
<stop offset="1" stop-color="#61BB00"/>
</linearGradient>
<linearGradient id="paint41_linear_38_4064" x1="739.944" y1="488.653" x2="739.944" y2="506.449" gradientUnits="userSpaceOnUse">
<stop stop-color="#B1E938"/>
<stop offset="1" stop-color="#61BB00"/>
</linearGradient>
<linearGradient id="paint42_linear_38_4064" x1="172.223" y1="648.082" x2="172.223" y2="655.641" gradientUnits="userSpaceOnUse">
<stop stop-color="#B1E938"/>
<stop offset="1" stop-color="#61BB00"/>
</linearGradient>
<linearGradient id="paint43_linear_38_4064" x1="172.394" y1="644.269" x2="172.394" y2="657.216" gradientUnits="userSpaceOnUse">
<stop stop-color="#B1E938"/>
<stop offset="1" stop-color="#61BB00"/>
</linearGradient>
<clipPath id="clip0_38_4064">
<rect width="960" height="960" fill="white"/>
</clipPath>
</defs>
</svg>
