<svg width="960" height="960" viewBox="0 0 960 960" fill="none" xmlns="http://www.w3.org/2000/svg">
<g clip-path="url(#clip0_46_129)">
<g clip-path="url(#clip1_46_129)">
<path fill-rule="evenodd" clip-rule="evenodd" d="M492.098 446.088C480.222 449.215 470.292 457.186 461.234 465.479L461.14 465.386C458.715 463.848 456.099 462.538 453.484 461.229C448.472 458.719 443.463 456.21 439.804 452.101C437.925 449.98 436.154 447.511 435.966 444.68C435.778 441.849 437.711 438.709 440.555 438.561C442.233 438.467 443.789 439.393 445.212 440.279C452.614 444.893 460.013 449.5 467.407 454.1C460.466 449.36 454.423 443.424 449.559 436.57C447.881 434.248 446.365 430.88 448.311 428.787C448.883 428.256 449.585 427.887 450.347 427.717C451.109 427.548 451.902 427.583 452.645 427.821C454.124 428.31 455.502 429.065 456.711 430.048C464.025 435.278 471.338 440.502 478.651 445.722C471.01 439.432 463.933 432.485 457.503 424.962C456.507 424.061 455.868 422.833 455.703 421.5C455.689 419.313 458.172 417.904 460.359 417.824C464.827 417.663 468.652 420.816 472.007 423.782C477.719 428.854 483.426 433.927 489.129 438.999L489.478 439.093C493.262 431.244 498.643 425.218 504.95 419.193C505.83 418.215 506.977 417.515 508.25 417.181C513.541 409.213 518.837 401.228 524.139 393.228C518.812 390.416 515.579 384.381 512.58 378.783C512.329 378.316 512.081 377.852 511.833 377.393C496.509 348.985 465.243 328.105 433.52 322.12C428.309 321.141 422.029 319.678 419.52 315.451L419.44 315.491C395.743 333.146 370.844 349.127 344.924 363.317L344.83 363.29C344.414 364.583 343.803 365.805 343.018 366.913C339.171 372.805 334.02 377.725 328.929 382.588L328.929 382.588L328.861 382.653C340.864 376.011 354.04 371.755 367.661 370.12C370.481 369.785 374.292 370.254 374.761 373.045C375.119 375.179 373.146 376.897 371.361 378.104C360.365 385.466 348.253 391.004 335.492 394.504C336.247 394.326 336.995 394.165 337.747 394.004C342.477 392.807 347.401 391.604 352.321 390.402L352.321 390.402L352.322 390.402C357.77 389.071 363.213 387.741 368.382 386.422C371.229 385.694 374.716 385.134 376.729 387.294C378.272 388.942 378.178 391.669 377.051 393.642C375.779 395.535 374.041 397.069 372.005 398.097C362.022 403.854 349.247 405.974 337.653 407.463C347.542 406.541 357.432 405.611 367.322 404.672C370.878 404.338 375.297 404.432 376.997 407.572C378.191 409.786 377.333 412.671 375.615 414.509C373.76 416.227 371.533 417.49 369.107 418.199C354.152 423.637 338.137 425.525 322.328 423.715C322.543 428.76 322.207 433.846 319.591 438.073C315.9 444.018 308.668 446.678 301.824 448.178C281.105 452.713 259.42 450.405 238.741 445.641L238.205 445.515C236.904 445.208 235.596 444.899 234.299 444.568L234.192 444.984C229.173 448.043 223.913 451.412 220.129 455.8C218.114 458.076 216.6 460.751 215.687 463.65C212.883 472.949 217.673 482.705 222.719 491.011C239.227 518.162 260.268 542.811 286.019 561.411C301.189 572.51 317.97 581.222 335.777 587.243C347.86 591.267 360.403 593.746 373.109 594.623C382.155 575.759 393.292 557.97 406.309 541.591L406.001 540.263C408.149 539.777 410.257 539.125 412.305 538.313C422.061 534.462 429.938 527.081 437.453 519.768C438.853 518.404 440.251 517.035 441.649 515.665L441.65 515.665C454.29 503.285 467.011 490.825 482.017 481.51C498.684 471.164 518.852 464.923 538.068 468.923C558.519 473.177 574.582 487.938 589.597 502.847L590.121 502.323C580.749 487.751 575.653 470.842 575.414 453.518C575.387 449.6 575.628 445.413 577.977 442.273C578.255 441.91 578.555 441.565 578.877 441.24L578.836 441.213C572.129 448.258 564.587 449.425 554.536 449.788C545.914 450.097 537.366 448.617 528.837 447.141L528.834 447.141C526.996 446.823 525.16 446.505 523.324 446.205C517.778 445.224 512.167 444.656 506.537 444.505C501.674 444.371 496.816 444.904 492.098 446.088ZM448.091 467.635C448.621 466.998 448.535 466.053 447.899 465.522C447.262 464.992 446.316 465.078 445.786 465.715C442.63 469.504 439.473 473.293 436.315 477.081C435.785 477.718 435.871 478.664 436.507 479.194C437.144 479.724 438.09 479.638 438.62 479.002C441.777 475.213 444.935 471.424 448.091 467.635ZM509.945 390.343C510.604 390.844 510.731 391.785 510.23 392.445C501.51 403.901 492.789 415.359 484.068 426.819C483.566 427.478 482.625 427.605 481.966 427.104C481.306 426.602 481.179 425.661 481.68 425.002C490.402 413.542 499.122 402.084 507.842 390.628C508.344 389.968 509.285 389.841 509.945 390.343ZM388.483 551.831C388.949 551.146 388.772 550.213 388.087 549.747C387.402 549.281 386.469 549.459 386.003 550.144L362.21 585.113C361.744 585.798 361.921 586.731 362.606 587.197C363.291 587.663 364.224 587.486 364.69 586.801L388.483 551.831Z" fill="url(#paint0_linear_46_129)"/>
<path fill-rule="evenodd" clip-rule="evenodd" d="M532.449 346.346C517.594 327.116 486.797 311.107 460.456 303.928C456.052 302.716 451.59 301.731 447.086 300.976C442.173 300.124 437.189 299.76 432.205 299.889C428.619 300.151 425.209 301.542 422.463 303.861C421.222 304.853 420.207 306.097 419.484 307.511C418.539 309.243 418.235 311.252 418.625 313.187C418.804 313.985 419.108 314.75 419.525 315.455C422.038 319.682 428.318 321.145 433.525 322.124C465.247 328.109 496.514 348.989 511.838 377.397C512.082 377.85 512.327 378.308 512.574 378.77C515.572 384.372 518.807 390.417 524.138 393.232C524.983 393.682 525.873 394.042 526.795 394.305C535.41 396.747 541.716 389.085 543.582 380.323C545.438 371.654 541.802 362.905 537.883 354.947C537.828 354.855 537.779 354.761 537.736 354.665C536.254 351.723 534.483 348.936 532.449 346.346ZM535.469 363.957C535.136 363.199 534.251 362.854 533.493 363.187C532.734 363.52 532.39 364.405 532.723 365.164C535.897 372.393 532.375 381.937 525.265 385.368C524.519 385.728 524.206 386.624 524.566 387.37C524.926 388.117 525.823 388.43 526.569 388.069C535.135 383.936 539.293 372.664 535.469 363.957Z" fill="url(#paint1_linear_46_129)"/>
<path fill-rule="evenodd" clip-rule="evenodd" d="M566.197 275.774C567.847 274.258 569.457 272.312 569.283 270.084C569.1 267.749 567.042 266.072 565.147 264.714C563.211 263.182 561.064 261.936 558.773 261.014C557.626 260.557 556.398 260.339 555.163 260.374C553.929 260.408 552.714 260.694 551.594 261.214C549.769 262.273 548.344 263.905 547.541 265.857C546.504 268.043 546.073 270.467 546.293 272.876C546.548 275.197 547.783 278.528 549.728 280.028C552.066 281.813 556.052 281.477 558.628 280.605C561.471 279.562 564.054 277.913 566.197 275.774ZM564.148 267.022C564.195 266.194 563.563 265.485 562.736 265.438C561.909 265.391 561.2 266.023 561.153 266.85C560.99 269.693 559.796 272.38 557.795 274.407C557.213 274.996 557.219 275.946 557.809 276.528C558.398 277.11 559.348 277.104 559.93 276.514C562.443 273.968 563.943 270.593 564.148 267.022Z" fill="url(#paint2_linear_46_129)"/>
<path fill-rule="evenodd" clip-rule="evenodd" d="M743.712 400.021C745.094 425.057 729.241 446.29 708.304 447.446C687.366 448.601 669.273 429.242 667.892 404.206C666.51 379.17 682.363 357.937 703.3 356.782C724.237 355.626 742.33 374.985 743.712 400.021ZM720.319 368.779C719.623 368.33 718.694 368.531 718.245 369.227C717.796 369.923 717.997 370.851 718.693 371.3C724.49 375.04 729.06 380.402 731.833 386.719C734.606 393.035 735.46 400.029 734.289 406.827C734.148 407.644 734.696 408.419 735.512 408.56C736.328 408.701 737.104 408.153 737.245 407.337C738.517 399.958 737.59 392.368 734.58 385.513C731.571 378.657 726.611 372.838 720.319 368.779Z" fill="url(#paint3_linear_46_129)"/>
<path fill-rule="evenodd" clip-rule="evenodd" d="M845.554 305.443C845.742 276.606 826.338 253.096 802.211 252.935C778.084 252.774 758.385 276.043 758.197 304.88C758.009 333.717 777.4 357.24 801.527 357.388C825.654 357.536 845.366 334.28 845.554 305.443ZM819.5 266.038C818.821 265.564 817.886 265.731 817.412 266.411C816.938 267.09 817.105 268.025 817.785 268.499C831.545 278.092 838.323 296.749 833.929 312.938C833.712 313.737 834.184 314.561 834.984 314.778C835.783 314.995 836.607 314.523 836.824 313.723C841.55 296.312 834.3 276.355 819.5 266.038Z" fill="url(#paint4_linear_46_129)"/>
<path d="M836.121 769.379C829.344 772.971 822.251 775.931 814.932 778.222L814.852 777.967C827.345 738.341 843.085 688.503 856.088 647.267C857.188 643.751 858.288 640.289 859.349 636.907C863.388 624.107 867.441 611.277 872.902 599.012C874.702 594.946 876.74 590.853 880.041 587.874C883.342 584.895 888.213 583.258 892.346 584.882C898.935 587.445 900.291 596.074 900.156 603.145C899.579 632.466 890.991 661.129 879.343 688.045C871.319 706.577 861.778 725.068 852.17 743.278C847.849 751.464 843.528 759.578 839.315 767.62C838.08 768.319 836.993 768.909 836.121 769.379Z" fill="url(#paint5_linear_46_129)"/>
<path d="M877.4 385.421C884 387.821 889.276 394.264 889.195 401.295C889.141 407.012 885.8 412.165 882.016 416.459C873.764 425.775 863.038 432.559 851.085 436.024C846.415 437.366 841.343 438.157 836.794 436.507C832.245 434.857 828.528 430.039 829.588 425.307L829.252 425.2C832.132 416.765 836.306 408.829 841.625 401.676C845.825 396.04 850.83 390.834 857.03 387.533C863.23 384.232 870.8 383.019 877.4 385.421Z" fill="#171717"/>
<path d="M868.219 306.705H868.541C868.495 310.361 868.204 314.011 867.669 317.628L867.548 317.615L852.908 317.225L852.344 317.131C852.931 313.56 853.259 309.95 853.324 306.331H853.579L868.219 306.705Z" fill="url(#paint6_linear_46_129)"/>
<path d="M867.991 295.688L867.414 295.755L852.774 295.379L852.707 295.393C852.23 291.721 851.467 288.091 850.426 284.537L850.868 284.402L865.509 284.792L865.67 284.738C866.766 288.312 867.543 291.977 867.991 295.688V295.688Z" fill="url(#paint7_linear_46_129)"/>
<path d="M867.547 317.615L867.668 317.628C867.115 321.385 866.245 325.089 865.068 328.699L864.368 328.457L849.728 328.068L849.62 328.028C850.819 324.474 851.73 320.828 852.345 317.128L852.908 317.222L867.547 317.615Z" fill="url(#paint8_linear_46_129)"/>
<path d="M865.669 284.738L865.508 284.792L850.867 284.402L850.425 284.537C849.473 281.323 848.284 278.183 846.869 275.143L847.392 274.902L861.401 275.264L861.71 275.103C863.327 278.185 864.653 281.41 865.669 284.738Z" fill="url(#paint9_linear_46_129)"/>
<path d="M864.367 328.457L865.067 328.699C863.881 332.329 862.325 335.827 860.424 339.139L845.797 338.763L845.072 338.521C846.889 335.162 848.411 331.651 849.621 328.028L849.729 328.068L864.367 328.457Z" fill="url(#paint10_linear_46_129)"/>
<path d="M853.301 523.408C858.843 526.119 862.735 532.439 861.581 538.508C860.843 542.408 858.213 545.741 855.059 548.156C851.794 550.426 848.266 552.292 844.552 553.712C843.103 554.329 841.64 554.96 840.191 555.577C834.756 557.912 829.335 560.247 823.891 562.577C820.482 564.053 809.385 571.177 806.178 567.743C805.827 567.35 805.582 566.875 805.466 566.361C806.137 563.462 806.804 560.554 807.466 557.638C808.66 554.981 810.029 552.538 810.686 551.224C813.586 545.44 817.286 540.475 821.153 535.324C825.139 530.624 829.782 526.307 835.404 523.784C838.329 522.454 841.491 521.724 844.704 521.637C847.67 521.529 850.619 522.137 853.301 523.408V523.408Z" fill="#171717"/>
<path d="M861.71 275.1L861.401 275.261L847.392 274.899L846.869 275.14C845.33 271.83 843.507 268.661 841.42 265.667L841.528 265.586L855.537 265.962L855.631 265.881C857.971 268.735 860.009 271.825 861.71 275.1V275.1Z" fill="url(#paint11_linear_46_129)"/>
<path d="M845.801 338.763L860.428 339.139C858.62 342.266 856.483 345.19 854.054 347.861L854.04 347.848L839.4 347.458L839.266 347.352C841.448 344.577 843.391 341.623 845.077 338.521L845.801 338.763Z" fill="url(#paint12_linear_46_129)"/>
<path d="M726.285 782.409C727.668 782.637 729.05 782.852 730.405 783.053C740.927 784.664 751.551 785.511 762.195 785.589C769.141 785.658 776.084 785.345 782.995 784.65C784.525 784.489 786.041 784.328 787.571 784.126C796.851 782.987 806.008 781.013 814.932 778.226C822.252 775.935 829.344 772.974 836.121 769.383C836.993 768.913 838.08 768.323 839.315 767.625C845.944 763.814 856.464 756.809 856.464 749.992H856.518C856.961 757.239 857.176 764.53 857.162 771.865H857.122C832.511 792.531 802.815 804.514 770.837 807.694C738.859 810.874 707.191 804.994 678.998 789.565L678.622 789.605C677.777 781.513 677.191 773.355 676.864 765.129C676.918 767.759 680.364 770.013 683.184 771.248C687.246 773.01 691.409 774.529 695.651 775.797C705.701 778.694 715.936 780.903 726.285 782.409V782.409Z" fill="url(#paint13_linear_46_129)"/>
<path d="M857.121 771.861H857.161C857.164 794.859 854.716 817.792 849.861 840.271C844.861 846.971 836.885 851.959 828.538 851.436C816.595 850.698 806.238 839.278 794.548 841.801C786.537 843.532 781.33 851.262 773.99 854.901C764.744 859.477 753.512 856.901 744.24 852.401C734.968 847.901 726.527 841.601 716.74 838.352C706.953 835.103 695.512 835.131 688.708 842.887L688.493 842.941C683.759 825.458 680.456 807.619 678.617 789.6L678.993 789.56C707.186 804.992 738.855 810.86 770.833 807.689C802.811 804.518 832.51 792.527 857.121 771.861Z" fill="#171717"/>
<path d="M855.631 265.885L855.537 265.966L841.528 265.59L841.42 265.671C839.699 263.195 837.788 260.857 835.704 258.679L848.804 259.028L848.844 258.974C851.305 261.074 853.576 263.386 855.631 265.885Z" fill="url(#paint14_linear_46_129)"/>
<path d="M854.035 347.849L854.049 347.862C851.607 350.547 848.88 352.958 845.917 355.055L832.817 354.706L832.589 354.451C835.017 352.286 837.249 349.91 839.258 347.351L839.392 347.458L854.035 347.849Z" fill="url(#paint15_linear_46_129)"/>
<path d="M853.337 305.501C853.365 302.123 853.154 298.748 852.706 295.401L852.773 295.387L867.413 295.763L867.99 295.696C868.406 298.979 868.599 302.286 868.567 305.596C868.567 305.972 868.554 306.348 868.54 306.71H868.218L853.578 306.334H853.323C853.337 306.048 853.337 305.78 853.337 305.501Z" fill="url(#paint16_linear_46_129)"/>
<path d="M835.7 258.678C837.784 260.857 839.695 263.194 841.416 265.67C843.504 268.664 845.327 271.833 846.865 275.143C848.28 278.182 849.469 281.322 850.421 284.537C852.4 291.346 853.381 298.406 853.333 305.497C853.333 305.779 853.333 306.047 853.319 306.329C853.255 309.948 852.927 313.557 852.34 317.129C851.725 320.829 850.814 324.475 849.615 328.029C848.405 331.651 846.883 335.162 845.066 338.522C843.382 341.624 841.438 344.578 839.256 347.352C837.247 349.911 835.016 352.287 832.587 354.452C830.239 356.568 827.694 358.456 824.987 360.088C819.063 363.725 812.373 365.935 805.448 366.542C804.123 366.664 802.793 366.717 801.463 366.703C773.042 366.515 750.176 338.819 750.39 304.828C750.604 270.837 773.833 243.436 802.268 243.628C803.597 243.641 804.925 243.709 806.24 243.828C814.259 244.661 821.913 247.606 828.422 252.363C831.035 254.242 833.471 256.356 835.7 258.678V258.678ZM845.549 305.443C845.737 276.606 826.333 253.096 802.206 252.935C778.079 252.774 758.384 276.029 758.2 304.88C758.016 333.731 777.416 357.227 801.53 357.388C825.644 357.549 845.366 334.294 845.553 305.443H845.549Z" fill="url(#paint17_linear_46_129)"/>
<path d="M848.842 258.973L848.802 259.027L835.702 258.678C833.474 256.355 831.04 254.24 828.429 252.358L828.576 252.158L839.043 252.426L839.151 252.226C842.6 254.143 845.847 256.404 848.842 258.973V258.973Z" fill="url(#paint18_linear_46_129)"/>
<path d="M832.819 354.705L845.919 355.054C842.892 357.209 839.66 359.061 836.27 360.582L836.23 360.488L825.066 360.206L824.998 360.086C827.705 358.454 830.25 356.567 832.598 354.45L832.819 354.705Z" fill="url(#paint19_linear_46_129)"/>
<path d="M849.861 840.271C848.439 846.804 846.784 853.268 844.896 859.662L844.534 859.555C840.696 863.929 834 864.922 828.243 864.077C822.486 863.232 817.132 860.735 811.63 858.83C806.128 856.925 800.13 855.583 794.53 857.179C789.63 858.579 785.647 862.024 781.259 864.6C776.213 867.518 770.599 869.318 764.797 869.876C758.995 870.434 753.141 869.737 747.631 867.834C741.217 865.566 735.513 861.734 729.703 858.186C723.893 854.638 717.774 851.329 711.051 850.286C704.328 849.243 696.851 850.863 692.331 855.935C690.949 851.615 689.67 847.285 688.493 842.946L688.708 842.892C695.508 835.136 706.958 835.109 716.74 838.357C726.522 841.605 734.963 847.924 744.24 852.406C753.517 856.888 764.74 859.478 773.99 854.906C781.33 851.27 786.536 843.54 794.548 841.806C806.236 839.283 816.595 850.706 828.538 851.441C836.885 851.959 844.856 846.968 849.861 840.271Z" fill="url(#paint20_linear_46_129)"/>
<path d="M844.535 859.555L844.897 859.662C843.77 863.527 842.535 867.351 841.234 871.149C838.751 878.355 835.759 885.802 829.868 890.649C823.816 895.614 815.668 897.036 807.901 898.069C787.439 900.88 766.778 901.98 746.133 901.357C734.673 900.957 722.583 899.72 713.283 893.01C703.474 885.952 698.483 874.103 694.564 862.683C693.799 860.429 693.048 858.183 692.336 855.934C696.859 850.861 704.346 849.251 711.056 850.284C717.766 851.317 723.911 854.659 729.708 858.184C735.505 861.709 741.222 865.564 747.636 867.832C753.145 869.736 759 870.432 764.802 869.874C770.604 869.316 776.218 867.517 781.264 864.598C785.652 862.022 789.638 858.573 794.536 857.178C800.136 855.578 806.143 856.909 811.636 858.828C817.129 860.747 822.492 863.243 828.249 864.075C834.006 864.907 840.701 863.929 844.535 859.555Z" fill="#171717"/>
<path d="M839.153 252.224L839.045 252.424L828.578 252.156L828.431 252.356C821.922 247.6 814.268 244.654 806.249 243.821L806.276 243.647C817.778 243.729 829.077 246.677 839.153 252.224V252.224Z" fill="url(#paint21_linear_46_129)"/>
<path d="M826.62 422.123C826.634 426.335 826.562 430.549 826.406 434.763C825.659 435.948 824.526 436.84 823.198 437.286C819.978 438.44 816.408 437.649 813.174 436.562C804.033 433.33 795.896 427.767 789.567 420.424C783.238 413.08 778.937 404.211 777.091 394.694C776.353 390.628 776.098 386.361 777.332 382.416C778.566 378.471 781.532 374.888 785.518 373.774C791.248 372.174 797.045 375.894 801.46 379.907C810.142 387.853 817.008 397.579 821.588 408.422C823.599 412.859 825.281 417.438 826.62 422.123V422.123Z" fill="#171717"/>
<path d="M836.267 360.582C826.554 364.797 816.054 366.892 805.467 366.728L805.453 366.54C812.381 365.934 819.073 363.724 825 360.086L825.068 360.206L836.232 360.488L836.267 360.582Z" fill="url(#paint22_linear_46_129)"/>
<path d="M804.518 559.762C804.599 562.284 805.431 567.746 804.196 569.987C802.143 573.744 793.528 566.981 790.737 565.008C781.63 558.553 774.364 549.835 769.656 539.714C767.012 533.984 765.227 527.556 766.475 521.356C767.723 515.156 772.688 509.413 778.982 508.903C783.692 508.528 788.282 511.091 791.382 514.647C794.482 518.203 796.334 522.685 797.917 527.14C800.546 534.404 802.451 541.911 803.607 549.55C804.099 552.934 804.403 556.343 804.518 559.762V559.762Z" fill="#171717"/>
<path d="M792.778 609.693C793.684 612.78 793.899 616.028 793.408 619.207C793.008 621.059 792.603 622.924 792.227 624.776C792.214 624.803 792.214 624.829 792.2 624.843C790.097 631.64 786.339 637.809 781.264 642.796C776.188 647.782 769.954 651.43 763.121 653.412C757.968 654.848 746.697 656.807 746.79 648.702C746.79 648.302 746.817 647.902 746.844 647.494C747.354 641.321 750.95 633.494 753.326 628.171C756.652 620.704 761.288 613.892 767.013 608.056C771.696 603.292 778.298 598.971 784.672 600.984C788.601 602.218 791.53 605.761 792.778 609.693Z" fill="url(#paint23_linear_46_129)"/>
<path d="M763.7 399.86C763.849 403.037 763.786 406.219 763.512 409.387L763.418 409.374L750.697 409.83L750.197 409.776C750.523 406.643 750.613 403.49 750.465 400.343L750.694 400.329L763.415 399.873L763.7 399.86Z" fill="url(#paint24_linear_46_129)"/>
<path d="M763.417 409.374L763.511 409.387C763.24 412.671 762.688 415.926 761.86 419.116L761.243 418.955L748.522 419.398L748.428 419.371C749.27 416.224 749.862 413.016 750.199 409.776L750.699 409.83L763.417 409.374Z" fill="url(#paint25_linear_46_129)"/>
<path d="M762.637 390.332L762.127 390.426L749.406 390.882L749.353 390.896C748.744 387.738 747.887 384.633 746.79 381.61L747.165 381.462L759.887 381.006L760.034 380.952C761.175 383.996 762.047 387.135 762.637 390.332V390.332Z" fill="url(#paint26_linear_46_129)"/>
<path d="M768.327 491.632C766.811 492.411 760.906 496.087 759.269 495.255C757.243 494.222 758.625 488.063 758.813 486.184C760.304 471.992 765.455 458.43 773.762 446.826C776.07 443.619 779.183 440.291 783.142 440.345C788.013 440.399 791.26 445.538 792.28 450.302C794.467 460.402 790.911 471.222 784.309 479.166C779.87 484.35 774.436 488.589 768.327 491.632Z" fill="url(#paint27_linear_46_129)"/>
<path d="M761.243 418.955L761.86 419.116C761.024 422.338 759.855 425.463 758.371 428.442L745.677 428.898L745.086 428.617C746.455 425.633 747.573 422.541 748.428 419.371L748.522 419.398L761.243 418.955Z" fill="url(#paint28_linear_46_129)"/>
<path d="M760.034 380.953L759.887 381.007L747.165 381.463L746.79 381.611C745.792 378.87 744.595 376.205 743.207 373.64L743.636 373.398L755.821 372.969L756.076 372.808C757.642 375.396 758.967 378.122 760.034 380.953Z" fill="url(#paint29_linear_46_129)"/>
<path d="M745.677 428.9L758.371 428.444C756.988 431.254 755.296 433.901 753.326 436.335L740.591 436.791L740.47 436.697C742.235 434.141 743.78 431.438 745.086 428.619L745.677 428.9Z" fill="url(#paint30_linear_46_129)"/>
<path d="M758.343 495.752C758.41 497.805 754.573 499.052 752.721 499.885C742.688 504.332 731.351 504.844 720.958 501.321C714.208 498.959 707.364 493.721 707.271 486.573C707.19 481.581 710.625 476.992 714.986 474.573C722.823 470.225 732.928 472.13 740.456 476.988C745.234 480.265 749.475 484.262 753.029 488.837C754.143 490.2 758.29 494.048 758.343 495.752Z" fill="url(#paint31_linear_46_129)"/>
<path d="M756.076 372.808L755.822 372.969L743.637 373.398L743.208 373.64C741.691 370.852 739.94 368.199 737.974 365.709L738.055 365.642L750.226 365.199L750.293 365.132C752.481 367.483 754.419 370.056 756.076 372.808V372.808Z" fill="url(#paint32_linear_46_129)"/>
<path d="M740.591 436.789L753.326 436.333C751.356 438.791 749.129 441.031 746.683 443.015L735.277 443.415L735.062 443.2C737.052 441.194 738.862 439.016 740.47 436.692L740.591 436.789Z" fill="url(#paint33_linear_46_129)"/>
<path d="M763.657 398.893L763.698 399.86L763.417 399.873L750.695 400.329L750.466 400.343C750.466 400.101 750.453 399.86 750.44 399.618C750.279 396.689 749.916 393.775 749.354 390.896L749.406 390.882L762.128 390.426L762.638 390.332C763.167 393.16 763.507 396.02 763.657 398.893Z" fill="url(#paint34_linear_46_129)"/>
<path d="M732.62 359.951C734.55 361.729 736.34 363.654 737.974 365.708C739.94 368.198 741.691 370.852 743.208 373.639C744.595 376.205 745.793 378.869 746.791 381.61C747.888 384.633 748.745 387.738 749.354 390.896C749.916 393.775 750.279 396.689 750.44 399.618C750.454 399.86 750.467 400.101 750.467 400.343C750.614 403.49 750.525 406.643 750.199 409.776C749.862 413.016 749.27 416.224 748.428 419.371C747.572 422.54 746.455 425.633 745.086 428.617C743.78 431.436 742.235 434.138 740.47 436.695C738.862 439.019 737.053 441.197 735.062 443.203C733.14 445.164 731.038 446.938 728.782 448.503C723.833 451.975 718.146 454.253 712.169 455.158C711.042 455.319 709.888 455.44 708.721 455.507C684.043 456.863 662.734 434.064 661.097 404.555C659.46 375.046 678.152 350.034 702.816 348.679C703.969 348.61 705.125 348.601 706.279 348.652C713.28 348.932 720.079 351.072 725.979 354.852C728.342 356.348 730.565 358.054 732.62 359.951V359.951ZM708.278 447.417C729.212 446.263 745.059 425.034 743.678 399.994C742.297 374.954 724.207 355.604 703.26 356.758C682.313 357.912 666.479 379.158 667.86 404.181C669.241 429.204 687.331 448.584 708.278 447.417V447.417Z" fill="url(#paint35_linear_46_129)"/>
<path d="M750.292 365.131L750.225 365.198L738.054 365.641L737.973 365.708C736.34 363.654 734.55 361.729 732.619 359.951L744.012 359.551L744.052 359.497C746.295 361.187 748.383 363.072 750.292 365.131V365.131Z" fill="url(#paint36_linear_46_129)"/>
<path d="M743.663 632.129C744.696 636.41 746.763 644.247 744.563 648.42C739.705 657.652 720.784 647.266 715.819 642.92C707.862 635.929 703.019 625.985 700.186 615.787C698.737 610.54 697.945 604.354 701.367 600.127C703.944 596.933 708.439 595.727 712.505 596.289C716.571 596.851 720.274 598.933 723.589 601.375C728.984 605.38 733.55 610.393 737.035 616.136C740.07 621.087 742.307 626.484 743.663 632.129Z" fill="url(#paint37_linear_46_129)"/>
<path d="M744.053 359.5L744.013 359.554L732.62 359.954C730.564 358.057 728.341 356.35 725.978 354.854L726.098 354.666L735.198 354.344L735.278 354.17C738.375 355.646 741.315 357.432 744.053 359.5V359.5Z" fill="url(#paint38_linear_46_129)"/>
<path d="M738.55 448.25L728.835 448.598L728.781 448.505C731.037 446.94 733.14 445.165 735.061 443.205L735.276 443.42L746.682 443.02C744.168 445.054 741.457 446.834 738.59 448.334L738.55 448.25Z" fill="url(#paint39_linear_46_129)"/>
<path d="M738.55 448.249L738.591 448.329C730.388 452.509 721.388 454.893 712.191 455.32L712.165 455.159C718.142 454.254 723.828 451.976 728.777 448.504L728.831 448.597L738.55 448.249Z" fill="url(#paint40_linear_46_129)"/>
<path d="M725.977 354.852C720.078 351.073 713.278 348.933 706.277 348.652L706.29 348.491C716.273 347.951 726.234 349.902 735.275 354.167L735.195 354.341L726.095 354.663L725.977 354.852Z" fill="url(#paint41_linear_46_129)"/>
<path d="M726.285 782.409C715.935 780.902 705.7 778.692 695.65 775.793L695.85 775.109C695.234 769.071 694.361 763.068 693.233 757.1C688.016 729.395 677.554 702.942 662.41 679.163C650.856 661.047 636.082 643.106 635.33 621.636C635.062 614.054 637.625 605.17 644.764 602.554C648.884 601.037 653.634 602.097 657.378 604.392C661.122 606.687 664.087 610.082 666.825 613.517C685.678 637.117 698.346 665.18 707.176 694.058C713 713.1 717.227 732.571 720.917 752.158C722.8 762.227 724.541 772.318 726.285 782.409Z" fill="#171717"/>
<path d="M537.736 354.665C536.254 351.723 534.483 348.936 532.449 346.346L533.777 346.024C539.869 337.905 545.935 329.478 548.86 319.749C551.785 310.02 551.088 298.641 544.593 290.831C537.521 282.324 525.417 279.895 514.36 280.324C494.076 281.181 474.847 289.6 460.46 303.924C456.058 302.713 451.596 301.728 447.094 300.972L447.148 300.663C461.748 287.671 479.159 278.237 498.016 273.101C508.268 270.31 519.083 268.833 529.537 270.766C539.991 272.699 550.068 278.361 555.637 287.405C562.137 297.939 561.702 311.613 557.475 323.234C553.248 334.855 545.666 344.934 538.192 354.796L537.883 354.943C537.829 354.853 537.78 354.76 537.736 354.665V354.665Z" fill="url(#paint42_linear_46_129)"/>
<path d="M333.779 84.6615C339.533 84.5764 345.209 86.0007 350.241 88.7924C355.272 91.5841 359.485 95.6458 362.458 100.573C365.431 105.499 367.061 111.119 367.185 116.872C367.31 122.625 365.925 128.311 363.167 133.361C360.577 138.098 355.625 142.567 350.405 141.238C354.361 145.943 357.092 151.551 358.358 157.565C359.624 163.579 359.385 169.813 357.661 175.713C355.938 181.612 352.784 186.994 348.48 191.381C344.175 195.768 338.854 199.024 332.988 200.859C331.952 201.198 330.899 201.485 329.834 201.718C326.488 202.453 323.052 202.702 319.634 202.456C314.033 202.081 308.579 200.492 303.652 197.799C300.535 196.109 297.686 193.966 295.198 191.439C298.029 189.157 301.198 187.212 304.081 184.957C315.702 175.832 322.25 161.447 324.827 146.887C327.404 132.327 326.37 117.406 325.35 102.658L324.85 102.35C320.036 110.492 313.099 117.171 304.781 121.674C296.463 126.177 287.077 128.333 277.628 127.913C280.017 145.935 281.453 165.728 271.335 180.797C268.378 185.106 264.744 188.908 260.573 192.056C255.111 196.337 248.898 199.866 242.712 203.395C239.599 205.166 236.485 206.951 233.48 208.816C215.126 220.247 199.842 235.987 188.955 254.669C185.265 261.016 181.964 267.82 177.955 273.969C174.752 279.151 170.589 283.674 165.69 287.294C160.246 291.107 153.817 293.266 147.175 293.513C140.534 293.759 133.962 292.082 128.25 288.684C122.539 285.285 117.93 280.309 114.978 274.354C112.027 268.4 110.858 261.719 111.611 255.115C112.966 243.215 123.272 231.363 135.094 233.215C133.99 229.011 134.012 224.59 135.159 220.398C136.306 216.205 138.537 212.388 141.628 209.332C144.718 206.275 148.559 204.086 152.765 202.986C156.97 201.886 161.391 201.912 165.582 203.063C162.456 192.904 159.92 181.793 163.596 171.81C167.272 161.827 179.565 154.419 188.864 159.585C185.147 151.292 182.947 142.046 184.423 133.069C185.899 124.092 191.535 115.517 199.962 112.135C208.389 108.753 219.393 111.746 223.646 119.771C220.573 106.571 224.746 91.2155 235.885 83.4865C247.024 75.7575 264.856 78.4805 271.203 90.4645C271.503 75.1535 284.461 61.1035 299.703 59.5735C314.945 58.0435 330.446 69.2485 333.774 84.2105V84.6675L333.779 84.6615Z" fill="#171717"/>
<path d="M306.5 825.725C318.417 829.04 331.661 833.696 340.934 841.882C346.999 847.236 351.293 855.167 351.87 863.057C348.314 871.887 337.297 877.093 327.864 878.457C318.403 879.812 308.97 876.914 299.455 875.881C282.762 874.069 267.183 873.465 247.455 867.239L247.066 867.427C243.266 859.013 243.979 848.519 245.335 838.817L245.402 838.562C253.225 840.602 262.402 840.24 270.562 839.408C283.646 838.079 298.34 835.865 306.378 825.626L306.5 825.725Z" fill="url(#paint43_linear_46_129)"/>
<path d="M308.969 625.326L309.036 625.379C317.396 683.652 318.913 742.703 313.558 801.329C312.847 809.461 311.84 818.009 307.103 824.665C306.875 824.987 306.634 825.309 306.379 825.631C298.341 835.87 283.647 838.084 270.563 839.413C262.405 840.245 253.226 840.607 245.403 838.567C239.337 836.967 234.077 833.938 230.722 828.543C227.582 823.484 226.911 817.325 226.307 811.407C223.141 780.463 219.571 749.407 214.982 718.561C209.158 679.216 201.697 640.167 191.364 601.977C183.505 572.495 173.637 543.585 161.829 515.451C156.314 502.451 150.289 489.485 147.565 475.623C146.02 468.098 145.85 460.356 147.065 452.771C148.085 446.531 150.364 440.563 153.765 435.232V435.165C177.117 436.975 199.765 444 220.042 455.723L220.136 455.803C218.121 458.08 216.608 460.754 215.694 463.654C212.889 472.954 217.68 482.709 222.726 491.015C239.226 518.162 260.272 542.815 286.026 561.415C301.197 572.514 317.977 581.226 335.784 587.247C327.564 600.431 318.612 613.144 308.969 625.326V625.326Z" fill="#171717"/>
<path d="M319.637 202.454V202.507C314.707 218.465 308.048 233.836 299.777 248.347C297.321 252.654 294.53 257.082 290.142 259.417C282.225 263.617 272.388 259.404 265.464 253.728C258.123 247.596 252.263 239.883 248.324 231.166C244.385 222.45 242.469 212.955 242.719 203.393C248.905 199.864 255.119 196.335 260.58 192.054L260.62 192.108C259.084 203.877 260.667 215.843 265.209 226.808C266.483 230.25 268.446 233.397 270.979 236.054C273.623 238.577 277.313 240.227 280.936 239.69C285.002 239.09 288.196 235.946 290.746 232.712C298.599 222.714 303.115 210.503 303.655 197.801C308.582 200.491 314.035 202.079 319.637 202.454V202.454Z" fill="url(#paint44_linear_46_129)"/>
<path d="M214.981 718.562L214.122 718.683C193.51 735.201 172.161 750.754 150.449 765.801C139.849 773.155 128.777 782.655 116.257 786.439C110.27 788.332 103.794 787.945 98.0744 785.353C92.6134 782.953 87.7824 778.804 83.6364 773.839C75.0114 763.411 68.6377 751.311 64.9164 738.301C63.0644 731.82 62.6754 725.889 64.2994 720.763C65.9364 715.543 69.6404 711.155 75.9874 707.854C98.4234 696.179 119.437 683.74 138.466 666.885C159.481 648.291 177.305 626.378 191.229 602.018L191.363 601.978C201.7 640.168 209.157 679.218 214.981 718.562Z" fill="#171717"/>
<path d="M64.3008 720.762C62.6768 725.888 63.0658 731.819 64.9178 738.3C68.6396 751.309 75.0132 763.408 83.6378 773.834C87.7838 778.799 92.6148 782.945 98.0758 785.347L98.0358 786.018C98.2358 787.897 98.3978 789.856 98.5188 791.856C99.0188 800.779 98.4918 810.615 95.4868 818.492C94.045 822.296 92.0608 825.871 89.5958 829.107C81.8658 829.16 74.0158 829.201 66.5818 827.054C59.1478 824.907 52.0628 820.254 48.8418 813.205C46.1308 807.287 46.4268 800.497 46.7758 794.016C47.9828 771.566 49.1638 749.733 50.3578 727.283L50.2108 727.149C53.7668 723.177 58.4108 720.56 63.7908 720.601L64.3008 720.762Z" fill="url(#paint45_linear_46_129)"/>
<path d="M290.047 210.88C286.209 206.787 287.537 199.88 291.053 195.502C292.285 194.001 293.676 192.638 295.2 191.436C298.031 189.154 301.2 187.209 304.083 184.954C315.704 175.829 322.252 161.444 324.829 146.885C327.406 132.326 326.372 117.403 325.352 102.655" stroke="#171717" stroke-width="3" stroke-linecap="round" stroke-linejoin="round"/>
<path d="M326.962 98.415C326.318 99.757 325.607 101.072 324.856 102.347C320.042 110.488 313.104 117.168 304.787 121.67C296.469 126.173 287.083 128.33 277.634 127.91C275.535 127.816 273.442 127.601 271.367 127.266" stroke="#171717" stroke-width="3" stroke-linecap="round" stroke-linejoin="round"/>
<path d="M295.2 191.436C295.347 191.583 295.052 191.301 295.2 191.436C297.688 193.962 300.537 196.106 303.654 197.796C308.581 200.488 314.034 202.077 319.636 202.453C323.054 202.698 326.489 202.45 329.836 201.715C330.901 201.481 331.954 201.195 332.99 200.856C338.856 199.021 344.177 195.765 348.481 191.378C352.785 186.991 355.939 181.608 357.663 175.709C359.386 169.81 359.626 163.576 358.36 157.562C357.094 151.548 354.362 145.939 350.407 141.235C355.627 142.564 360.579 138.095 363.169 133.358C365.926 128.307 367.312 122.622 367.187 116.869C367.063 111.116 365.432 105.496 362.459 100.569C359.486 95.6422 355.274 91.5806 350.242 88.7889C345.21 85.9971 339.535 84.5728 333.781 84.6579C333.204 84.6709 332.627 84.6839 332.05 84.7249" stroke="#171717" stroke-width="3" stroke-linecap="round" stroke-linejoin="round"/>
<path d="M333.779 84.2004C330.451 69.2384 314.952 58.0474 299.708 59.5634C284.464 61.0794 271.502 75.1424 271.208 90.4544C264.86 78.4704 247.026 75.7464 235.889 83.4764C224.752 91.2064 220.578 106.556 223.651 119.761C219.397 111.736 208.407 108.73 199.966 112.125C191.525 115.52 185.9 124.1 184.426 133.063C182.952 142.026 185.15 151.286 188.867 159.579C179.567 154.413 167.267 161.82 163.6 171.804C159.933 181.788 162.459 192.898 165.586 203.056C161.395 201.906 156.974 201.88 152.769 202.981C148.564 204.081 144.723 206.27 141.633 209.327C138.543 212.383 136.312 216.2 135.165 220.392C134.018 224.585 133.996 229.005 135.1 233.209C123.277 231.357 112.972 243.209 111.616 255.109C110.862 261.713 112.032 268.393 114.983 274.348C117.935 280.303 122.544 285.279 128.255 288.678C133.967 292.076 140.538 293.753 147.18 293.507C153.822 293.26 160.251 291.101 165.695 287.288C170.594 283.667 174.757 279.145 177.96 273.963C181.972 267.817 185.273 261.013 188.96 254.663C199.846 235.981 215.131 220.241 233.485 208.81C236.491 206.945 239.604 205.16 242.717 203.389C248.903 199.86 255.117 196.331 260.578 192.05C264.749 188.902 268.383 185.1 271.34 180.791C281.458 165.722 280.022 145.929 277.633 127.907C277.631 127.831 277.622 127.754 277.606 127.679" stroke="#171717" stroke-width="3" stroke-linecap="round" stroke-linejoin="round"/>
<path d="M285.364 134.606C286.512 133.329 288.071 132.494 289.771 132.249C291.471 132.004 293.202 132.363 294.664 133.264" stroke="#171717" stroke-width="2" stroke-linecap="round" stroke-linejoin="round"/>
<path d="M307.814 135.223C309.173 134.361 310.802 134.031 312.389 134.296C313.976 134.561 315.409 135.403 316.414 136.659" stroke="#171717" stroke-width="2" stroke-linecap="round" stroke-linejoin="round"/>
<path d="M306.74 126.972C309.036 125.528 311.753 124.906 314.449 125.205C317.144 125.505 319.658 126.709 321.581 128.622" stroke="#171717" stroke-width="2" stroke-linecap="round" stroke-linejoin="round"/>
<path d="M302.218 140.31C301.574 142.11 302.634 144.054 303.828 145.544C305.022 147.034 306.485 148.496 306.753 150.401C307.021 152.306 305.237 154.521 303.466 153.796" stroke="#171717" stroke-width="2" stroke-linecap="round" stroke-linejoin="round"/>
<path d="M284.277 163.2C284.394 164.427 284.799 165.609 285.46 166.649C286.122 167.689 287.02 168.558 288.082 169.184C289.144 169.809 290.339 170.175 291.569 170.25C292.799 170.324 294.03 170.107 295.159 169.614" stroke="#171717" stroke-width="2" stroke-linecap="round" stroke-linejoin="round"/>
<path d="M260.619 192.107C259.084 203.876 260.666 215.842 265.208 226.807C266.482 230.25 268.446 233.396 270.978 236.053C273.622 238.576 277.312 240.226 280.935 239.689C285.001 239.089 288.195 235.945 290.745 232.711C298.599 222.714 303.114 210.502 303.654 197.8C303.667 197.639 303.68 197.478 303.68 197.317" stroke="#171717" stroke-width="3" stroke-linecap="round" stroke-linejoin="round"/>
<path d="M242.746 202.534C242.732 202.816 242.719 203.111 242.719 203.393C242.469 212.955 244.385 222.45 248.324 231.166C252.263 239.883 258.123 247.596 265.464 253.728C272.388 259.404 282.224 263.617 290.142 259.417C294.53 257.082 297.321 252.654 299.777 248.347C308.048 233.836 314.707 218.465 319.637 202.507" stroke="#171717" stroke-width="3" stroke-linecap="round" stroke-linejoin="round"/>
<path d="M178.079 274.043C167.518 297.643 156.796 322.15 156.232 348.009C155.927 359.937 157.572 371.836 161.104 383.233C165.304 396.612 172.304 408.958 182.386 418.687C196.463 432.28 215.249 439.768 234.304 444.572C235.78 444.948 237.27 445.296 238.746 445.645C259.425 450.409 281.11 452.717 301.829 448.182C308.672 446.682 315.905 444.022 319.595 438.077C322.212 433.85 322.548 428.764 322.333 423.719C322.266 422.229 322.145 420.74 322.024 419.29C321.206 409.508 320.392 399.735 319.582 389.97C319.431 386.781 318.872 383.624 317.918 380.577C317.297 378.703 316.249 376.999 314.858 375.598C311.638 372.391 306.847 371.519 302.352 370.942C287.189 368.996 271.743 368.795 256.915 365.131C242.087 361.467 227.407 353.671 219.771 340.431C213.771 330.031 212.78 317.337 214.632 305.474C216.484 293.611 220.993 282.34 225.461 271.202" stroke="#171717" stroke-width="3" stroke-linecap="round" stroke-linejoin="round"/>
<path d="M332.465 200.682C332.64 200.736 332.814 200.79 332.989 200.857C356.142 208.425 376.619 222.513 391.962 241.432C407.305 260.35 416.863 283.294 419.489 307.511C419.515 307.753 419.542 308.011 419.569 308.249" stroke="#171717" stroke-width="3" stroke-linecap="round" stroke-linejoin="round"/>
<path d="M339.886 279.827C353.439 300.236 363.881 322.546 370.87 346.027" stroke="#171717" stroke-width="3" stroke-linecap="round" stroke-linejoin="round"/>
<path d="M317.879 380.657L317.919 380.576C322.438 372.142 328.799 364.836 336.531 359.2C338.41 357.845 340.852 356.53 342.931 357.563C343.694 358.018 344.305 358.69 344.687 359.492C345.069 360.295 345.205 361.192 345.078 362.072C345.038 362.486 344.957 362.895 344.837 363.293C344.421 364.586 343.81 365.808 343.025 366.916C339.16 372.834 333.981 377.772 328.868 382.656C340.869 376.014 354.043 371.758 367.662 370.123C370.48 369.788 374.291 370.257 374.762 373.048C375.124 375.182 373.152 376.9 371.362 378.107C360.366 385.469 348.254 391.007 335.493 394.507C336.244 394.333 336.993 394.172 337.747 394.007C337.882 393.98 338.029 393.94 338.163 393.913" stroke="#171717" stroke-width="3" stroke-linecap="round" stroke-linejoin="round"/>
<path d="M335.726 394.519C336.397 394.344 337.068 394.17 337.752 394.009C347.723 391.486 358.552 388.937 368.388 386.427C371.233 385.703 374.722 385.139 376.735 387.299C378.278 388.95 378.184 391.674 377.057 393.647C375.785 395.54 374.047 397.074 372.011 398.102C362.027 403.859 349.252 405.979 337.658 407.468C337.001 407.562 336.33 407.643 335.672 407.723" stroke="#171717" stroke-width="3" stroke-linecap="round" stroke-linejoin="round"/>
<path d="M335.35 407.683C336.115 407.616 336.894 407.535 337.658 407.468C347.562 406.529 357.452 405.598 367.328 404.677C370.884 404.342 375.299 404.436 377.003 407.577C378.197 409.791 377.338 412.677 375.621 414.514C373.767 416.232 371.539 417.495 369.113 418.204C354.158 423.642 338.144 425.53 322.334 423.72C322.239 423.718 322.145 423.709 322.052 423.693" stroke="#171717" stroke-width="3" stroke-linecap="round" stroke-linejoin="round"/>
<path d="M344.931 363.32C370.851 349.13 395.75 333.149 419.447 315.494" stroke="#171717" stroke-width="3" stroke-linecap="round" stroke-linejoin="round"/>
<path d="M447.089 300.976C442.177 300.124 437.192 299.76 432.208 299.889C428.623 300.151 425.213 301.542 422.466 303.861C421.226 304.853 420.211 306.097 419.487 307.511C418.543 309.243 418.238 311.252 418.628 313.187C418.808 313.985 419.112 314.75 419.528 315.455C422.037 319.682 428.317 321.145 433.528 322.124C465.25 328.109 496.517 348.989 511.841 377.397C515.062 383.355 518.376 390.186 524.141 393.232C524.988 393.68 525.879 394.039 526.8 394.301C535.415 396.743 541.722 389.081 543.587 380.318C545.439 371.65 541.803 362.901 537.887 354.943C537.833 354.851 537.784 354.757 537.74 354.661C536.258 351.719 534.487 348.932 532.453 346.342C517.598 327.112 486.801 311.103 460.46 303.924C456.057 302.714 451.594 301.73 447.089 300.976V300.976Z" stroke="#171717" stroke-width="3" stroke-linecap="round" stroke-linejoin="round"/>
<path d="M506.563 443.271C510.397 437.023 512.336 429.798 512.145 422.471C512.091 420.337 511.445 417.72 509.38 417.224C509.011 417.137 508.628 417.123 508.253 417.184C506.981 417.518 505.833 418.217 504.953 419.196C498.646 425.222 493.265 431.247 489.481 439.096" stroke="#171717" stroke-width="3" stroke-linecap="round" stroke-linejoin="round"/>
<path d="M489.131 439C483.428 433.928 477.721 428.855 472.008 423.783C468.654 420.817 464.829 417.664 460.361 417.825C458.173 417.905 455.691 419.314 455.704 421.501C455.869 422.834 456.508 424.063 457.504 424.964C463.935 432.487 471.011 439.433 478.652 445.723" stroke="#171717" stroke-width="3" stroke-linecap="round" stroke-linejoin="round"/>
<path d="M478.652 445.726C471.339 440.506 464.026 435.282 456.712 430.052C455.503 429.069 454.125 428.315 452.646 427.825C451.903 427.588 451.109 427.552 450.348 427.722C449.586 427.891 448.884 428.261 448.312 428.791C446.366 430.884 447.882 434.253 449.56 436.574C454.424 443.427 460.467 449.361 467.407 454.1" stroke="#171717" stroke-width="3" stroke-linecap="round" stroke-linejoin="round"/>
<path d="M467.407 454.1C460.013 449.5 452.614 444.893 445.212 440.279C443.789 439.393 442.233 438.467 440.555 438.561C437.711 438.709 435.778 441.849 435.966 444.68C436.154 447.511 437.925 449.98 439.804 452.101C445.373 458.354 454.068 460.901 461.14 465.386" stroke="#171717" stroke-width="3" stroke-linecap="round" stroke-linejoin="round"/>
<path d="M508.065 417.466C508.133 417.372 508.186 417.278 508.253 417.185C513.54 409.199 518.836 401.215 524.141 393.232C524.195 393.138 524.262 393.032 524.329 392.932" stroke="#171717" stroke-width="3" stroke-linecap="round" stroke-linejoin="round"/>
<path d="M396.205 490.035C406.859 496.423 420.815 494.599 431.845 488.896C442.875 483.193 451.759 474.175 460.911 465.775C461.018 465.681 461.126 465.575 461.233 465.475C470.291 457.182 480.221 449.211 492.097 446.084C496.815 444.899 501.673 444.366 506.536 444.501C512.166 444.651 517.777 445.22 523.323 446.201C533.682 447.892 544.055 450.159 554.535 449.784C564.586 449.421 572.128 448.254 578.835 441.209C579.13 440.9 579.412 440.592 579.694 440.27" stroke="#171717" stroke-width="3" stroke-linecap="round" stroke-linejoin="round"/>
<path d="M234.201 444.988C229.182 448.047 223.922 451.415 220.138 455.803C218.123 458.08 216.61 460.755 215.696 463.654C212.891 472.954 217.682 482.709 222.728 491.015C239.228 518.162 260.274 542.815 286.028 561.415C301.199 572.514 317.979 581.226 335.786 587.247C347.869 591.271 360.412 593.75 373.117 594.627" stroke="#171717" stroke-width="3" stroke-linecap="round" stroke-linejoin="round"/>
<path d="M373.11 594.624C382.157 575.759 393.294 557.971 406.31 541.592" stroke="#171717" stroke-width="3" stroke-linecap="round" stroke-linejoin="round"/>
<path d="M365.718 538.036C379.002 540.68 393.025 543.27 406.001 540.264C408.15 539.779 410.259 539.128 412.308 538.318C422.064 534.467 429.941 527.086 437.456 519.773C451.505 506.085 465.356 491.861 482.02 481.515C498.684 471.169 518.855 464.929 538.071 468.928C558.522 473.182 574.584 487.943 589.6 502.851C591.6 504.837 593.6 506.837 595.572 508.809C598.372 511.614 601.288 514.445 604.872 516.136C608.456 517.827 612.924 518.203 616.292 516.109C619.892 513.868 621.431 509.454 622.263 505.309C626.369 484.899 617.996 458.343 602.282 444.696C598.82 441.703 594.862 439.033 590.366 438.174C586.314 437.409 581.751 438.374 578.88 441.247C578.559 441.572 578.258 441.917 577.98 442.28C575.631 445.42 575.39 449.607 575.417 453.525C575.656 470.849 580.752 487.758 590.124 502.33" stroke="#171717" stroke-width="3" stroke-linecap="round" stroke-linejoin="round"/>
<path d="M160.8 383.327C150.561 399.35 141.074 414.245 130.835 430.267C129.712 431.851 128.838 433.598 128.245 435.447C128.071 436.072 127.977 436.717 127.964 437.366C127.91 441.821 131.964 445.216 136.002 447.066C140.04 448.916 143.785 449.588 146.902 452.742" stroke="#171717" stroke-width="3" stroke-linecap="round" stroke-linejoin="round"/>
<path d="M128.268 435.46C136.744 434.638 145.275 434.54 153.768 435.165C177.119 436.975 199.768 444 220.045 455.723" stroke="#171717" stroke-width="3" stroke-linecap="round" stroke-linejoin="round"/>
<path d="M153.764 435.232C150.363 440.563 148.084 446.531 147.064 452.771C145.849 460.356 146.019 468.099 147.564 475.623C150.288 489.485 156.313 502.448 161.828 515.451C173.636 543.586 183.504 572.495 191.363 601.977C201.696 640.167 209.157 679.217 214.981 718.561C219.57 749.411 223.14 780.461 226.307 811.407C226.907 817.325 227.581 823.484 230.721 828.543C234.076 833.938 239.336 836.97 245.402 838.567C253.225 840.607 262.402 840.245 270.562 839.413C283.646 838.084 298.34 835.87 306.378 825.631C306.633 825.309 306.874 824.987 307.102 824.665C311.839 818.009 312.846 809.465 313.557 801.33C318.912 742.705 317.395 683.654 309.035 625.38" stroke="#171717" stroke-width="3" stroke-linecap="round" stroke-linejoin="round"/>
<path d="M214.122 718.683C193.51 735.201 172.161 750.754 150.449 765.801C139.849 773.155 128.777 782.655 116.257 786.439C110.27 788.332 103.794 787.945 98.0744 785.352C92.6134 782.952 87.7824 778.804 83.6364 773.839C75.0114 763.411 68.6377 751.311 64.9164 738.301C63.0644 731.82 62.6754 725.889 64.2994 720.763C65.9364 715.543 69.6404 711.155 75.9874 707.854C98.4234 696.179 119.438 683.74 138.466 666.885C159.481 648.291 177.305 626.378 191.229 602.018" stroke="#171717" stroke-width="3" stroke-linecap="round" stroke-linejoin="round"/>
<path d="M335.793 587.217C335.793 587.23 335.78 587.23 335.78 587.244C327.562 600.429 318.611 613.144 308.969 625.327C308.861 625.474 308.754 625.622 308.633 625.77" stroke="#171717" stroke-width="3" stroke-linecap="round" stroke-linejoin="round"/>
<path d="M63.7894 720.6C58.4084 720.559 53.7654 723.176 50.2094 727.148C45.9866 732.047 43.3479 738.11 42.6414 744.539C41.3664 756.147 42.9414 767.714 42.4664 779.388C42.0904 788.876 40.9094 798.202 39.9304 807.649C38.9514 817.096 40.1304 827.455 46.4654 834.527C53.3494 842.216 65.3324 844.149 74.9654 840.445C80.7989 838.096 85.8636 834.17 89.5924 829.106C92.0575 825.87 94.0417 822.295 95.4834 818.491C98.4834 810.614 99.0124 800.778 98.5154 791.855C98.3944 789.855 98.2334 787.896 98.0324 786.017" stroke="#171717" stroke-width="3" stroke-linecap="round" stroke-linejoin="round"/>
<path d="M50.3568 727.283C49.1628 749.733 47.9818 771.566 46.7748 794.016C46.4258 800.498 46.1298 807.288 48.8408 813.205C52.0618 820.25 59.1468 824.905 66.5808 827.054C74.0148 829.203 81.8648 829.161 89.5948 829.107H89.6348" stroke="#171717" stroke-width="3" stroke-linecap="round" stroke-linejoin="round"/>
<path d="M97.8732 807.636C90.1732 813.031 79.1942 811.058 72.6592 804.295" stroke="#171717" stroke-width="3" stroke-linecap="round" stroke-linejoin="round"/>
<path d="M98.5711 791.842C98.5581 791.842 98.5311 791.856 98.5171 791.856C94.2356 793.354 89.6263 793.653 85.1872 792.721C80.7481 791.789 76.6481 789.662 73.3301 786.569" stroke="#171717" stroke-width="3" stroke-linecap="round" stroke-linejoin="round"/>
<path d="M245.336 838.823C243.98 848.523 243.269 859.023 247.067 867.433C248.289 870.196 250.04 872.694 252.22 874.786C258.486 880.811 267.745 882.234 276.374 883.361C285.888 884.609 295.406 885.852 304.929 887.091C313.035 888.152 321.274 889.212 329.339 887.843C337.404 886.474 345.374 882.287 349.346 875.135C351.356 871.445 352.234 867.244 351.869 863.058C351.292 855.168 346.998 847.237 340.933 841.883C331.66 833.697 318.416 829.041 306.499 825.726" stroke="#171717" stroke-width="3" stroke-linecap="round" stroke-linejoin="round"/>
<path d="M247.455 867.244C267.181 873.47 282.76 874.074 299.455 875.886C308.97 876.919 318.403 879.817 327.864 878.462C337.297 877.093 348.314 871.887 351.87 863.062C351.873 863.034 351.882 863.006 351.897 862.981" stroke="#171717" stroke-width="3" stroke-linecap="round" stroke-linejoin="round"/>
<path d="M335.792 838.03C326.17 841.668 317.554 847.547 310.658 855.18" stroke="#171717" stroke-width="3" stroke-linecap="round" stroke-linejoin="round"/>
<path d="M318.119 829.858C309.399 833.333 301.804 839.141 296.166 846.646" stroke="#171717" stroke-width="3" stroke-linecap="round" stroke-linejoin="round"/>
<path d="M800.573 742.636C793.341 743.146 786.121 743.746 778.915 744.436C769.763 745.322 760.634 746.364 751.526 747.563C741.771 748.824 732.047 750.269 722.354 751.897" stroke="#171717" stroke-width="3" stroke-linecap="round" stroke-linejoin="round"/>
<path d="M676.863 765.126C676.917 767.756 680.363 770.011 683.183 771.245C687.245 773.007 691.408 774.526 695.65 775.794C705.7 778.692 715.935 780.903 726.285 782.41C727.668 782.638 729.05 782.853 730.405 783.054C740.927 784.664 751.551 785.512 762.195 785.59C769.141 785.659 776.084 785.345 782.995 784.651C784.525 784.49 786.041 784.329 787.571 784.127C796.851 782.988 806.008 781.013 814.932 778.227C822.252 775.935 829.344 772.975 836.121 769.384C836.993 768.914 838.08 768.324 839.315 767.626C845.944 763.815 856.464 756.81 856.464 749.993C856.464 747.779 855.364 745.605 852.68 743.552" stroke="#171717" stroke-width="3" stroke-linecap="round" stroke-linejoin="round"/>
<path d="M692.6 757.222C688.158 758.122 682.428 758.722 678.818 761.722C678.268 762.093 677.807 762.581 677.468 763.152C677.13 763.722 676.922 764.361 676.859 765.022" stroke="#171717" stroke-width="3" stroke-linecap="round" stroke-linejoin="round"/>
<path d="M676.863 765.018V765.125C677.197 773.364 677.783 781.523 678.621 789.601C680.46 807.62 683.763 825.459 688.497 842.942C689.679 847.275 690.958 851.605 692.335 855.931C693.046 858.186 693.798 860.431 694.563 862.681C698.481 874.101 703.473 885.95 713.282 893.008C722.582 899.718 734.672 900.952 746.132 901.355C766.777 901.978 787.438 900.878 807.9 898.067C815.669 897.034 823.815 895.611 829.867 890.646C835.758 885.802 838.75 878.355 841.232 871.146C842.532 867.346 843.769 863.524 844.896 859.659C846.788 853.271 848.443 846.807 849.861 840.268C854.717 817.789 857.164 794.856 857.161 771.858C857.174 764.531 856.959 757.24 856.517 749.985C856.503 749.636 856.49 749.301 856.463 748.952" stroke="#171717" stroke-width="3" stroke-linecap="round" stroke-linejoin="round"/>
<path d="M726.312 782.583C726.299 782.529 726.299 782.462 726.285 782.409C724.541 772.318 722.796 762.227 720.918 752.162C717.227 732.571 713 713.1 707.177 694.062C698.347 665.184 685.677 637.125 666.826 613.521C664.088 610.086 661.136 606.691 657.379 604.396C653.622 602.101 648.879 601.041 644.765 602.558C637.626 605.174 635.065 614.058 635.331 621.64C636.083 643.11 650.857 661.051 662.411 679.167C677.555 702.945 688.016 729.397 693.234 757.1C694.361 763.058 695.233 769.061 695.851 775.109" stroke="#171717" stroke-width="3" stroke-linecap="round" stroke-linejoin="round"/>
<path d="M839.234 767.782L839.315 767.621C843.528 759.583 847.849 751.465 852.17 743.279C861.778 725.069 871.319 706.579 879.344 688.046C890.991 661.128 899.579 632.465 900.156 603.146C900.291 596.074 898.935 587.446 892.347 584.883C888.213 583.259 883.356 584.91 880.041 587.875C876.726 590.84 874.701 594.947 872.902 599.013C867.441 611.278 863.388 624.107 859.349 636.908C858.289 640.29 857.189 643.752 856.088 647.268C843.088 688.504 827.345 738.343 814.852 777.968" stroke="#171717" stroke-width="3" stroke-linecap="round" stroke-linejoin="round"/>
<path d="M844.682 521.275C846.588 508.393 847.93 493.632 855.982 481.555C858.666 477.529 864.033 478.871 868.059 478.871C876.111 481.555 881.478 489.606 880.136 496.315C878.794 547.241 864.074 596.824 856.089 647.266C856.076 647.333 856.063 647.413 856.049 647.481" stroke="#171717" stroke-width="3" stroke-linecap="round" stroke-linejoin="round"/>
<path d="M787.383 782.701C792.039 769.443 796.534 756.117 800.869 742.725C820.327 682.286 835.584 620.303 840.455 556.188" stroke="#171717" stroke-width="3" stroke-linecap="round" stroke-linejoin="round"/>
<path d="M670.301 651.372C691.91 690.257 704.37 733.557 706.735 777.98" stroke="#171717" stroke-width="3" stroke-linecap="round" stroke-linejoin="round"/>
<path d="M853.538 562.301C849.351 588.857 845.164 615.44 838.723 641.527C835.113 656.153 830.806 670.592 826.498 685.027C816.864 717.367 807.225 749.697 797.581 782.019" stroke="#171717" stroke-width="3" stroke-linecap="round" stroke-linejoin="round"/>
<path d="M882.901 620.601C866.213 673.372 846.228 725.044 823.063 775.311" stroke="#171717" stroke-width="3" stroke-linecap="round" stroke-linejoin="round"/>
<path d="M679 789.561C707.193 804.993 738.862 810.861 770.839 807.69C802.816 804.519 832.513 792.527 857.124 771.861" stroke="#171717" stroke-width="3" stroke-linecap="round" stroke-linejoin="round"/>
<path d="M688.713 842.888C695.513 835.132 706.963 835.105 716.745 838.353C726.527 841.601 734.968 847.92 744.245 852.402C753.522 856.884 764.745 859.474 773.995 854.902C781.335 851.266 786.542 843.536 794.553 841.802C806.241 839.279 816.6 850.702 828.543 851.437C836.89 851.96 844.861 846.968 849.866 840.272C849.866 840.259 849.879 840.245 849.893 840.232" stroke="#171717" stroke-width="3" stroke-linecap="round" stroke-linejoin="round"/>
<path d="M692.336 855.931C696.858 850.859 704.346 849.249 711.056 850.282C717.766 851.315 723.911 854.657 729.708 858.182C735.505 861.707 741.222 865.562 747.636 867.83C753.145 869.734 759 870.43 764.802 869.872C770.604 869.314 776.218 867.515 781.264 864.596C785.652 862.02 789.637 858.571 794.535 857.175C800.135 855.575 806.143 856.907 811.635 858.826C817.127 860.745 822.491 863.241 828.248 864.073C834.005 864.905 840.701 863.925 844.539 859.551" stroke="#171717" stroke-width="3" stroke-linecap="round" stroke-linejoin="round"/>
<path d="M749.354 390.9C749.916 393.779 750.28 396.693 750.441 399.622C750.454 399.864 750.467 400.105 750.467 400.347C750.614 403.494 750.525 406.647 750.199 409.78C749.862 413.02 749.27 416.229 748.428 419.375C747.572 422.545 746.455 425.637 745.086 428.621C743.78 431.44 742.235 434.143 740.47 436.699C738.862 439.023 737.053 441.201 735.062 443.207C733.14 445.168 731.038 446.943 728.782 448.507C723.833 451.979 718.147 454.257 712.17 455.162C711.042 455.323 709.888 455.444 708.721 455.511C684.043 456.867 662.734 434.068 661.097 404.559C659.46 375.05 678.152 350.038 702.817 348.683C703.97 348.613 705.125 348.604 706.279 348.656C713.28 348.937 720.079 351.077 725.979 354.856C728.342 356.352 730.565 358.059 732.621 359.956C734.551 361.734 736.341 363.659 737.975 365.713C739.942 368.203 741.693 370.857 743.209 373.644C744.597 376.21 745.794 378.874 746.792 381.615C747.889 384.638 748.745 387.743 749.354 390.9V390.9Z" stroke="#171717" stroke-width="3" stroke-linecap="round" stroke-linejoin="round"/>
<path d="M706.291 348.492C716.274 347.952 726.234 349.903 735.276 354.168C738.373 355.644 741.314 357.428 744.052 359.495C746.294 361.186 748.383 363.072 750.292 365.131C752.481 367.483 754.419 370.055 756.075 372.807C757.642 375.395 758.967 378.122 760.034 380.952C761.174 383.997 762.044 387.135 762.634 390.332C763.163 393.16 763.504 396.02 763.654 398.893L763.695 399.86C763.844 403.037 763.781 406.219 763.507 409.387C763.237 412.672 762.684 415.927 761.856 419.116C761.02 422.338 759.851 425.463 758.367 428.442C756.984 431.252 755.292 433.899 753.322 436.333C751.353 438.792 749.126 441.032 746.679 443.015C744.164 445.05 741.454 446.83 738.588 448.329C730.385 452.51 721.385 454.894 712.188 455.32" stroke="#171717" stroke-width="3" stroke-linecap="round" stroke-linejoin="round"/>
<path d="M763.416 399.873L750.695 400.329" stroke="#171717" stroke-width="3" stroke-linecap="round" stroke-linejoin="round"/>
<path d="M759.887 381.007L747.165 381.463" stroke="#171717" stroke-width="3" stroke-linecap="round" stroke-linejoin="round"/>
<path d="M750.226 365.198L738.055 365.641" stroke="#171717" stroke-width="3" stroke-linecap="round" stroke-linejoin="round"/>
<path d="M735.197 354.343L726.098 354.665" stroke="#171717" stroke-width="3" stroke-linecap="round" stroke-linejoin="round"/>
<path d="M761.242 418.955L748.521 419.398" stroke="#171717" stroke-width="3" stroke-linecap="round" stroke-linejoin="round"/>
<path d="M753.326 436.333L740.591 436.789" stroke="#171717" stroke-width="3" stroke-linecap="round" stroke-linejoin="round"/>
<path d="M738.551 448.249L728.836 448.597" stroke="#171717" stroke-width="3" stroke-linecap="round" stroke-linejoin="round"/>
<path d="M762.127 390.427L749.406 390.883" stroke="#171717" stroke-width="3" stroke-linecap="round" stroke-linejoin="round"/>
<path d="M763.416 409.374L750.695 409.83" stroke="#171717" stroke-width="3" stroke-linecap="round" stroke-linejoin="round"/>
<path d="M758.398 428.442H758.371L745.677 428.898" stroke="#171717" stroke-width="3" stroke-linecap="round" stroke-linejoin="round"/>
<path d="M755.822 372.969L743.637 373.398" stroke="#171717" stroke-width="3" stroke-linecap="round" stroke-linejoin="round"/>
<path d="M744.012 359.55L732.619 359.952H732.579" stroke="#171717" stroke-width="3" stroke-linecap="round" stroke-linejoin="round"/>
<path d="M746.696 443.016H746.682L735.276 443.419" stroke="#171717" stroke-width="3" stroke-linecap="round" stroke-linejoin="round"/>
<path d="M708.304 447.446C729.241 446.29 745.094 425.058 743.712 400.021C742.33 374.985 724.237 355.626 703.3 356.782C682.363 357.937 666.51 379.17 667.892 404.206C669.273 429.242 687.366 448.601 708.304 447.446Z" stroke="#171717" stroke-width="3" stroke-linecap="round" stroke-linejoin="round"/>
<path d="M852.706 295.393C853.154 298.741 853.365 302.116 853.336 305.493C853.336 305.775 853.336 306.043 853.323 306.325C853.258 309.944 852.931 313.554 852.343 317.125C851.729 320.826 850.818 324.471 849.619 328.025C848.408 331.647 846.886 335.158 845.07 338.518C843.386 341.62 841.442 344.574 839.26 347.348C837.251 349.907 835.02 352.283 832.591 354.448C830.243 356.565 827.698 358.452 824.991 360.084C819.067 363.721 812.378 365.931 805.453 366.538C804.128 366.66 802.798 366.713 801.468 366.699C773.047 366.511 750.181 338.815 750.395 304.824C750.609 270.833 773.838 243.432 802.273 243.624C803.602 243.638 804.93 243.705 806.245 243.824C814.264 244.657 821.918 247.602 828.427 252.359C831.038 254.24 833.473 256.356 835.7 258.679C837.784 260.858 839.695 263.195 841.416 265.671C843.504 268.665 845.327 271.834 846.865 275.144C848.28 278.183 849.469 281.323 850.421 284.538C851.464 288.091 852.228 291.721 852.706 295.393V295.393Z" stroke="#171717" stroke-width="3" stroke-linecap="round" stroke-linejoin="round"/>
<path d="M806.277 243.649C817.778 243.73 829.078 246.677 839.154 252.224C842.602 254.142 845.848 256.403 848.842 258.973C851.303 261.073 853.575 263.386 855.632 265.884C857.972 268.739 860.009 271.828 861.711 275.103C863.328 278.185 864.653 281.41 865.67 284.738C866.766 288.313 867.543 291.977 867.991 295.688C868.406 298.972 868.599 302.279 868.568 305.588C868.568 305.964 868.555 306.34 868.541 306.702C868.495 310.359 868.204 314.008 867.669 317.625C867.116 321.382 866.246 325.086 865.069 328.696C863.882 332.326 862.327 335.824 860.426 339.136C858.618 342.262 856.481 345.186 854.052 347.858C851.61 350.543 848.883 352.955 845.92 355.051C842.893 357.207 839.661 359.058 836.271 360.579C826.558 364.795 816.058 366.89 805.471 366.725" stroke="#171717" stroke-width="3" stroke-linecap="round" stroke-linejoin="round"/>
<path d="M868.218 306.705L853.578 306.329" stroke="#171717" stroke-width="3" stroke-linecap="round" stroke-linejoin="round"/>
<path d="M865.508 284.792L850.867 284.402" stroke="#171717" stroke-width="3" stroke-linecap="round" stroke-linejoin="round"/>
<path d="M855.537 265.966L841.528 265.59" stroke="#171717" stroke-width="3" stroke-linecap="round" stroke-linejoin="round"/>
<path d="M839.045 252.425L828.578 252.157" stroke="#171717" stroke-width="3" stroke-linecap="round" stroke-linejoin="round"/>
<path d="M864.368 328.457L849.728 328.068" stroke="#171717" stroke-width="3" stroke-linecap="round" stroke-linejoin="round"/>
<path d="M854.035 347.848L839.395 347.458" stroke="#171717" stroke-width="3" stroke-linecap="round" stroke-linejoin="round"/>
<path d="M836.227 360.488L825.063 360.206" stroke="#171717" stroke-width="3" stroke-linecap="round" stroke-linejoin="round"/>
<path d="M867.413 295.755L852.773 295.379" stroke="#171717" stroke-width="3" stroke-linecap="round" stroke-linejoin="round"/>
<path d="M867.547 317.616L852.907 317.226" stroke="#171717" stroke-width="3" stroke-linecap="round" stroke-linejoin="round"/>
<path d="M860.435 339.14H860.422L845.795 338.764" stroke="#171717" stroke-width="3" stroke-linecap="round" stroke-linejoin="round"/>
<path d="M861.402 275.264L847.393 274.902" stroke="#171717" stroke-width="3" stroke-linecap="round" stroke-linejoin="round"/>
<path d="M848.801 259.028L835.704 258.679H835.65" stroke="#171717" stroke-width="3" stroke-linecap="round" stroke-linejoin="round"/>
<path d="M845.969 355.054H845.916L832.819 354.705" stroke="#171717" stroke-width="3" stroke-linecap="round" stroke-linejoin="round"/>
<path d="M845.554 305.443C845.367 334.294 825.654 357.536 801.527 357.388C777.4 357.24 758.009 333.717 758.197 304.88C758.385 276.043 778.084 252.774 802.211 252.935C826.338 253.096 845.742 276.606 845.554 305.443Z" stroke="#171717" stroke-width="3" stroke-linecap="round" stroke-linejoin="round"/>
<path d="M739.008 448.45C759.552 476.16 763.148 512.257 760.397 546.637C757.673 580.479 748.87 613.584 745.408 647.346C745.355 647.884 745.301 648.42 745.247 648.957C742.195 681.95 744.313 715.218 751.527 747.557C754.304 760.216 757.869 772.69 762.201 784.905" stroke="#171717" stroke-width="3" stroke-linecap="round" stroke-linejoin="round"/>
<path d="M792.201 624.844C783.881 664.457 777.601 704.7 778.916 744.434C779.309 757.527 780.632 770.576 782.874 783.483" stroke="#171717" stroke-width="3" stroke-linecap="round" stroke-linejoin="round"/>
<path d="M821.011 365.453C824.779 384.106 826.658 403.092 826.62 422.122C826.634 426.335 826.562 430.548 826.406 434.763C825.05 475.825 816.73 517.063 807.458 557.64C806.8 560.552 806.133 563.46 805.458 566.363C804.895 568.778 804.331 571.207 803.768 573.622C800.268 588.665 796.696 603.882 793.408 619.207C793.008 621.059 792.603 622.924 792.227 624.776" stroke="#171717" stroke-width="3" stroke-linecap="round" stroke-linejoin="round"/>
<path d="M740.456 476.992C732.928 472.134 722.823 470.229 714.987 474.577C710.625 476.992 707.187 481.577 707.271 486.577C707.365 493.73 714.208 498.963 720.958 501.325C731.351 504.848 742.688 504.336 752.721 499.889C754.573 499.057 758.41 497.809 758.343 495.756C758.29 494.056 754.143 490.2 753.029 488.845C749.476 484.268 745.234 480.27 740.456 476.992V476.992Z" stroke="#171717" stroke-width="3" stroke-linecap="round" stroke-linejoin="round"/>
<path d="M784.309 479.166C790.909 471.222 794.467 460.406 792.28 450.302C791.26 445.538 788.013 440.402 783.142 440.345C779.183 440.291 776.07 443.619 773.762 446.826C765.455 458.43 760.304 471.992 758.813 486.184C758.625 488.063 757.243 494.222 759.269 495.255C760.906 496.087 766.811 492.41 768.327 491.632C774.436 488.589 779.87 484.35 784.309 479.166Z" stroke="#171717" stroke-width="3" stroke-linecap="round" stroke-linejoin="round"/>
<path d="M797.917 527.14C796.334 522.685 794.482 518.216 791.382 514.647C788.282 511.078 783.693 508.528 778.982 508.903C772.688 509.413 767.723 515.17 766.475 521.356C765.227 527.542 767.012 533.984 769.656 539.714C774.364 549.835 781.63 558.553 790.737 565.008C793.528 566.981 802.143 573.744 804.196 569.987C805.431 567.746 804.596 562.287 804.518 559.762C804.402 556.344 804.098 552.934 803.606 549.55C802.451 541.911 800.545 534.405 797.917 527.14Z" stroke="#171717" stroke-width="3" stroke-linecap="round" stroke-linejoin="round"/>
<path d="M807.457 557.64C808.651 554.983 810.02 552.54 810.678 551.226C813.578 545.442 817.278 540.477 821.144 535.326C825.13 530.626 829.774 526.309 835.396 523.786C838.321 522.456 841.483 521.726 844.696 521.639C847.663 521.531 850.612 522.138 853.295 523.41C858.837 526.121 862.73 532.441 861.576 538.51C860.838 542.41 858.207 545.743 855.053 548.158C851.789 550.428 848.261 552.294 844.547 553.714C843.098 554.331 841.634 554.962 840.185 555.579C834.75 557.914 829.33 560.249 823.886 562.579C820.477 564.055 809.379 571.179 806.172 567.745C805.822 567.352 805.577 566.877 805.461 566.363C804.922 564.149 806.075 560.754 807.457 557.64Z" stroke="#171717" stroke-width="3" stroke-linecap="round" stroke-linejoin="round"/>
<path d="M723.588 601.373C720.274 598.931 716.57 596.851 712.504 596.287C708.438 595.723 703.943 596.931 701.366 600.125C697.944 604.352 698.736 610.538 700.185 615.785C703.017 625.985 707.861 635.927 715.819 642.918C720.784 647.266 739.704 657.652 744.562 648.418C746.762 644.245 744.696 636.408 743.662 632.127C742.306 626.479 740.069 621.079 737.033 616.127C733.548 610.386 728.982 605.375 723.588 601.373V601.373Z" stroke="#171717" stroke-width="3" stroke-linecap="round" stroke-linejoin="round"/>
<path d="M792.227 624.776C792.496 623.836 792.751 622.884 792.952 621.917C793.14 621.032 793.301 620.117 793.408 619.207C793.899 616.028 793.684 612.78 792.778 609.693C791.53 605.761 788.604 602.218 784.672 600.984C778.298 598.971 771.696 603.292 767.013 608.056C761.288 613.892 756.653 620.704 753.326 628.171C750.95 633.498 747.354 641.321 746.844 647.494C746.817 647.894 746.791 648.294 746.791 648.702C746.697 656.807 757.969 654.848 763.122 653.412C769.955 651.43 776.189 647.782 781.265 642.796C786.34 637.809 790.098 631.64 792.201 624.843C792.214 624.829 792.214 624.8 792.227 624.776Z" stroke="#171717" stroke-width="3" stroke-linecap="round" stroke-linejoin="round"/>
<path d="M826.619 422.123C825.28 417.439 823.598 412.86 821.587 408.423C817.007 397.58 810.142 387.854 801.459 379.908C797.044 375.895 791.247 372.178 785.517 373.775C781.531 374.889 778.579 378.475 777.331 382.417C776.083 386.359 776.352 390.629 777.09 394.695C778.937 404.212 783.238 413.081 789.566 420.425C795.895 427.768 804.033 433.331 813.173 436.563C816.407 437.65 819.973 438.441 823.197 437.287C824.525 436.841 825.659 435.949 826.405 434.764C827.186 433.429 827.619 431.921 827.666 430.376C827.732 427.588 827.379 424.806 826.619 422.123V422.123Z" stroke="#171717" stroke-width="3" stroke-linecap="round" stroke-linejoin="round"/>
<path d="M826.955 433.101C827.169 432.188 827.411 431.276 827.666 430.376C828.122 428.632 828.659 426.901 829.249 425.197C832.129 416.761 836.304 408.825 841.622 401.673C845.822 396.037 850.827 390.83 857.027 387.529C863.227 384.228 870.795 383.021 877.397 385.423C883.999 387.825 889.272 394.265 889.192 401.296C889.138 407.013 885.797 412.166 882.013 416.46C873.761 425.777 863.035 432.561 851.082 436.026C846.412 437.368 841.34 438.159 836.791 436.509C832.242 434.859 828.525 430.041 829.585 425.309" stroke="#171717" stroke-width="3" stroke-linecap="round" stroke-linejoin="round"/>
<path d="M460.415 303.954C460.428 303.941 460.441 303.927 460.455 303.927C474.843 289.604 494.071 281.184 514.355 280.327C525.412 279.898 537.516 282.327 544.588 290.834C551.088 298.644 551.794 310.034 548.855 319.752C545.916 329.47 539.864 337.908 533.772 346.027" stroke="#171717" stroke-width="3" stroke-linecap="round" stroke-linejoin="round"/>
<path d="M447.144 300.667C461.745 287.673 479.157 278.238 498.016 273.101C508.268 270.31 519.083 268.833 529.537 270.766C539.991 272.699 550.068 278.361 555.637 287.405C562.137 297.939 561.702 311.613 557.475 323.234C553.248 334.855 545.666 344.934 538.192 354.796" stroke="#171717" stroke-width="3" stroke-linecap="round" stroke-linejoin="round"/>
<path d="M558.628 280.605C561.471 279.562 564.054 277.913 566.197 275.774C567.847 274.258 569.457 272.312 569.283 270.084C569.095 267.749 567.042 266.072 565.15 264.717C563.214 263.185 561.067 261.939 558.776 261.017C557.629 260.56 556.401 260.342 555.166 260.377C553.932 260.411 552.717 260.697 551.597 261.217C549.772 262.276 548.347 263.908 547.544 265.86C546.507 268.046 546.076 270.47 546.296 272.879C546.551 275.2 547.786 278.528 549.731 280.031C552.066 281.813 556.052 281.477 558.628 280.605Z" stroke="#171717" stroke-width="3" stroke-linecap="round" stroke-linejoin="round"/>
<path d="M603.473 455.746C603.005 455.888 602.602 456.192 602.338 456.605C602.074 457.017 601.966 457.511 602.033 457.996C602.101 458.481 602.34 458.926 602.706 459.25C603.073 459.575 603.544 459.758 604.033 459.766C604.523 459.774 604.999 459.607 605.377 459.295C605.754 458.983 606.008 458.546 606.091 458.064C606.175 457.581 606.084 457.084 605.834 456.663C605.584 456.242 605.191 455.924 604.727 455.767" stroke="#171717" stroke-width="3" stroke-linecap="round" stroke-linejoin="round"/>
<path d="M586.801 465.586C586.357 465.59 585.93 465.754 585.598 466.048C585.266 466.343 585.052 466.747 584.995 467.187C584.939 467.627 585.043 468.073 585.29 468.442C585.536 468.811 585.908 469.078 586.336 469.194C586.765 469.31 587.22 469.267 587.619 469.073C588.018 468.879 588.334 468.547 588.507 468.139C588.68 467.73 588.699 467.273 588.562 466.851C588.424 466.43 588.138 466.072 587.757 465.845" stroke="#171717" stroke-width="3" stroke-linecap="round" stroke-linejoin="round"/>
<path d="M586.837 446.778C587.191 446.866 587.516 447.046 587.779 447.299C588.042 447.553 588.233 447.871 588.334 448.222C588.435 448.573 588.441 448.944 588.353 449.299C588.265 449.653 588.085 449.978 587.831 450.24C587.577 450.503 587.259 450.694 586.908 450.795C586.557 450.895 586.186 450.902 585.831 450.813C585.477 450.724 585.152 450.544 584.89 450.29C584.628 450.036 584.437 449.717 584.337 449.366C584.268 449.019 584.284 448.661 584.384 448.322C584.484 447.983 584.664 447.673 584.91 447.419C585.156 447.164 585.459 446.973 585.795 446.862C586.13 446.75 586.488 446.722 586.837 446.778Z" stroke="#171717" stroke-width="3" stroke-linecap="round" stroke-linejoin="round"/>
<path d="M604.257 473.488C603.728 473.429 603.197 473.568 602.764 473.877C602.331 474.186 602.027 474.644 601.911 475.163C601.794 475.682 601.873 476.226 602.133 476.691C602.392 477.155 602.813 477.508 603.316 477.681C603.819 477.854 604.368 477.836 604.859 477.629C605.349 477.423 605.746 477.043 605.974 476.563C606.202 476.082 606.245 475.534 606.094 475.024C605.943 474.514 605.61 474.077 605.157 473.798" stroke="#171717" stroke-width="3" stroke-linecap="round" stroke-linejoin="round"/>
<path d="M598.522 494.017C597.952 494.208 597.473 494.602 597.176 495.125C596.88 495.647 596.787 496.261 596.916 496.848C597.045 497.435 597.387 497.953 597.876 498.303C598.364 498.653 598.965 498.81 599.562 498.743C600.159 498.677 600.711 498.391 601.11 497.942C601.51 497.493 601.729 496.912 601.725 496.312C601.722 495.711 601.496 495.132 601.092 494.688C600.688 494.243 600.133 493.964 599.535 493.904" stroke="#171717" stroke-width="3" stroke-linecap="round" stroke-linejoin="round"/>
<path d="M615.453 488.729C614.881 488.602 614.283 488.697 613.778 488.994C613.274 489.291 612.901 489.768 612.735 490.33C612.569 490.891 612.622 491.494 612.883 492.018C613.144 492.542 613.595 492.947 614.143 493.152C614.691 493.357 615.297 493.346 615.838 493.121C616.379 492.897 616.814 492.476 617.056 491.943C617.299 491.41 617.33 490.805 617.143 490.25C616.957 489.695 616.567 489.231 616.053 488.953" stroke="#171717" stroke-width="3" stroke-linecap="round" stroke-linejoin="round"/>
<path d="M622.301 457.114C640.001 456.05 656.401 466.528 669.201 478.802C690.063 498.887 704.892 524.407 712.012 552.478" stroke="#171717" stroke-width="3" stroke-linecap="round" stroke-linejoin="round"/>
<path d="M631.261 482.36C665.762 508.705 688.568 547.518 694.792 590.478" stroke="#171717" stroke-width="3" stroke-linecap="round" stroke-linejoin="round"/>
<path d="M630.984 516.943C657.789 545.827 675.954 581.651 683.414 620.343" stroke="#171717" stroke-width="3" stroke-linecap="round" stroke-linejoin="round"/>
<path d="M244.14 219.092C249.212 215.648 254.284 212.205 259.357 208.763" stroke="#171717" stroke-width="3" stroke-linecap="round" stroke-linejoin="round"/>
<path d="M252.717 239.742C256.429 235.269 260.429 231.043 264.691 227.091" stroke="#171717" stroke-width="3" stroke-linecap="round" stroke-linejoin="round"/>
<path d="M266.9 254.866C269.506 249.655 272.11 244.445 274.712 239.235" stroke="#171717" stroke-width="3" stroke-linecap="round" stroke-linejoin="round"/>
<path d="M287.601 260.782C287.734 252.892 287.511 245.008 286.931 237.13L287.479 237.099" stroke="#171717" stroke-width="3" stroke-linecap="round" stroke-linejoin="round"/>
<path d="M293.78 228.426C297.313 231.822 301.105 234.936 305.124 237.74" stroke="#171717" stroke-width="3" stroke-linecap="round" stroke-linejoin="round"/>
<path d="M311.646 222.166C308.337 219.277 304.847 216.601 301.197 214.155" stroke="#171717" stroke-width="3" stroke-linecap="round" stroke-linejoin="round"/>
<path d="M302.9 202.933L317.523 208.533" stroke="#171717" stroke-width="3" stroke-linecap="round" stroke-linejoin="round"/>
<path d="M343.842 344.291L351.42 330.083" stroke="#171717" stroke-width="3" stroke-linecap="round" stroke-linejoin="round"/>
<path d="M329.633 326.927L320.792 321.559" stroke="#171717" stroke-width="3" stroke-linecap="round" stroke-linejoin="round"/>
<path d="M312.268 337.661L304.059 351.869" stroke="#171717" stroke-width="3" stroke-linecap="round" stroke-linejoin="round"/>
<path d="M286.378 333.873L274.062 328.821" stroke="#171717" stroke-width="3" stroke-linecap="round" stroke-linejoin="round"/>
<path d="M292.061 305.456L299.323 294.405" stroke="#171717" stroke-width="3" stroke-linecap="round" stroke-linejoin="round"/>
<path d="M324.581 301.983L330.896 305.456" stroke="#171717" stroke-width="3" stroke-linecap="round" stroke-linejoin="round"/>
<path d="M368.784 294.405L374.152 283.985" stroke="#171717" stroke-width="3" stroke-linecap="round" stroke-linejoin="round"/>
<path d="M390.571 299.773L398.78 305.456" stroke="#171717" stroke-width="3" stroke-linecap="round" stroke-linejoin="round"/>
<path d="M399.412 282.407L402.254 274.829" stroke="#171717" stroke-width="3" stroke-linecap="round" stroke-linejoin="round"/>
<path d="M375.732 258.41L366.892 254.938" stroke="#171717" stroke-width="3" stroke-linecap="round" stroke-linejoin="round"/>
<path d="M371.312 246.727L374.153 239.15" stroke="#171717" stroke-width="3" stroke-linecap="round" stroke-linejoin="round"/>
<path d="M341.631 244.834L331.528 239.782" stroke="#171717" stroke-width="3" stroke-linecap="round" stroke-linejoin="round"/>
<path d="M314.477 260.938L310.688 268.514" stroke="#171717" stroke-width="3" stroke-linecap="round" stroke-linejoin="round"/>
<path d="M278.168 276.092L267.433 270.409" stroke="#171717" stroke-width="3" stroke-linecap="round" stroke-linejoin="round"/>
<path d="M260.169 289.354L255.118 298.511" stroke="#171717" stroke-width="3" stroke-linecap="round" stroke-linejoin="round"/>
<path d="M238.385 310.823L245.33 313.35" stroke="#171717" stroke-width="3" stroke-linecap="round" stroke-linejoin="round"/>
<path d="M241.856 330.717L235.858 343.03" stroke="#171717" stroke-width="3" stroke-linecap="round" stroke-linejoin="round"/>
<path d="M267.116 354.711L275.957 358.816" stroke="#171717" stroke-width="3" stroke-linecap="round" stroke-linejoin="round"/>
<path d="M290.165 389.127L297.427 378.707" stroke="#171717" stroke-width="3" stroke-linecap="round" stroke-linejoin="round"/>
<path d="M262.696 414.071L257.959 408.388" stroke="#171717" stroke-width="3" stroke-linecap="round" stroke-linejoin="round"/>
<path d="M251.33 379.024L244.384 383.444" stroke="#171717" stroke-width="3" stroke-linecap="round" stroke-linejoin="round"/>
<path d="M219.739 427.862L215.268 417.585" stroke="#171717" stroke-width="3" stroke-linecap="round" stroke-linejoin="round"/>
<path d="M208.389 390.391L216.599 384.393" stroke="#171717" stroke-width="3" stroke-linecap="round" stroke-linejoin="round"/>
<path d="M204.6 359.448L200.495 351.555" stroke="#171717" stroke-width="3" stroke-linecap="round" stroke-linejoin="round"/>
<path d="M173.968 343.422L182.498 334.82" stroke="#171717" stroke-width="3" stroke-linecap="round" stroke-linejoin="round"/>
<path d="M189.761 296.931L199.832 304.278" stroke="#171717" stroke-width="3" stroke-linecap="round" stroke-linejoin="round"/>
<path d="M202.972 272.95L208.554 266.301" stroke="#171717" stroke-width="3" stroke-linecap="round" stroke-linejoin="round"/>
<path d="M237.753 250.518L244.7 255.885" stroke="#171717" stroke-width="3" stroke-linecap="round" stroke-linejoin="round"/>
<path d="M162.923 407.756L155.345 410.599" stroke="#171717" stroke-width="3" stroke-linecap="round" stroke-linejoin="round"/>
<path d="M172.078 424.176L174.604 431.754" stroke="#171717" stroke-width="3" stroke-linecap="round" stroke-linejoin="round"/>
<path d="M207.441 443.118L214.071 442.488" stroke="#171717" stroke-width="3" stroke-linecap="round" stroke-linejoin="round"/>
<path d="M612.383 505.372C612.738 505.46 613.063 505.64 613.326 505.893C613.589 506.147 613.78 506.465 613.881 506.816C613.982 507.167 613.988 507.538 613.9 507.892C613.812 508.247 613.632 508.572 613.378 508.834C613.124 509.097 612.806 509.288 612.455 509.389C612.104 509.489 611.732 509.495 611.378 509.407C611.024 509.318 610.699 509.138 610.437 508.884C610.174 508.63 609.984 508.311 609.883 507.96C609.815 507.613 609.831 507.255 609.931 506.916C610.031 506.577 610.211 506.267 610.457 506.013C610.703 505.758 611.006 505.567 611.342 505.456C611.677 505.344 612.034 505.315 612.383 505.372Z" stroke="#171717" stroke-width="3" stroke-linecap="round" stroke-linejoin="round"/>
<path d="M688.961 389.889C691.247 384.102 693.533 378.314 695.818 372.526C699.104 393.186 703.834 413.59 709.974 433.588" stroke="#171717" stroke-width="3" stroke-linecap="round" stroke-linejoin="round"/>
<path d="M781.469 287.15C784.768 281.251 786.949 274.792 787.901 268.101C791.629 291.567 797.527 314.638 805.518 337.015" stroke="#171717" stroke-width="3" stroke-linecap="round" stroke-linejoin="round"/>
<path d="M800.945 340.369L811.115 333.521" stroke="#171717" stroke-width="3" stroke-linecap="round" stroke-linejoin="round"/>
<path d="M704.437 437.152L715.202 431.208" stroke="#171717" stroke-width="3" stroke-linecap="round" stroke-linejoin="round"/>
<path d="M357.054 612.9C361.216 613.819 365.519 613.9 369.712 613.139C373.906 612.378 377.906 610.79 381.48 608.468C385.053 606.146 388.13 603.136 390.529 599.614C392.928 596.091 394.602 592.126 395.454 587.95" stroke="#171717" stroke-width="3" stroke-linecap="round" stroke-linejoin="round"/>
<path d="M374.167 626.948C382.671 625.008 390.119 619.906 395 612.678" stroke="#171717" stroke-width="3" stroke-linecap="round" stroke-linejoin="round"/>
<path d="M144.094 364.47C141.155 352.717 142.383 340.308 147.57 329.359" stroke="#171717" stroke-width="3" stroke-linecap="round" stroke-linejoin="round"/>
<path d="M53.1846 700.232C79.0891 691.412 102.005 675.511 119.334 654.332" stroke="#171717" stroke-width="3" stroke-linecap="round" stroke-linejoin="round"/>
<path d="M70.8857 680.648L90.9787 666.732" stroke="#171717" stroke-width="3" stroke-linecap="round" stroke-linejoin="round"/>
<path d="M838.17 224.676L849.537 197.206" stroke="#171717" stroke-width="3" stroke-linecap="round" stroke-linejoin="round"/>
<path d="M815.436 222.782L810.699 139.426" stroke="#171717" stroke-width="3" stroke-linecap="round" stroke-linejoin="round"/>
<path d="M792.704 224.676L781.336 207.626" stroke="#171717" stroke-width="3" stroke-linecap="round" stroke-linejoin="round"/>
<path d="M854.272 236.989L919.63 201.941" stroke="#171717" stroke-width="3" stroke-linecap="round" stroke-linejoin="round"/>
<path d="M769.97 236.989L721.661 198.153" stroke="#171717" stroke-width="3" stroke-linecap="round" stroke-linejoin="round"/>
<path d="M685.666 334.553L671.458 300.453" stroke="#171717" stroke-width="3" stroke-linecap="round" stroke-linejoin="round"/>
<path d="M702.717 335.502L708.4 313.716" stroke="#171717" stroke-width="3" stroke-linecap="round" stroke-linejoin="round"/>
<path d="M673.354 346.868L660.092 341.185" stroke="#171717" stroke-width="3" stroke-linecap="round" stroke-linejoin="round"/>
<g opacity="0.1">
<path d="M277.92 130.825C276.746 147.419 281.02 164.182 271.907 179.354C264.466 191.736 249.93 198.477 237.837 205.424C210.674 221.024 188.288 244.576 173.267 272.014C157.38 301.035 148.595 334.973 154.391 367.974C160.13 400.647 183.66 424.516 213.367 437.293C229.28 444.087 246.039 448.698 263.187 451C281.073 453.452 305.155 454.237 317.998 439.158C320.798 435.875 321.778 431.407 319.498 427.513C317.449 424.013 312.63 421.713 308.646 423.097C302.069 425.375 295.328 428.284 288.384 429.216C281.512 429.979 274.569 429.836 267.734 428.791C253.837 426.854 240.205 423.344 227.1 418.327C214.929 413.702 203.169 407.008 193.98 397.709C184.085 387.695 178.348 374.98 176.07 361.151C171.447 333.08 180.548 302.327 193.964 277.829C207.604 252.923 227.651 230.899 251.841 215.882C265.623 207.326 280.224 197.841 286.87 182.365C293.654 166.565 291.83 145.412 285.291 129.828C283.691 126.014 278.24 126.373 277.925 130.828L277.92 130.825Z" fill="#171717"/>
</g>
<g opacity="0.1">
<path d="M450.658 301.838C439.415 297.951 426.596 298.059 420.005 309.524L422.931 306.598C420.565 307.928 418.751 310.061 417.819 312.611C417.355 314.214 416.68 315.748 415.812 317.174C414.072 319.574 411.44 321.174 408.962 322.7C400.778 327.722 392.247 332.245 383.892 336.978C375.22 341.891 367.162 347.697 358.62 352.834C351.776 356.95 340.013 361.078 338.944 369.886C338.927 370.642 339.117 371.389 339.493 372.045C339.87 372.702 340.419 373.243 341.08 373.61C345.636 375.672 349.385 374.072 353.686 371.97C358.444 369.644 363.061 366.978 367.745 364.507C377.461 359.382 387.401 354.926 396.988 349.533C405.369 344.818 414.421 340.601 422.271 335.033C429.121 330.173 437.729 320.607 434.912 311.474V315.81C435.312 314.264 435.684 311.788 436.512 310.441C435.471 312.131 438.272 309.515 438.999 309.16C442.224 307.588 446.432 307.286 449.972 306.903C450.584 306.882 451.168 306.645 451.622 306.234C452.076 305.824 452.369 305.266 452.451 304.66C452.533 304.053 452.398 303.438 452.07 302.921C451.742 302.405 451.241 302.022 450.657 301.839L450.658 301.838Z" fill="#171717"/>
</g>
<g opacity="0.1">
<path d="M238.878 445.9C237.592 445.891 234.607 445 232.778 445C229.218 445 226.309 447.739 223.761 449.884C219.434 453.526 214.924 459.719 213.636 465.284C213.196 467.086 213.336 468.981 214.036 470.7C214.735 472.418 215.958 473.872 217.531 474.856C218.15 475.258 218.836 475.547 219.556 475.71C223.628 476.316 226.744 475.21 229.128 471.815C231.736 468.1 233.505 463.995 236.428 460.415C237.86 458.659 239.664 457.121 240.289 454.85C240.68 453.424 240.533 451.075 241.189 449.92C241.417 449.513 241.536 449.053 241.534 448.586C241.531 448.119 241.408 447.661 241.176 447.256C240.943 446.851 240.61 446.513 240.208 446.275C239.806 446.038 239.349 445.908 238.882 445.9H238.878Z" fill="#171717"/>
</g>
<g opacity="0.1">
<path d="M363.842 534.187C372.142 550.479 396.535 545.846 410.475 540.172C427.235 533.351 440.759 521.272 453.516 508.737C465.886 496.585 478.016 483.688 493.711 475.805C506.611 469.329 522.157 467.994 536.204 470.873C552.948 474.304 568.371 483.098 581.761 493.483C585.247 496.183 591.147 492.806 588.387 488.371C571.524 461.271 535.98 447.571 504.968 453.371C467.837 460.315 448.468 494.485 419.661 514.85C411.721 520.674 402.652 524.775 393.035 526.891C388.709 527.709 384.292 527.938 379.904 527.571C374.712 527.248 370.677 528.071 365.775 529.434C365.303 529.574 364.867 529.818 364.502 530.149C364.137 530.479 363.85 530.888 363.665 531.345C363.479 531.801 363.398 532.294 363.429 532.786C363.46 533.278 363.601 533.756 363.842 534.186V534.187Z" fill="#171717"/>
</g>
<g opacity="0.1">
<path d="M378.871 340.729C378.966 328.01 374.886 315.584 370.118 303.921C367.864 298.138 365.101 292.567 361.861 287.274C358.567 282.086 354.285 273.84 348.554 271.288C342.354 268.528 333.989 273.126 336.297 280.711C338.031 286.411 343.243 290.411 346.659 295.201C350.072 299.899 353.219 304.786 356.084 309.838C361.74 320.018 364.447 331.182 367.822 342.224C369.659 348.234 378.822 347.189 378.871 340.724V340.729Z" fill="#171717"/>
</g>
</g>
</g>
<defs>
<linearGradient id="paint0_linear_46_129" x1="402.489" y1="315.451" x2="402.489" y2="594.623" gradientUnits="userSpaceOnUse">
<stop stop-color="#B1E938"/>
<stop offset="1" stop-color="#61BB00"/>
</linearGradient>
<linearGradient id="paint1_linear_46_129" x1="481.27" y1="299.863" x2="481.27" y2="394.765" gradientUnits="userSpaceOnUse">
<stop stop-color="#B1E938"/>
<stop offset="1" stop-color="#61BB00"/>
</linearGradient>
<linearGradient id="paint2_linear_46_129" x1="557.767" y1="260.37" x2="557.767" y2="281.315" gradientUnits="userSpaceOnUse">
<stop stop-color="#B1E938"/>
<stop offset="1" stop-color="#61BB00"/>
</linearGradient>
<linearGradient id="paint3_linear_46_129" x1="705.802" y1="356.732" x2="705.802" y2="447.495" gradientUnits="userSpaceOnUse">
<stop stop-color="#B1E938"/>
<stop offset="1" stop-color="#61BB00"/>
</linearGradient>
<linearGradient id="paint4_linear_46_129" x1="801.875" y1="252.935" x2="801.875" y2="357.389" gradientUnits="userSpaceOnUse">
<stop stop-color="#B1E938"/>
<stop offset="1" stop-color="#61BB00"/>
</linearGradient>
<linearGradient id="paint5_linear_46_129" x1="857.508" y1="584.242" x2="857.508" y2="778.222" gradientUnits="userSpaceOnUse">
<stop stop-color="#B1E938"/>
<stop offset="1" stop-color="#61BB00"/>
</linearGradient>
<linearGradient id="paint6_linear_46_129" x1="860.442" y1="306.331" x2="860.442" y2="317.628" gradientUnits="userSpaceOnUse">
<stop stop-color="#B1E938"/>
<stop offset="1" stop-color="#61BB00"/>
</linearGradient>
<linearGradient id="paint7_linear_46_129" x1="859.208" y1="284.402" x2="859.208" y2="295.755" gradientUnits="userSpaceOnUse">
<stop stop-color="#B1E938"/>
<stop offset="1" stop-color="#61BB00"/>
</linearGradient>
<linearGradient id="paint8_linear_46_129" x1="858.644" y1="317.128" x2="858.644" y2="328.699" gradientUnits="userSpaceOnUse">
<stop stop-color="#B1E938"/>
<stop offset="1" stop-color="#61BB00"/>
</linearGradient>
<linearGradient id="paint9_linear_46_129" x1="856.269" y1="274.902" x2="856.269" y2="284.792" gradientUnits="userSpaceOnUse">
<stop stop-color="#B1E938"/>
<stop offset="1" stop-color="#61BB00"/>
</linearGradient>
<linearGradient id="paint10_linear_46_129" x1="855.07" y1="328.028" x2="855.07" y2="339.139" gradientUnits="userSpaceOnUse">
<stop stop-color="#B1E938"/>
<stop offset="1" stop-color="#61BB00"/>
</linearGradient>
<linearGradient id="paint11_linear_46_129" x1="851.565" y1="265.586" x2="851.565" y2="275.261" gradientUnits="userSpaceOnUse">
<stop stop-color="#B1E938"/>
<stop offset="1" stop-color="#61BB00"/>
</linearGradient>
<linearGradient id="paint12_linear_46_129" x1="849.847" y1="338.521" x2="849.847" y2="347.861" gradientUnits="userSpaceOnUse">
<stop stop-color="#B1E938"/>
<stop offset="1" stop-color="#61BB00"/>
</linearGradient>
<linearGradient id="paint13_linear_46_129" x1="767.014" y1="749.992" x2="767.014" y2="808.529" gradientUnits="userSpaceOnUse">
<stop stop-color="#B1E938"/>
<stop offset="1" stop-color="#61BB00"/>
</linearGradient>
<linearGradient id="paint14_linear_46_129" x1="845.668" y1="258.679" x2="845.668" y2="265.966" gradientUnits="userSpaceOnUse">
<stop stop-color="#B1E938"/>
<stop offset="1" stop-color="#61BB00"/>
</linearGradient>
<linearGradient id="paint15_linear_46_129" x1="843.319" y1="347.351" x2="843.319" y2="355.055" gradientUnits="userSpaceOnUse">
<stop stop-color="#B1E938"/>
<stop offset="1" stop-color="#61BB00"/>
</linearGradient>
<linearGradient id="paint16_linear_46_129" x1="860.638" y1="295.387" x2="860.638" y2="306.71" gradientUnits="userSpaceOnUse">
<stop stop-color="#B1E938"/>
<stop offset="1" stop-color="#61BB00"/>
</linearGradient>
<linearGradient id="paint17_linear_46_129" x1="801.862" y1="243.627" x2="801.862" y2="366.705" gradientUnits="userSpaceOnUse">
<stop stop-color="#B1E938"/>
<stop offset="1" stop-color="#61BB00"/>
</linearGradient>
<linearGradient id="paint18_linear_46_129" x1="838.635" y1="252.158" x2="838.635" y2="259.027" gradientUnits="userSpaceOnUse">
<stop stop-color="#B1E938"/>
<stop offset="1" stop-color="#61BB00"/>
</linearGradient>
<linearGradient id="paint19_linear_46_129" x1="835.459" y1="354.45" x2="835.459" y2="360.582" gradientUnits="userSpaceOnUse">
<stop stop-color="#B1E938"/>
<stop offset="1" stop-color="#61BB00"/>
</linearGradient>
<linearGradient id="paint20_linear_46_129" x1="769.177" y1="836.315" x2="769.177" y2="870.062" gradientUnits="userSpaceOnUse">
<stop stop-color="#B1E938"/>
<stop offset="1" stop-color="#61BB00"/>
</linearGradient>
<linearGradient id="paint21_linear_46_129" x1="822.701" y1="243.647" x2="822.701" y2="252.424" gradientUnits="userSpaceOnUse">
<stop stop-color="#B1E938"/>
<stop offset="1" stop-color="#61BB00"/>
</linearGradient>
<linearGradient id="paint22_linear_46_129" x1="820.86" y1="360.086" x2="820.86" y2="366.737" gradientUnits="userSpaceOnUse">
<stop stop-color="#B1E938"/>
<stop offset="1" stop-color="#61BB00"/>
</linearGradient>
<linearGradient id="paint23_linear_46_129" x1="770.227" y1="600.478" x2="770.227" y2="654.714" gradientUnits="userSpaceOnUse">
<stop stop-color="#B1E938"/>
<stop offset="1" stop-color="#61BB00"/>
</linearGradient>
<linearGradient id="paint24_linear_46_129" x1="756.988" y1="399.86" x2="756.988" y2="409.83" gradientUnits="userSpaceOnUse">
<stop stop-color="#B1E938"/>
<stop offset="1" stop-color="#61BB00"/>
</linearGradient>
<linearGradient id="paint25_linear_46_129" x1="755.969" y1="409.374" x2="755.969" y2="419.398" gradientUnits="userSpaceOnUse">
<stop stop-color="#B1E938"/>
<stop offset="1" stop-color="#61BB00"/>
</linearGradient>
<linearGradient id="paint26_linear_46_129" x1="754.714" y1="380.952" x2="754.714" y2="390.896" gradientUnits="userSpaceOnUse">
<stop stop-color="#B1E938"/>
<stop offset="1" stop-color="#61BB00"/>
</linearGradient>
<linearGradient id="paint27_linear_46_129" x1="775.552" y1="440.345" x2="775.552" y2="495.377" gradientUnits="userSpaceOnUse">
<stop stop-color="#B1E938"/>
<stop offset="1" stop-color="#61BB00"/>
</linearGradient>
<linearGradient id="paint28_linear_46_129" x1="753.473" y1="418.955" x2="753.473" y2="428.898" gradientUnits="userSpaceOnUse">
<stop stop-color="#B1E938"/>
<stop offset="1" stop-color="#61BB00"/>
</linearGradient>
<linearGradient id="paint29_linear_46_129" x1="751.621" y1="372.808" x2="751.621" y2="381.611" gradientUnits="userSpaceOnUse">
<stop stop-color="#B1E938"/>
<stop offset="1" stop-color="#61BB00"/>
</linearGradient>
<linearGradient id="paint30_linear_46_129" x1="749.42" y1="428.444" x2="749.42" y2="436.791" gradientUnits="userSpaceOnUse">
<stop stop-color="#B1E938"/>
<stop offset="1" stop-color="#61BB00"/>
</linearGradient>
<linearGradient id="paint31_linear_46_129" x1="732.807" y1="472.144" x2="732.807" y2="503.637" gradientUnits="userSpaceOnUse">
<stop stop-color="#B1E938"/>
<stop offset="1" stop-color="#61BB00"/>
</linearGradient>
<linearGradient id="paint32_linear_46_129" x1="747.025" y1="365.132" x2="747.025" y2="373.64" gradientUnits="userSpaceOnUse">
<stop stop-color="#B1E938"/>
<stop offset="1" stop-color="#61BB00"/>
</linearGradient>
<linearGradient id="paint33_linear_46_129" x1="744.194" y1="436.333" x2="744.194" y2="443.415" gradientUnits="userSpaceOnUse">
<stop stop-color="#B1E938"/>
<stop offset="1" stop-color="#61BB00"/>
</linearGradient>
<linearGradient id="paint34_linear_46_129" x1="756.526" y1="390.332" x2="756.526" y2="400.343" gradientUnits="userSpaceOnUse">
<stop stop-color="#B1E938"/>
<stop offset="1" stop-color="#61BB00"/>
</linearGradient>
<linearGradient id="paint35_linear_46_129" x1="705.766" y1="348.619" x2="705.766" y2="455.564" gradientUnits="userSpaceOnUse">
<stop stop-color="#B1E938"/>
<stop offset="1" stop-color="#61BB00"/>
</linearGradient>
<linearGradient id="paint36_linear_46_129" x1="741.456" y1="359.497" x2="741.456" y2="365.708" gradientUnits="userSpaceOnUse">
<stop stop-color="#B1E938"/>
<stop offset="1" stop-color="#61BB00"/>
</linearGradient>
<linearGradient id="paint37_linear_46_129" x1="722.243" y1="596.156" x2="722.243" y2="652.128" gradientUnits="userSpaceOnUse">
<stop stop-color="#B1E938"/>
<stop offset="1" stop-color="#61BB00"/>
</linearGradient>
<linearGradient id="paint38_linear_46_129" x1="735.015" y1="354.17" x2="735.015" y2="359.954" gradientUnits="userSpaceOnUse">
<stop stop-color="#B1E938"/>
<stop offset="1" stop-color="#61BB00"/>
</linearGradient>
<linearGradient id="paint39_linear_46_129" x1="737.732" y1="443.02" x2="737.732" y2="448.598" gradientUnits="userSpaceOnUse">
<stop stop-color="#B1E938"/>
<stop offset="1" stop-color="#61BB00"/>
</linearGradient>
<linearGradient id="paint40_linear_46_129" x1="725.378" y1="448.249" x2="725.378" y2="455.32" gradientUnits="userSpaceOnUse">
<stop stop-color="#B1E938"/>
<stop offset="1" stop-color="#61BB00"/>
</linearGradient>
<linearGradient id="paint41_linear_46_129" x1="720.776" y1="348.403" x2="720.776" y2="354.852" gradientUnits="userSpaceOnUse">
<stop stop-color="#B1E938"/>
<stop offset="1" stop-color="#61BB00"/>
</linearGradient>
<linearGradient id="paint42_linear_46_129" x1="503.845" y1="269.889" x2="503.845" y2="354.943" gradientUnits="userSpaceOnUse">
<stop stop-color="#B1E938"/>
<stop offset="1" stop-color="#61BB00"/>
</linearGradient>
<linearGradient id="paint43_linear_46_129" x1="298.059" y1="825.626" x2="298.059" y2="878.811" gradientUnits="userSpaceOnUse">
<stop stop-color="#B1E938"/>
<stop offset="1" stop-color="#61BB00"/>
</linearGradient>
<linearGradient id="paint44_linear_46_129" x1="281.167" y1="192.054" x2="281.167" y2="261.119" gradientUnits="userSpaceOnUse">
<stop stop-color="#B1E938"/>
<stop offset="1" stop-color="#61BB00"/>
</linearGradient>
<linearGradient id="paint45_linear_46_129" x1="72.6191" y1="720.601" x2="72.6191" y2="829.123" gradientUnits="userSpaceOnUse">
<stop stop-color="#B1E938"/>
<stop offset="1" stop-color="#61BB00"/>
</linearGradient>
<clipPath id="clip0_46_129">
<rect width="960" height="960" fill="white"/>
</clipPath>
<clipPath id="clip1_46_129">
<rect width="884" height="847" fill="white" transform="translate(38 57)"/>
</clipPath>
</defs>
</svg>
